<?xml version="1.0" standalone="no"?>
<!DOCTYPE svg PUBLIC "-//W3C//DTD SVG 1.1//EN" "http://www.w3.org/Graphics/SVG/1.1/DTD/svg11.dtd" >
<svg xmlns="http://www.w3.org/2000/svg">
<metadata></metadata>
<defs>
<font id="good_vibes_proregular" horiz-adv-x="686" >
<font-face units-per-em="2048" ascent="1638" descent="-410" />
<missing-glyph horiz-adv-x="530" />
<glyph unicode="fl" horiz-adv-x="839" d="M-240 -606q-2 49 14.5 119.5t45 156.5t67.5 184.5t84 204.5q-16 25 -21 52.5t-2 53t13 46t25 31.5q35 29 73 22q55 125 111.5 247t111 235.5t104.5 213t93 179.5q35 66 72 104.5t102 38.5q18 0 42.5 -7t47.5 -3q-49 -45 -119.5 -150.5t-151.5 -249t-167 -313.5t-162 -342 q20 -25 38 -62.5t28 -91.5q2 -6 3 -13t3 -13q45 -4 90 32.5t85 92t74 120t58 117.5q10 20 25.5 14.5t5.5 -28.5q-29 -66 -63.5 -133.5t-76.5 -124.5t-90.5 -93t-103.5 -36q8 -109 -14.5 -233.5t-69.5 -232t-116.5 -178.5t-151.5 -67q-43 2 -74 23.5t-33 83.5zM-129 -613 q4 -40 24.5 -45.5t50 18.5t60.5 65q37 49 68.5 117.5t55.5 145t36 155.5t10 147q-31 -4 -64.5 6t-54.5 27q-53 -135 -99 -269.5t-71 -236.5q-20 -90 -16 -130zM78 68q10 -16 31.5 -27.5t50.5 -11.5h12q-4 51 -18 92q-12 27 -31 49q-12 -29 -22.5 -51.5t-22.5 -50.5zM474 152 q1 43 9.5 88t20.5 87t20 72q25 86 59.5 182.5t75.5 191.5t86.5 185.5t90.5 163.5q55 92 116.5 132t102.5 27t48 -80.5t-48 -190.5q-72 -160 -170.5 -319t-249.5 -296q-8 -27 -20.5 -61.5t-22.5 -73.5q-23 -92 -8.5 -145.5t50.5 -68.5t82 6.5t87 78.5q25 37 48 74t42.5 71.5 t35 64.5t25.5 50q14 27 29.5 24t1.5 -34q-18 -41 -49 -106.5t-75 -127t-103.5 -106.5t-136.5 -45q-57 0 -89 21.5t-45.5 56.5t-12.5 78zM651 461q55 55 108.5 125.5t102.5 147.5t90 155.5t72 150.5q14 35 24.5 76t7.5 64.5t-21.5 17.5t-59.5 -65q-37 -53 -84 -141.5 t-92 -185.5t-84 -190.5t-64 -154.5z" />
<glyph unicode="ffi" horiz-adv-x="1167" d="M-240 -606q-2 49 14.5 119.5t45 156.5t67.5 184.5t84 204.5q-16 25 -21 52.5t-2 53t13 46t25 31.5q35 29 73 22q55 125 111.5 247t111 235.5t104.5 213t93 179.5q35 66 72 104.5t102 38.5q18 0 42.5 -7t47.5 -3q-49 -45 -119.5 -150.5t-151.5 -249t-167 -313.5t-162 -342 q20 -25 38 -62.5t28 -91.5q2 -6 3 -13t3 -13q45 -4 90 32.5t85 92t74 120t58 117.5q10 20 25.5 14.5t5.5 -28.5q-29 -66 -63.5 -133.5t-76.5 -124.5t-90.5 -93t-103.5 -36q8 -109 -14.5 -233.5t-69.5 -232t-116.5 -178.5t-151.5 -67q-43 2 -74 23.5t-33 83.5zM-129 -613 q4 -40 24.5 -45.5t50 18.5t60.5 65q37 49 68.5 117.5t55.5 145t36 155.5t10 147q-31 -4 -64.5 6t-54.5 27q-53 -135 -99 -269.5t-71 -236.5q-20 -90 -16 -130zM78 68q10 -16 31.5 -27.5t50.5 -11.5h12q-4 51 -18 92q-12 27 -31 49q-12 -29 -22.5 -51.5t-22.5 -50.5z M166 -606q-2 49 14.5 119.5t45 156.5t67.5 184.5t84 204.5q-16 25 -21.5 52.5t-2.5 53t13.5 46t24.5 31.5q35 29 74 22q55 125 111.5 247t110.5 235.5t104.5 213t93.5 179.5q35 66 71.5 104.5t102.5 38.5q18 0 42.5 -7t47.5 -3q-49 -45 -120 -150.5t-151.5 -249 t-166.5 -313.5t-162 -342q20 -25 37.5 -62.5t27.5 -91.5q2 -6 3 -13t4 -13q45 -4 90 32.5t85 92t73.5 120t58.5 117.5q10 20 25.5 14.5t4.5 -28.5q-29 -66 -63.5 -133.5t-76.5 -124.5t-90 -93t-103 -36q8 -109 -14.5 -233.5t-69.5 -232t-117 -178.5t-152 -67 q-43 2 -73.5 23.5t-32.5 83.5zM277 -613q4 -40 24.5 -45.5t50 18.5t60.5 65q37 49 68.5 117.5t55 145t36 155.5t10.5 147q-31 -4 -65 6t-54 27q-53 -135 -99.5 -269.5t-70.5 -236.5q-20 -90 -16 -130zM483 68q10 -16 32 -27.5t50 -11.5h13q-4 51 -19 92q-12 27 -31 49 q-12 -29 -22 -51.5t-23 -50.5zM854 179q6 46 23 87l131 334q12 29 -1.5 53.5t-19.5 32.5l113 2q49 0 54 -17.5t-11 -54.5l-164 -383q-4 -14 -10 -24q-4 -10 -8.5 -20.5t-6.5 -14.5q-14 -51 -7 -88t50 -41q23 -4 49.5 9.5t43.5 29.5q51 51 100 137t92 172q12 29 26.5 21 t0.5 -39q-20 -43 -51 -106.5t-73 -124t-91.5 -102.5t-106.5 -42t-88 26.5t-41 66.5t-4 86zM1073 856q6 35 35 59.5t63 24.5q35 0 56.5 -24.5t15.5 -59.5t-34.5 -59.5t-63.5 -24.5t-55.5 24.5t-16.5 59.5z" />
<glyph unicode="ffl" horiz-adv-x="1245" d="M-240 -606q-2 49 14.5 119.5t45 156.5t67.5 184.5t84 204.5q-16 25 -21 52.5t-2 53t13 46t25 31.5q35 29 73 22q55 125 111.5 247t111 235.5t104.5 213t93 179.5q35 66 72 104.5t102 38.5q18 0 42.5 -7t47.5 -3q-49 -45 -119.5 -150.5t-151.5 -249t-167 -313.5t-162 -342 q20 -25 38 -62.5t28 -91.5q2 -6 3 -13t3 -13q45 -4 90 32.5t85 92t74 120t58 117.5q10 20 25.5 14.5t5.5 -28.5q-29 -66 -63.5 -133.5t-76.5 -124.5t-90.5 -93t-103.5 -36q8 -109 -14.5 -233.5t-69.5 -232t-116.5 -178.5t-151.5 -67q-43 2 -74 23.5t-33 83.5zM-129 -613 q4 -40 24.5 -45.5t50 18.5t60.5 65q37 49 68.5 117.5t55.5 145t36 155.5t10 147q-31 -4 -64.5 6t-54.5 27q-53 -135 -99 -269.5t-71 -236.5q-20 -90 -16 -130zM78 68q10 -16 31.5 -27.5t50.5 -11.5h12q-4 51 -18 92q-12 27 -31 49q-12 -29 -22.5 -51.5t-22.5 -50.5z M166 -606q-2 49 14.5 119.5t45 156.5t67.5 184.5t84 204.5q-16 25 -21.5 52.5t-2.5 53t13.5 46t24.5 31.5q35 29 74 22q55 125 111.5 247t110.5 235.5t104.5 213t93.5 179.5q35 66 71.5 104.5t102.5 38.5q18 0 42.5 -7t47.5 -3q-49 -45 -120 -150.5t-151.5 -249 t-166.5 -313.5t-162 -342q20 -25 37.5 -62.5t27.5 -91.5q2 -6 3 -13t4 -13q45 -4 90 32.5t85 92t73.5 120t58.5 117.5q10 20 25.5 14.5t4.5 -28.5q-29 -66 -63.5 -133.5t-76.5 -124.5t-90 -93t-103 -36q8 -109 -14.5 -233.5t-69.5 -232t-117 -178.5t-152 -67 q-43 2 -73.5 23.5t-32.5 83.5zM277 -613q4 -40 24.5 -45.5t50 18.5t60.5 65q37 49 68.5 117.5t55 145t36 155.5t10.5 147q-31 -4 -65 6t-54 27q-53 -135 -99.5 -269.5t-70.5 -236.5q-20 -90 -16 -130zM483 68q10 -16 32 -27.5t50 -11.5h13q-4 51 -19 92q-12 27 -31 49 q-12 -29 -22 -51.5t-23 -50.5zM880 152q1 43 9 88t20.5 87t20.5 72q25 86 59.5 182.5t75.5 191.5t86 185.5t90 163.5q55 92 116.5 132t102.5 27t48 -80.5t-48 -190.5q-72 -160 -170 -319t-250 -296q-8 -27 -20 -61.5t-23 -73.5q-23 -92 -8 -145.5t50.5 -68.5t81.5 6.5 t87 78.5q25 37 48.5 74t43 71.5t35 64.5t25.5 50q14 27 29.5 24t1.5 -34q-18 -41 -49 -106.5t-75 -127t-103.5 -106.5t-137.5 -45q-57 0 -89 21.5t-45 56.5t-12 78zM1057 461q55 55 108.5 125.5t102.5 147.5t90 155.5t72 150.5q14 35 24 76t7 64.5t-21.5 17.5t-59.5 -65 q-37 -53 -84 -141.5t-92 -185.5t-84 -190.5t-63 -154.5z" />
<glyph unicode="&#x430;&#x43b;" horiz-adv-x="1533" d="M53 226.5q10 74.5 50 163.5t118 181q45 55 109.5 94.5t131 55.5t129 4t105.5 -59q23 -23 13.5 -43.5t-35.5 -16.5q-16 57 -66.5 69.5t-107.5 -18.5q-70 -39 -143.5 -119.5t-129.5 -172.5q-6 -10 -18 -33t-25.5 -52.5t-25 -61.5t-15.5 -60q-8 -53 7.5 -78t43 -25 t64.5 23.5t74 66.5q53 66 97 138.5t85 148.5q35 66 62.5 100.5t76.5 30.5q20 -2 41.5 -7t44.5 -1q-16 -16 -43.5 -60t-57.5 -100.5t-54.5 -116t-34.5 -106.5q-25 -123 20 -123q23 0 47.5 18.5t47 45t43 56.5t32.5 52q16 27 31.5 19.5t-0.5 -35.5q-49 -84 -106.5 -144.5 t-110.5 -64.5q-25 -2 -53.5 9t-47 41t-21.5 82t20 132q-25 -41 -64 -95t-84 -97q-59 -57 -109.5 -67.5t-85 15t-50 81t-5.5 130zM713.5 195q15.5 41 44 52t49 -10.5t-5.5 -78.5q-8 -16 -4 -35t15 -34t28.5 -24.5t36.5 -9.5q35 2 60 9.5t48 27.5q41 35 75 85t63.5 107.5 t55 117t48 111.5t43 92t43.5 61q16 16 32.5 24t39 11.5t52 3.5h74.5q8 0 2 -5.5t-18 -11.5t-29.5 -11t-29.5 -5q-59 2 -84 -23.5t-52 -73.5q-33 -59 -70.5 -155t-85.5 -189.5t-108.5 -161t-140.5 -67.5q-49 0 -91 17.5t-69 66.5q-37 68 -21.5 109zM1237 153.5 q0 49.5 20 110.5q14 45 35 96.5t44.5 103.5t47 103.5t41.5 94.5q12 25 32 34t48 9h111q-23 -18 -39 -34t-31.5 -37.5t-32 -53t-38.5 -78.5q-23 -43 -44.5 -89t-41 -90t-34 -82t-18.5 -65q-14 -66 1.5 -93.5t37.5 -29.5q37 0 75 33t73 83t66.5 110.5t58.5 115.5 q12 27 27.5 20t0.5 -38q-25 -53 -57.5 -117.5t-73.5 -122t-90 -96.5t-104 -39q-35 0 -61.5 17.5t-40 51t-13.5 83z" />
<glyph unicode="&#x430;&#x43c;" horiz-adv-x="1929" d="M53 226.5q10 74.5 50 163.5t118 181q45 55 109.5 94.5t131 55.5t129 4t105.5 -59q23 -23 13.5 -43.5t-35.5 -16.5q-16 57 -66.5 69.5t-107.5 -18.5q-70 -39 -143.5 -119.5t-129.5 -172.5q-6 -10 -18 -33t-25.5 -52.5t-25 -61.5t-15.5 -60q-8 -53 7.5 -78t43 -25 t64.5 23.5t74 66.5q53 66 97 138.5t85 148.5q35 66 62.5 100.5t76.5 30.5q20 -2 41.5 -7t44.5 -1q-16 -16 -43.5 -60t-57.5 -100.5t-54.5 -116t-34.5 -106.5q-25 -123 20 -123q23 0 47.5 18.5t47 45t43 56.5t32.5 52q16 27 31.5 19.5t-0.5 -35.5q-49 -84 -106.5 -144.5 t-110.5 -64.5q-25 -2 -53.5 9t-47 41t-21.5 82t20 132q-25 -41 -64 -95t-84 -97q-59 -57 -109.5 -67.5t-85 15t-50 81t-5.5 130zM713.5 195q15.5 41 44 52t49 -10.5t-5.5 -78.5q-8 -16 -4 -35t15 -34t28.5 -24.5t36.5 -9.5q35 2 60 9.5t48 27.5q41 35 75 85t63.5 107.5 t55 117t48 111.5t43 92t43.5 61q16 16 32.5 24t39 11.5t52 3.5h74.5q8 0 2 -5.5t-18 -11.5t-29.5 -11t-29.5 -5q-59 2 -84 -23.5t-52 -73.5q-33 -59 -70.5 -155t-85.5 -189.5t-108.5 -161t-140.5 -67.5q-49 0 -91 17.5t-69 66.5q-37 68 -21.5 109zM1200 154.5 q0 48.5 21 109.5q14 45 34.5 96.5t44 103.5t47 103t42.5 95q12 25 31.5 34t47.5 9h111q-23 -18 -39 -34t-31.5 -37.5t-32 -53t-38.5 -78.5q-23 -43 -44.5 -89t-41 -90t-33.5 -82t-19 -65q-14 -66 1.5 -92.5t37.5 -30.5q41 -6 81 31t77 97.5t71 135t64.5 145t58 126 t52.5 78.5q16 16 32.5 24t39 11.5t52 3.5h75.5q8 0 1.5 -5.5t-18.5 -11.5t-29.5 -11t-29.5 -5q-59 2 -83 -23.5t-52 -73.5q-23 -39 -46.5 -97t-51 -122.5t-60.5 -129t-72 -115t-85 -81t-101 -28.5q-35 2 -61.5 19.5t-40 51t-13.5 82zM1632 153.5q0 49.5 21 110.5 q14 45 34.5 96.5t44 103.5t47.5 103.5t42 94.5q12 25 31.5 34t48.5 9h110q-23 -18 -39 -34t-31.5 -37.5t-32 -53t-38.5 -78.5q-23 -43 -44.5 -89t-41 -90t-33.5 -82t-18 -65q-14 -66 1 -93.5t38 -29.5q37 0 74.5 33t72.5 83t66.5 110.5t58.5 115.5q12 27 27.5 20t1.5 -38 q-25 -53 -58 -117.5t-73.5 -122t-90 -96.5t-104.5 -39q-35 0 -61.5 17.5t-40 51t-13.5 83z" />
<glyph unicode="&#x430;&#x44f;" horiz-adv-x="1468" d="M53 226.5q10 74.5 50 163.5t118 181q45 55 109.5 94.5t131 55.5t129 4t105.5 -59q23 -23 13.5 -43.5t-35.5 -16.5q-16 57 -66.5 69.5t-107.5 -18.5q-70 -39 -143.5 -119.5t-129.5 -172.5q-6 -10 -18 -33t-25.5 -52.5t-25 -61.5t-15.5 -60q-8 -53 7.5 -78t43 -25 t64.5 23.5t74 66.5q53 66 97 138.5t85 148.5q35 66 62.5 100.5t76.5 30.5q20 -2 41.5 -7t44.5 -1q-16 -16 -43.5 -60t-57.5 -100.5t-54.5 -116t-34.5 -106.5q-25 -123 20 -123q23 0 47.5 18.5t47 45t43 56.5t32.5 52q16 27 31.5 19.5t-0.5 -35.5q-49 -84 -106.5 -144.5 t-110.5 -64.5q-25 -2 -53.5 9t-47 41t-21.5 82t20 132q-25 -41 -64 -95t-84 -97q-59 -57 -109.5 -67.5t-85 15t-50 81t-5.5 130zM685 161q-1 36 12.5 57.5t34 28.5t35.5 0t20.5 -29.5t-13.5 -59.5q-8 -18 -4 -38t15.5 -36t28.5 -27.5t40 -11.5q35 -2 60.5 7t48.5 30 q47 41 91 100.5t81 124.5q4 4 28 0q11 -2 27 -4q-33 -59 -66.5 -115.5t-72.5 -99.5t-82 -69.5t-92 -26.5q-119 0 -164 84q-27 49 -28 85zM1026 407.5q-2 32.5 4 61.5q8 37 25.5 75t42 70.5t56.5 57t69 35.5q55 16 96 8t61.5 -37t19.5 -78t-32 -113q-45 -55 -74 -84 q-25 -25 -37 -28.5t15 45.5t47 94t26.5 80t-6 56.5t-51.5 23.5q-29 2 -56.5 -11.5t-47.5 -41.5q-23 -31 -48.5 -72t-37.5 -76q-8 -20 -10.5 -49t8 -52.5t40 -36.5t87.5 -5q29 4 28.5 -11.5t-41.5 -19.5q-68 -8 -106.5 7.5t-57 42t-20.5 59zM1160.5 127q-5.5 53 13.5 100 q25 51 44 91t38.5 77t41 76t48.5 88q20 37 33.5 62.5t26.5 41t28.5 21.5t40.5 4q20 -2 41.5 -7t44.5 -1q-23 -12 -54.5 -53t-65.5 -96.5t-67.5 -118t-60.5 -117.5q-14 -29 -29.5 -71t-22 -82t3 -68.5t46.5 -28.5q39 0 81 43t78.5 100.5t66.5 115.5t46 91q12 27 27.5 20 t1.5 -38q-23 -47 -56.5 -112.5t-76.5 -126t-94.5 -103.5t-110.5 -43q-25 0 -48.5 13t-43.5 42q-16 27 -21.5 80z" />
<glyph unicode="&#x431;&#x43b;" horiz-adv-x="1499" d="M71.5 234.5q10.5 66.5 39.5 134.5q31 70 75.5 133t97 110t107.5 75t109 26q57 0 92 -33t46 -86t1 -119.5t-39 -134.5q-23 -53 -68 -119.5t-104 -122.5q27 -51 96 -51q59 0 106.5 53.5t94.5 126.5q10 14 27.5 9t5.5 -27q-16 -31 -41 -64.5t-54.5 -63.5t-65.5 -49.5 t-77 -19.5q-47 -2 -79 14.5t-52 39.5q-43 -33 -88 -52.5t-90 -17.5q-59 2 -93 34.5t-45.5 85t-1 119zM182 156q-4 -45 6.5 -75t38.5 -38q29 -8 66 6t74 45q-16 25 -24.5 51.5t-8.5 49.5q2 35 17.5 61.5t54.5 26.5q27 0 44 -18.5t17 -43.5q0 -6 -1 -11t-3 -11q35 51 63 110 q31 63 47.5 120.5t18.5 103t-10 75t-39 37.5q-33 8 -72 -9.5t-78 -55t-75.5 -90t-65.5 -113.5q-31 -63 -48.5 -119.5t-21.5 -101.5zM353 1412q-5 66 18 132q31 96 106.5 131t186.5 29q49 -2 91 -13.5t79.5 -25.5t77.5 -25.5t87 -13.5q63 -4 104.5 17.5t67.5 58.5q2 4 13.5 5 t24 0t21.5 -4t7 -5q-23 -31 -52.5 -62.5t-68.5 -57.5t-86 -41t-102 -11q-49 2 -90 15t-80 27.5t-79 27t-89 14.5q-55 4 -91 -26t-55 -83q-14 -43 -17 -82t4 -86t23.5 -106.5t45.5 -139.5q12 -35 57 -160.5t84 -351.5q4 -23 -5 -12.5t-24 31.5q-16 23 -37 59 q-20 111 -55 215.5t-63 188.5q-16 47 -40 105.5t-41.5 121t-22.5 128.5zM678.5 195q15.5 41 44.5 52t49.5 -10.5t-6.5 -78.5q-8 -16 -4 -35t15 -34t28.5 -24.5t36.5 -9.5q35 2 60 9.5t48 27.5q41 35 75 85t63.5 107.5t55 117t48 111.5t43 92t43.5 61q16 16 32.5 24t39 11.5 t52.5 3.5h75q8 0 2 -5.5t-18.5 -11.5t-30 -11t-29.5 -5q-59 2 -84 -23.5t-51 -73.5q-33 -59 -71 -155t-86 -189.5t-108.5 -161t-140.5 -67.5q-49 0 -91 17.5t-69 66.5q-37 68 -21.5 109zM1202 153.5q0 49.5 21 110.5q14 45 34.5 96.5t44 103.5t47.5 103.5t42 94.5 q12 25 31.5 34t47.5 9h111q-23 -18 -39 -34t-31.5 -37.5t-32 -53t-38.5 -78.5q-23 -43 -44.5 -89t-41 -90t-33.5 -82t-18 -65q-14 -66 1 -93.5t37 -29.5q37 0 75 33t73 83t66.5 110.5t58.5 115.5q12 27 27.5 20t0.5 -38q-25 -53 -57.5 -117.5t-73.5 -122t-90 -96.5t-104 -39 q-35 0 -61.5 17.5t-40 51t-13.5 83z" />
<glyph unicode="&#x431;&#x43c;" horiz-adv-x="1894" d="M71.5 234.5q10.5 66.5 39.5 134.5q31 70 75.5 133t97 110t107.5 75t109 26q57 0 92 -33t46 -86t1 -119.5t-39 -134.5q-23 -53 -68 -119.5t-104 -122.5q27 -51 96 -51q59 0 106.5 53.5t94.5 126.5q10 14 27.5 9t5.5 -27q-16 -31 -41 -64.5t-54.5 -63.5t-65.5 -49.5 t-77 -19.5q-47 -2 -79 14.5t-52 39.5q-43 -33 -88 -52.5t-90 -17.5q-59 2 -93 34.5t-45.5 85t-1 119zM182 156q-4 -45 6.5 -75t38.5 -38q29 -8 66 6t74 45q-16 25 -24.5 51.5t-8.5 49.5q2 35 17.5 61.5t54.5 26.5q27 0 44 -18.5t17 -43.5q0 -6 -1 -11t-3 -11q35 51 63 110 q31 63 47.5 120.5t18.5 103t-10 75t-39 37.5q-33 8 -72 -9.5t-78 -55t-75.5 -90t-65.5 -113.5q-31 -63 -48.5 -119.5t-21.5 -101.5zM353 1412q-5 66 18 132q31 96 106.5 131t186.5 29q49 -2 91 -13.5t79.5 -25.5t77.5 -25.5t87 -13.5q63 -4 104.5 17.5t67.5 58.5q2 4 13.5 5 t24 0t21.5 -4t7 -5q-23 -31 -52.5 -62.5t-68.5 -57.5t-86 -41t-102 -11q-49 2 -90 15t-80 27.5t-79 27t-89 14.5q-55 4 -91 -26t-55 -83q-14 -43 -17 -82t4 -86t23.5 -106.5t45.5 -139.5q12 -35 57 -160.5t84 -351.5q4 -23 -5 -12.5t-24 31.5q-16 23 -37 59 q-20 111 -55 215.5t-63 188.5q-16 47 -40 105.5t-41.5 121t-22.5 128.5zM678.5 195q15.5 41 44.5 52t49.5 -10.5t-6.5 -78.5q-8 -16 -4 -35t15 -34t28.5 -24.5t36.5 -9.5q35 2 60 9.5t48 27.5q41 35 75 85t63.5 107.5t55 117t48 111.5t43 92t43.5 61q16 16 32.5 24t39 11.5 t52.5 3.5h75q8 0 2 -5.5t-18.5 -11.5t-30 -11t-29.5 -5q-59 2 -84 -23.5t-51 -73.5q-33 -59 -71 -155t-86 -189.5t-108.5 -161t-140.5 -67.5q-49 0 -91 17.5t-69 66.5q-37 68 -21.5 109zM1165 154.5q0 48.5 21 109.5q14 45 34.5 96.5t44 103.5t47 103t42.5 95q12 25 31.5 34 t48.5 9h110q-23 -18 -39 -34t-31.5 -37.5t-32 -53t-38.5 -78.5q-23 -43 -44.5 -89t-41 -90t-33.5 -82t-18 -65q-14 -66 1 -92.5t38 -30.5q41 -6 80.5 31t76.5 97.5t71 135t64.5 145t58 126t52.5 78.5q16 16 32.5 24t39 11.5t52.5 3.5h75q8 0 2 -5.5t-18.5 -11.5t-30 -11 t-29.5 -5q-59 2 -83 -23.5t-52 -73.5q-23 -39 -46.5 -97t-51 -122.5t-60.5 -129t-72 -115t-85 -81t-101 -28.5q-35 2 -61.5 19.5t-40 51t-13.5 82zM1597 153.5q0 49.5 21 110.5q14 45 34.5 96.5t44 103.5t47.5 103.5t42 94.5q12 25 31.5 34t48.5 9h110q-23 -18 -39 -34 t-31.5 -37.5t-31.5 -53t-39 -78.5q-23 -43 -44.5 -89t-40.5 -90t-33.5 -82t-18.5 -65q-14 -66 1 -93.5t38 -29.5q37 0 74.5 33t72.5 83t66.5 110.5t58.5 115.5q12 27 27.5 20t1.5 -38q-25 -53 -57.5 -117.5t-73.5 -122t-90.5 -96.5t-104.5 -39q-35 0 -61.5 17.5t-40 51 t-13.5 83z" />
<glyph unicode="&#x431;&#x44f;" horiz-adv-x="1433" d="M71.5 234.5q10.5 66.5 39.5 134.5q31 70 75.5 133t97 110t107.5 75t109 26q57 0 92 -33t46 -86t1 -119.5t-39 -134.5q-23 -53 -68 -119.5t-104 -122.5q27 -51 96 -51q57 0 104.5 52.5t88.5 115.5q10 14 25.5 3t0.5 -34q-12 -20 -33.5 -50t-50 -56.5t-63.5 -46t-76 -19.5 q-47 -2 -79 14.5t-52 39.5q-43 -33 -88 -52.5t-90 -17.5q-59 2 -93 34.5t-45.5 85t-1 119zM182 156q-4 -45 6.5 -75t38.5 -38q29 -8 66 6t74 45q-16 25 -24.5 51.5t-8.5 49.5q2 35 17.5 61.5t54.5 26.5q27 0 44 -18.5t17 -43.5q0 -6 -1 -11t-3 -11q35 51 63 110 q31 63 47.5 120.5t18.5 103t-10 75t-39 37.5q-33 8 -72 -9.5t-78 -55t-75.5 -90t-65.5 -113.5q-31 -63 -48.5 -119.5t-21.5 -101.5zM353 1412q-5 66 18 132q31 96 106.5 131t186.5 29q49 -2 91 -13.5t79.5 -25.5t77.5 -25.5t87 -13.5q63 -4 104.5 17.5t67.5 58.5q2 4 13.5 5 t24 0t21.5 -4t7 -5q-23 -31 -52.5 -62.5t-68.5 -57.5t-86 -41t-102 -11q-49 2 -90 15t-80 27.5t-79 27t-89 14.5q-55 4 -91 -26t-55 -83q-14 -43 -17 -82t4 -86t23.5 -106.5t45.5 -139.5q12 -35 57 -160.5t84 -351.5q4 -23 -5 -12.5t-24 31.5q-16 23 -37 59 q-20 111 -55 215.5t-63 188.5q-16 47 -40 105.5t-41.5 121t-22.5 128.5zM650 161q-1 36 12.5 57.5t34 28.5t36 0t20.5 -29.5t-14 -59.5q-8 -18 -4 -38t15.5 -36t29 -27.5t39.5 -11.5q35 -2 60.5 7t48.5 30q47 41 91 100.5t81 124.5q4 4 28 0q11 -2 27 -4 q-33 -59 -66.5 -115.5t-72.5 -99.5t-82 -69.5t-92 -26.5q-119 0 -164 84q-27 49 -28 85zM991 407.5q-2 32.5 4 61.5q8 37 25.5 75t42 70.5t56.5 57t69 35.5q55 16 96 8t61.5 -37t19.5 -78t-32 -113q-45 -55 -73 -84q-25 -25 -37.5 -28.5t14.5 45.5t47.5 94t26.5 80 t-6.5 56.5t-51.5 23.5q-29 2 -56.5 -11.5t-47.5 -41.5q-23 -31 -48.5 -72t-37.5 -76q-8 -20 -10 -49t8 -52.5t39.5 -36.5t87.5 -5q29 4 29 -11.5t-41 -19.5q-68 -8 -107 7.5t-57.5 42t-20.5 59zM1125.5 127q-5.5 53 13.5 100q25 51 44 91t38.5 77t41 76t48.5 88 q20 37 33.5 62.5t26.5 41t28.5 21.5t40.5 4q20 -2 41.5 -7t44.5 -1q-23 -12 -54.5 -53t-65.5 -96.5t-67.5 -118t-60.5 -117.5q-14 -29 -29.5 -71t-21.5 -82t3 -68.5t46 -28.5q39 0 81 43t79 100.5t66.5 115.5t45.5 91q12 27 27.5 20t1.5 -38q-23 -47 -56.5 -112.5 t-76.5 -126t-94.5 -103.5t-110.5 -43q-25 0 -48.5 13t-43.5 42q-16 27 -21.5 80z" />
<glyph unicode="&#x433;&#x43b;" horiz-adv-x="1421" d="M75 285.5q-1 9.5 7 25.5q23 47 56.5 112.5t76.5 126t94 103.5t111 43q20 0 51 -10t52.5 -36.5t24.5 -69.5t-32 -109q-18 -35 -45 -73t-52.5 -76.5t-46 -79.5t-26.5 -84q-4 -27 3 -48.5t21.5 -36t33 -21.5t36.5 -5q39 4 86 51t99 129q16 25 31.5 13.5t-3.5 -39.5 q-25 -39 -51.5 -76t-57 -64.5t-64.5 -45t-68 -17.5q-31 0 -68 10t-64.5 38t-37 75t15.5 117q14 39 37.5 77.5t49.5 77.5t50.5 78t40.5 80q12 29 10 47t-11 29.5t-21.5 15.5t-22.5 4q-41 0 -83 -43t-81 -101.5t-69.5 -117.5t-46.5 -92q-6 -14 -14.5 -18.5t-14.5 -1.5t-7 12.5 zM601 195q15 41 44 52t49.5 -10.5t-6.5 -78.5q-8 -16 -4 -35t15.5 -34t28.5 -24.5t36 -9.5q35 2 60 9.5t48 27.5q41 35 75 85t63.5 107.5t55.5 117t48.5 111.5t43 92t42.5 61q16 16 32.5 24t39 11.5t52.5 3.5h75q8 0 2 -5.5t-18.5 -11.5t-30 -11t-29.5 -5q-59 2 -84 -23.5 t-51 -73.5q-33 -59 -71 -155t-86 -189.5t-108.5 -161t-140.5 -67.5q-49 0 -91 17.5t-68 66.5q-37 68 -22 109zM1124 153.5q0 49.5 21 110.5q14 45 34.5 96.5t44 103.5t47.5 103.5t42 94.5q12 25 31.5 34t48.5 9h110q-23 -18 -39 -34t-31.5 -37.5t-32 -53t-38.5 -78.5 q-23 -43 -44.5 -89t-41 -90t-33.5 -82t-18 -65q-14 -66 1 -93.5t38 -29.5q37 0 74.5 33t72.5 83t66.5 110.5t58.5 115.5q12 27 27.5 20t1.5 -38q-25 -53 -57.5 -117.5t-73.5 -122t-90.5 -96.5t-104.5 -39q-35 0 -61.5 17.5t-40 51t-13.5 83z" />
<glyph unicode="&#x433;&#x43c;" horiz-adv-x="1816" d="M75 285.5q-1 9.5 7 25.5q23 47 56.5 112.5t76.5 126t94 103.5t111 43q20 0 51 -10t52.5 -36.5t24.5 -69.5t-32 -109q-18 -35 -45 -73t-52.5 -76.5t-46 -79.5t-26.5 -84q-4 -27 3 -48.5t21.5 -36t33 -21.5t36.5 -5q39 4 86 51t99 129q16 25 31.5 13.5t-3.5 -39.5 q-25 -39 -51.5 -76t-57 -64.5t-64.5 -45t-68 -17.5q-31 0 -68 10t-64.5 38t-37 75t15.5 117q14 39 37.5 77.5t49.5 77.5t50.5 78t40.5 80q12 29 10 47t-11 29.5t-21.5 15.5t-22.5 4q-41 0 -83 -43t-81 -101.5t-69.5 -117.5t-46.5 -92q-6 -14 -14.5 -18.5t-14.5 -1.5t-7 12.5 zM601 195q15 41 44 52t49.5 -10.5t-6.5 -78.5q-8 -16 -4 -35t15.5 -34t28.5 -24.5t36 -9.5q35 2 60 9.5t48 27.5q41 35 75 85t63.5 107.5t55.5 117t48.5 111.5t43 92t42.5 61q16 16 32.5 24t39 11.5t52.5 3.5h75q8 0 2 -5.5t-18.5 -11.5t-30 -11t-29.5 -5q-59 2 -84 -23.5 t-51 -73.5q-33 -59 -71 -155t-86 -189.5t-108.5 -161t-140.5 -67.5q-49 0 -91 17.5t-68 66.5q-37 68 -22 109zM1087 154.5q0 48.5 21 109.5q14 45 34.5 96.5t44 103.5t47 103t42.5 95q12 25 31.5 34t48.5 9h110q-23 -18 -39 -34t-31.5 -37.5t-31.5 -53t-39 -78.5 q-23 -43 -44 -89t-40.5 -90t-34 -82t-18.5 -65q-14 -66 1 -92.5t38 -30.5q41 -6 81 31t76.5 97.5t70.5 135t64.5 145t58.5 126t52 78.5q16 16 32.5 24t39 11.5t52.5 3.5h75q8 0 2 -5.5t-18.5 -11.5t-30 -11t-29.5 -5q-59 2 -82.5 -23.5t-52.5 -73.5q-23 -39 -46.5 -97 t-51 -122.5t-60.5 -129t-71.5 -115t-85 -81t-101.5 -28.5q-35 2 -61.5 19.5t-40 51t-13.5 82zM1520 153.5q0 49.5 20 110.5q14 45 34.5 96.5t44 103.5t47.5 103.5t42 94.5q12 25 31.5 34t48.5 9h110q-23 -18 -39 -34t-31.5 -37.5t-31.5 -53t-39 -78.5q-23 -43 -44 -89 t-40.5 -90t-34 -82t-18.5 -65q-14 -66 1 -93.5t38 -29.5q37 0 75 33t72.5 83t66.5 110.5t58 115.5q12 27 27.5 20t1.5 -38q-25 -53 -57.5 -117.5t-73.5 -122t-90 -96.5t-105 -39q-35 0 -61.5 17.5t-39.5 51t-13 83z" />
<glyph unicode="&#x433;&#x44f;" horiz-adv-x="1355" d="M75 285.5q-1 9.5 7 25.5q23 47 56.5 112.5t76.5 126t94 103.5t111 43q20 0 51 -10t52.5 -36.5t24.5 -69.5t-32 -109q-18 -35 -45 -73t-52.5 -76.5t-46 -79.5t-26.5 -84q-4 -27 3 -48.5t21.5 -36t33 -21.5t36.5 -5q39 4 86 51t99 129q16 25 31.5 13.5t-3.5 -39.5 q-25 -39 -51.5 -76t-57 -64.5t-64.5 -45t-68 -17.5q-31 0 -68 10t-64.5 38t-37 75t15.5 117q14 39 37.5 77.5t49.5 77.5t50.5 78t40.5 80q12 29 10 47t-11 29.5t-21.5 15.5t-22.5 4q-41 0 -83 -43t-81 -101.5t-69.5 -117.5t-46.5 -92q-6 -14 -14.5 -18.5t-14.5 -1.5t-7 12.5 zM572 161q-1 36 12.5 57.5t34 28.5t36 0t20.5 -29.5t-13 -59.5q-8 -18 -4 -38t15 -36t28.5 -27.5t39.5 -11.5q35 -2 60.5 7t48.5 30q47 41 91 100.5t81 124.5q4 4 29 0q10 -2 26 -4q-33 -59 -66.5 -115.5t-72.5 -99.5t-82 -69.5t-92 -26.5q-119 0 -164 84q-27 49 -28 85z M913.5 407.5q-1.5 32.5 4.5 61.5q8 37 25.5 75t42 70.5t56 57t68.5 35.5q55 16 96 8t61.5 -37t19.5 -78t-32 -113q-45 -55 -73 -84q-25 -25 -37 -28.5t14 45.5q27 49 47.5 94t26.5 80t-6.5 56.5t-50.5 23.5q-29 2 -56.5 -11.5t-48.5 -41.5q-23 -31 -48.5 -72t-37.5 -76 q-8 -20 -10 -49t8 -52.5t40 -36.5t87 -5q29 4 29 -11.5t-41 -19.5q-68 -8 -107 7.5t-57.5 42t-20 59zM1047.5 127q-5.5 53 13.5 100q25 51 44 91t38.5 77t41 76t48.5 88q20 37 33.5 62.5t27 41t28.5 21.5t40 4q20 -2 41.5 -7t44.5 -1q-23 -12 -54.5 -53t-65.5 -96.5 t-67.5 -118t-60.5 -117.5q-14 -29 -29.5 -71t-21.5 -82t3 -68.5t46 -28.5q39 0 81 43t79 100.5t66.5 115.5t45.5 91q12 27 27.5 20t1.5 -38q-23 -47 -56.5 -112.5t-76.5 -126t-94 -103.5t-111 -43q-25 0 -48 13t-44 42q-16 27 -21.5 80z" />
<glyph unicode="&#x434;&#x43b;" horiz-adv-x="1619" d="M-217 -489q0 76 52 134t126 101q76 45 147.5 76t140 55.5t133 45t124.5 44.5q18 53 29.5 109.5t17.5 118.5q6 59 6 105t-4 62q-25 -47 -67 -115.5t-94 -128t-111.5 -94t-120.5 -16.5q-78 33 -97.5 99.5t-1 147.5t64.5 165t103 151q45 55 103.5 93t122 53.5t128 4.5 t122.5 -56q27 -23 29.5 -43.5t-6.5 -31.5t-23.5 -9t-22.5 24q-20 55 -56 69.5t-81 -1t-95.5 -54t-97.5 -90.5q-55 -63 -102 -137t-72.5 -140.5t-24.5 -116.5t42 -68q45 -18 101 21.5t108.5 106t93.5 140.5t55 123q10 35 26.5 49t35 18t36 4.5t29.5 10.5q20 -123 13 -249 t-40 -249q47 33 94.5 78t84.5 106q6 12 16 16.5t16 2.5t7 -11.5t-9 -23.5q-10 -16 -26.5 -45t-44 -62.5t-66.5 -68.5t-94 -60q-35 -96 -99.5 -205.5t-151.5 -201.5t-191.5 -153.5t-215.5 -61.5q-193 0 -192 158zM-169 -492.5q-11 -46.5 10.5 -80t84.5 -33.5q33 0 71 11 t72.5 27.5t65.5 35t49 32.5q47 39 94.5 91.5t90.5 109.5q75 107 116 207q-16 -6 -34.5 -12.5t-36.5 -12.5q-113 -39 -233 -85t-218 -111q-49 -33 -85 -83t-47 -96.5zM799.5 195q15.5 41 44 52t49 -10.5t-5.5 -78.5q-8 -16 -4 -35t15 -34t28.5 -24.5t36.5 -9.5q35 2 60 9.5 t48 27.5q41 35 75 85t63.5 107.5t55 117t48 111.5t43 92t43.5 61q16 16 32.5 24t39 11.5t52 3.5h74.5q8 0 2 -5.5t-18 -11.5t-29.5 -11t-29.5 -5q-59 2 -84 -23.5t-52 -73.5q-33 -59 -70.5 -155t-85.5 -189.5t-108.5 -161t-140.5 -67.5q-49 0 -91 17.5t-69 66.5 q-37 68 -21.5 109zM1323 153.5q0 49.5 20 110.5q14 45 35 96.5t44.5 103.5t47 103.5t41.5 94.5q12 25 32 34t48 9h111q-23 -18 -39 -34t-31.5 -37.5t-32 -53t-38.5 -78.5q-23 -43 -44.5 -89t-41 -90t-34 -82t-18.5 -65q-14 -66 1.5 -93.5t37.5 -29.5q37 0 75 33t73 83 t66.5 110.5t58.5 115.5q12 27 27.5 20t0.5 -38q-25 -53 -57.5 -117.5t-73.5 -122t-90 -96.5t-104 -39q-35 0 -61.5 17.5t-40 51t-13.5 83z" />
<glyph unicode="&#x434;&#x43c;" horiz-adv-x="2015" d="M-217 -489q0 76 52 134t126 101q76 45 147.5 76t140 55.5t133 45t124.5 44.5q18 53 29.5 109.5t17.5 118.5q6 59 6 105t-4 62q-25 -47 -67 -115.5t-94 -128t-111.5 -94t-120.5 -16.5q-78 33 -97.5 99.5t-1 147.5t64.5 165t103 151q45 55 103.5 93t122 53.5t128 4.5 t122.5 -56q27 -23 29.5 -43.5t-6.5 -31.5t-23.5 -9t-22.5 24q-20 55 -56 69.5t-81 -1t-95.5 -54t-97.5 -90.5q-55 -63 -102 -137t-72.5 -140.5t-24.5 -116.5t42 -68q45 -18 101 21.5t108.5 106t93.5 140.5t55 123q10 35 26.5 49t35 18t36 4.5t29.5 10.5q20 -123 13 -249 t-40 -249q47 33 94.5 78t84.5 106q6 12 16 16.5t16 2.5t7 -11.5t-9 -23.5q-10 -16 -26.5 -45t-44 -62.5t-66.5 -68.5t-94 -60q-35 -96 -99.5 -205.5t-151.5 -201.5t-191.5 -153.5t-215.5 -61.5q-193 0 -192 158zM-169 -492.5q-11 -46.5 10.5 -80t84.5 -33.5q33 0 71 11 t72.5 27.5t65.5 35t49 32.5q47 39 94.5 91.5t90.5 109.5q75 107 116 207q-16 -6 -34.5 -12.5t-36.5 -12.5q-113 -39 -233 -85t-218 -111q-49 -33 -85 -83t-47 -96.5zM799.5 195q15.5 41 44 52t49 -10.5t-5.5 -78.5q-8 -16 -4 -35t15 -34t28.5 -24.5t36.5 -9.5q35 2 60 9.5 t48 27.5q41 35 75 85t63.5 107.5t55 117t48 111.5t43 92t43.5 61q16 16 32.5 24t39 11.5t52 3.5h74.5q8 0 2 -5.5t-18 -11.5t-29.5 -11t-29.5 -5q-59 2 -84 -23.5t-52 -73.5q-33 -59 -70.5 -155t-85.5 -189.5t-108.5 -161t-140.5 -67.5q-49 0 -91 17.5t-69 66.5 q-37 68 -21.5 109zM1286 154.5q0 48.5 21 109.5q14 45 34.5 96.5t44 103.5t47 103t42.5 95q12 25 31.5 34t47.5 9h111q-23 -18 -39 -34t-31.5 -37.5t-32 -53t-38.5 -78.5q-23 -43 -44.5 -89t-41 -90t-33.5 -82t-19 -65q-14 -66 1.5 -92.5t37.5 -30.5q41 -6 81 31t77 97.5 t71 135t64.5 145t58 126t52.5 78.5q16 16 32.5 24t39 11.5t52 3.5h75.5q8 0 1.5 -5.5t-18.5 -11.5t-29.5 -11t-29.5 -5q-59 2 -83 -23.5t-52 -73.5q-23 -39 -46.5 -97t-51 -122.5t-60.5 -129t-72 -115t-85 -81t-101 -28.5q-35 2 -61.5 19.5t-40 51t-13.5 82zM1718 153.5 q0 49.5 21 110.5q14 45 34.5 96.5t44 103.5t47.5 103.5t42 94.5q12 25 31.5 34t48.5 9h110q-23 -18 -39 -34t-31.5 -37.5t-32 -53t-38.5 -78.5q-23 -43 -44.5 -89t-41 -90t-33.5 -82t-18 -65q-14 -66 1 -93.5t38 -29.5q37 0 74.5 33t72.5 83t66.5 110.5t58.5 115.5 q12 27 27.5 20t1.5 -38q-25 -53 -58 -117.5t-73.5 -122t-90 -96.5t-104.5 -39q-35 0 -61.5 17.5t-40 51t-13.5 83z" />
<glyph unicode="&#x434;&#x44f;" horiz-adv-x="1554" d="M-217 -489q0 76 52 134t126 101q76 45 147.5 76t140 55.5t133 45t124.5 44.5q18 53 29.5 109.5t17.5 118.5q6 59 6 105t-4 62q-25 -47 -67 -115.5t-94 -128t-111.5 -94t-120.5 -16.5q-78 33 -97.5 99.5t-1 147.5t64.5 165t103 151q45 55 103.5 93t122 53.5t128 4.5 t122.5 -56q27 -23 29.5 -43.5t-6.5 -31.5t-23.5 -9t-22.5 24q-20 55 -56 69.5t-81 -1t-95.5 -54t-97.5 -90.5q-55 -63 -102 -137t-72.5 -140.5t-24.5 -116.5t42 -68q45 -18 101 21.5t108.5 106t93.5 140.5t55 123q10 35 26.5 49t35 18t36 4.5t29.5 10.5q20 -123 13 -249 t-40 -249q47 33 94.5 78t84.5 106q6 12 16 16.5t16 2.5t7 -11.5t-9 -23.5q-10 -16 -26.5 -45t-44 -62.5t-66.5 -68.5t-94 -60q-35 -96 -99.5 -205.5t-151.5 -201.5t-191.5 -153.5t-215.5 -61.5q-193 0 -192 158zM-169 -492.5q-11 -46.5 10.5 -80t84.5 -33.5q33 0 71 11 t72.5 27.5t65.5 35t49 32.5q47 39 94.5 91.5t90.5 109.5q75 107 116 207q-16 -6 -34.5 -12.5t-36.5 -12.5q-113 -39 -233 -85t-218 -111q-49 -33 -85 -83t-47 -96.5zM771 161q-1 36 12.5 57.5t34 28.5t35.5 0t20.5 -29.5t-13.5 -59.5q-8 -18 -4 -38t15.5 -36t29 -27.5 t39.5 -11.5q35 -2 60.5 7t48.5 30q47 41 91 100.5t81 124.5q4 4 28 0q11 -2 27 -4q-33 -59 -66.5 -115.5t-72.5 -99.5t-82 -69.5t-92 -26.5q-119 0 -164 84q-27 49 -28 85zM1112 407.5q-2 32.5 4 61.5q8 37 25.5 75t42 70.5t56.5 57t69 35.5q55 16 96 8t61.5 -37t19.5 -78 t-32 -113q-45 -55 -74 -84q-25 -25 -37 -28.5t15 45.5t47 94t26.5 80t-6 56.5t-51.5 23.5q-29 2 -56.5 -11.5t-47.5 -41.5q-23 -31 -48.5 -72t-37.5 -76q-8 -20 -10.5 -49t8 -52.5t40 -36.5t87.5 -5q29 4 28.5 -11.5t-41.5 -19.5q-68 -8 -106.5 7.5t-57 42t-20.5 59z M1246.5 127q-5.5 53 13.5 100q25 51 44 91t38.5 77t41 76t48.5 88q20 37 33.5 62.5t26.5 41t28.5 21.5t40.5 4q20 -2 41.5 -7t44.5 -1q-23 -12 -54.5 -53t-65.5 -96.5t-67.5 -118t-60.5 -117.5q-14 -29 -29.5 -71t-22 -82t3 -68.5t46.5 -28.5q39 0 81 43t78.5 100.5 t66.5 115.5t46 91q12 27 27.5 20t1.5 -38q-23 -47 -56.5 -112.5t-76.5 -126t-94.5 -103.5t-110.5 -43q-25 0 -48.5 13t-43.5 42q-16 27 -21.5 80z" />
<glyph unicode="&#x435;&#x43b;" horiz-adv-x="1320" d="M63 188q0 45 11.5 96.5t33 101.5t50 97t63.5 88q39 45 86 82t94.5 56.5t91.5 19.5t78 -24q29 -23 34 -58t-11 -77t-51 -84.5t-84 -79.5q-25 -18 -58.5 -35t-70.5 -29t-70 -19.5t-53 -7.5q-12 -29 -21.5 -75.5t-6.5 -92t24.5 -79t72.5 -33.5q68 0 130.5 44t123.5 142 q16 25 37 26t4 -30q-72 -129 -148.5 -177t-162.5 -48q-78 0 -136 49t-61 147zM221 350q14 0 39 5t55.5 16.5t62 28.5t60.5 40q41 35 69 78t38 80t4 61.5t-30.5 23.5t-67.5 -33t-107 -107q-41 -49 -74.5 -106.5t-48.5 -86.5zM500.5 195q15.5 41 44 52t49 -10.5t-5.5 -78.5 q-8 -16 -4 -35t15 -34t28.5 -24.5t36.5 -9.5q35 2 60 9.5t48 27.5q41 35 75 85t63.5 107.5t55 117t48 111.5t43 92t43.5 61q16 16 32.5 24t39 11.5t52 3.5h74.5q8 0 2 -5.5t-18 -11.5t-29.5 -11t-29.5 -5q-59 2 -84 -23.5t-52 -73.5q-33 -59 -70.5 -155t-85.5 -189.5 t-108.5 -161t-140.5 -67.5q-49 0 -91 17.5t-69 66.5q-37 68 -21.5 109zM1024 153.5q0 49.5 20 110.5q14 45 35 96.5t44.5 103.5t47 103.5t41.5 94.5q12 25 32 34t48 9h111q-23 -18 -39 -34t-31.5 -37.5t-32 -53t-38.5 -78.5q-23 -43 -44.5 -89t-41 -90t-34 -82t-18.5 -65 q-14 -66 1.5 -93.5t37.5 -29.5q37 0 75 33t73 83t66.5 110.5t58.5 115.5q12 27 27.5 20t0.5 -38q-25 -53 -57.5 -117.5t-73.5 -122t-90 -96.5t-104 -39q-35 0 -61.5 17.5t-40 51t-13.5 83z" />
<glyph unicode="&#x435;&#x43c;" horiz-adv-x="1716" d="M63 188q0 45 11.5 96.5t33 101.5t50 97t63.5 88q39 45 86 82t94.5 56.5t91.5 19.5t78 -24q29 -23 34 -58t-11 -77t-51 -84.5t-84 -79.5q-25 -18 -58.5 -35t-70.5 -29t-70 -19.5t-53 -7.5q-12 -29 -21.5 -75.5t-6.5 -92t24.5 -79t72.5 -33.5q68 0 130.5 44t123.5 142 q16 25 37 26t4 -30q-72 -129 -148.5 -177t-162.5 -48q-78 0 -136 49t-61 147zM221 350q14 0 39 5t55.5 16.5t62 28.5t60.5 40q41 35 69 78t38 80t4 61.5t-30.5 23.5t-67.5 -33t-107 -107q-41 -49 -74.5 -106.5t-48.5 -86.5zM500.5 195q15.5 41 44 52t49 -10.5t-5.5 -78.5 q-8 -16 -4 -35t15 -34t28.5 -24.5t36.5 -9.5q35 2 60 9.5t48 27.5q41 35 75 85t63.5 107.5t55 117t48 111.5t43 92t43.5 61q16 16 32.5 24t39 11.5t52 3.5h74.5q8 0 2 -5.5t-18 -11.5t-29.5 -11t-29.5 -5q-59 2 -84 -23.5t-52 -73.5q-33 -59 -70.5 -155t-85.5 -189.5 t-108.5 -161t-140.5 -67.5q-49 0 -91 17.5t-69 66.5q-37 68 -21.5 109zM987 154.5q0 48.5 21 109.5q14 45 34.5 96.5t44 103.5t47 103t42.5 95q12 25 31.5 34t47.5 9h111q-23 -18 -39 -34t-31.5 -37.5t-32 -53t-38.5 -78.5q-23 -43 -44.5 -89t-41 -90t-33.5 -82t-19 -65 q-14 -66 1.5 -92.5t37.5 -30.5q41 -6 81 31t77 97.5t71 135t64.5 145t58 126t52.5 78.5q16 16 32.5 24t39 11.5t52 3.5h75.5q8 0 1.5 -5.5t-18.5 -11.5t-29.5 -11t-29.5 -5q-59 2 -83 -23.5t-52 -73.5q-23 -39 -46.5 -97t-51 -122.5t-60.5 -129t-72 -115t-85 -81t-101 -28.5 q-35 2 -61.5 19.5t-40 51t-13.5 82zM1419 153.5q0 49.5 21 110.5q14 45 34.5 96.5t44 103.5t47.5 103.5t42 94.5q12 25 31.5 34t48.5 9h110q-23 -18 -39 -34t-31.5 -37.5t-32 -53t-38.5 -78.5q-23 -43 -44.5 -89t-41 -90t-33.5 -82t-18 -65q-14 -66 1 -93.5t38 -29.5 q37 0 74.5 33t72.5 83t66.5 110.5t58.5 115.5q12 27 27.5 20t1.5 -38q-25 -53 -58 -117.5t-73.5 -122t-90 -96.5t-104.5 -39q-35 0 -61.5 17.5t-40 51t-13.5 83z" />
<glyph unicode="&#x435;&#x44f;" horiz-adv-x="1255" d="M63 188q0 45 11.5 96.5t33 101.5t50 97t63.5 88q39 45 86 82t94.5 56.5t91.5 19.5t78 -24q29 -23 34 -58t-11 -77t-51 -84.5t-84 -79.5q-25 -18 -58.5 -35t-70.5 -29t-70 -19.5t-53 -7.5q-12 -29 -21.5 -75.5t-6.5 -92t24.5 -79t72.5 -33.5q68 0 127.5 42t116.5 128 q8 12 18.5 18t18.5 6t10 -8t-6 -22q-68 -117 -141.5 -162t-159.5 -45q-78 0 -136 49t-61 147zM221 350q14 0 39 5t55.5 16.5t62 28.5t60.5 40q41 35 69 78t38 80t4 61.5t-30.5 23.5t-67.5 -33t-107 -107q-41 -49 -74.5 -106.5t-48.5 -86.5zM472 161q-1 36 12.5 57.5t34 28.5 t35.5 0t20.5 -29.5t-13.5 -59.5q-8 -18 -4 -38t15.5 -36t28.5 -27.5t40 -11.5q35 -2 60.5 7t48.5 30q47 41 91 100.5t81 124.5q4 4 28 0q11 -2 27 -4q-33 -59 -66.5 -115.5t-72.5 -99.5t-82 -69.5t-92 -26.5q-119 0 -164 84q-27 49 -28 85zM813 407.5q-2 32.5 4 61.5 q8 37 25.5 75t42 70.5t56.5 57t69 35.5q55 16 96 8t61.5 -37t19.5 -78t-32 -113q-45 -55 -74 -84q-25 -25 -37 -28.5t15 45.5t47 94t26.5 80t-6 56.5t-51.5 23.5q-29 2 -56.5 -11.5t-47.5 -41.5q-23 -31 -48.5 -72t-37.5 -76q-8 -20 -10.5 -49t8 -52.5t40 -36.5t87.5 -5 q29 4 28.5 -11.5t-41.5 -19.5q-68 -8 -106.5 7.5t-57 42t-20.5 59zM947.5 127q-5.5 53 13.5 100q25 51 44 91t38.5 77t41 76t48.5 88q20 37 33.5 62.5t26.5 41t28.5 21.5t40.5 4q20 -2 41.5 -7t44.5 -1q-23 -12 -54.5 -53t-65.5 -96.5t-67.5 -118t-60.5 -117.5 q-14 -29 -29.5 -71t-22 -82t3 -68.5t46.5 -28.5q39 0 81 43t78.5 100.5t66.5 115.5t46 91q12 27 27.5 20t1.5 -38q-23 -47 -56.5 -112.5t-76.5 -126t-94.5 -103.5t-110.5 -43q-25 0 -48.5 13t-43.5 42q-16 27 -21.5 80z" />
<glyph unicode="&#x436;&#x43b;" horiz-adv-x="2314" d="M90 338q37 80 74 149.5t83 122t106.5 82t144.5 29.5q80 0 127 -28.5t67.5 -75t17.5 -105.5t-22.5 -122.5t-51.5 -125t-69 -110.5q-57 -78 -128.5 -120t-145.5 -42q-78 0 -114 39t-27 102q2 25 18 51.5t36.5 45t43 23.5t39.5 -11q-16 -20 -36 -48t-28 -57 q-14 -53 -0.5 -76.5t41.5 -23.5q27 0 56.5 16.5t59.5 41t55.5 56t47.5 62.5q14 20 34 55t37 77t29.5 89t12.5 92q0 61 -27.5 109.5t-93.5 48.5q-68 0 -120 -34t-95 -86t-77.5 -115.5t-65.5 -124.5q-14 -29 -28.5 -23t-0.5 37zM602 245.5q0 12.5 4 22.5q6 12 15 27l51 65 q6 8 29.5 37t56.5 67t71.5 79t74.5 74.5t66.5 53t49.5 13.5q29 -10 37 -34.5t-6 -55.5q-29 -66 -71 -138.5t-79 -148.5q31 39 77 91.5t93 93.5q12 10 32.5 28.5t44 38t47.5 36.5t42 30l-20 -37q-10 -14 -18.5 -28.5t-18.5 -18.5q-18 -10 -51 -44t-62 -59q-33 -31 -79 -84 t-89 -113.5t-77 -122t-44 -106.5q-35 0 -54 34t-11 79q10 68 33.5 122t52.5 111q25 53 37 79t5 26t-38 -27.5t-88 -81.5q-39 -35 -57.5 -59.5t-45.5 -71.5q-10 10 -10 22.5zM1021 200.5q3 59.5 22.5 123t51 125t68.5 110.5q57 78 129 120t146 42q78 0 113.5 -39t27.5 -102 q-4 -25 -19.5 -51.5t-36 -45t-43 -23.5t-38.5 11q16 20 35.5 48t27.5 56q14 53 1 77t-42 24t-57.5 -16.5t-58 -41t-56 -56.5t-47.5 -62q-14 -20 -33.5 -55t-37 -77t-29.5 -89.5t-12 -92.5q0 -61 27.5 -109t92.5 -48q49 0 88 17t71 44t58.5 60.5t51.5 68.5q18 27 33.5 20.5 t-1.5 -34.5q-25 -43 -54.5 -82t-66 -67.5t-86 -46t-114.5 -17.5q-80 0 -127 28.5t-67.5 74.5t-17.5 105.5zM1494 195q15 41 44 52t49.5 -10.5t-6.5 -78.5q-8 -16 -4 -35t15.5 -34t28.5 -24.5t36 -9.5q35 2 60 9.5t48 27.5q41 35 75 85t63.5 107.5t55.5 117t48.5 111.5t43 92 t42.5 61q16 16 32.5 24t39 11.5t52.5 3.5h75q8 0 2 -5.5t-18.5 -11.5t-30 -11t-29.5 -5q-59 2 -84 -23.5t-51 -73.5q-33 -59 -71 -155t-86 -189.5t-108.5 -161t-140.5 -67.5q-49 0 -91 17.5t-68 66.5q-37 68 -22 109zM2017 153.5q0 49.5 21 110.5q14 45 34.5 96.5t44 103.5 t47.5 103.5t42 94.5q12 25 31.5 34t48.5 9h110q-23 -18 -39 -34t-31.5 -37.5t-32 -53t-38.5 -78.5q-23 -43 -44.5 -89t-41 -90t-33.5 -82t-18 -65q-14 -66 1 -93.5t38 -29.5q37 0 74.5 33t72.5 83t66.5 110.5t58.5 115.5q12 27 27.5 20t1.5 -38q-25 -53 -58 -117.5 t-73.5 -122t-90 -96.5t-104.5 -39q-35 0 -61.5 17.5t-40 51t-13.5 83z" />
<glyph unicode="&#x436;&#x43c;" horiz-adv-x="2709" d="M90 338q37 80 74 149.5t83 122t106.5 82t144.5 29.5q80 0 127 -28.5t67.5 -75t17.5 -105.5t-22.5 -122.5t-51.5 -125t-69 -110.5q-57 -78 -128.5 -120t-145.5 -42q-78 0 -114 39t-27 102q2 25 18 51.5t36.5 45t43 23.5t39.5 -11q-16 -20 -36 -48t-28 -57 q-14 -53 -0.5 -76.5t41.5 -23.5q27 0 56.5 16.5t59.5 41t55.5 56t47.5 62.5q14 20 34 55t37 77t29.5 89t12.5 92q0 61 -27.5 109.5t-93.5 48.5q-68 0 -120 -34t-95 -86t-77.5 -115.5t-65.5 -124.5q-14 -29 -28.5 -23t-0.5 37zM602 245.5q0 12.5 4 22.5q6 12 15 27l51 65 q6 8 29.5 37t56.5 67t71.5 79t74.5 74.5t66.5 53t49.5 13.5q29 -10 37 -34.5t-6 -55.5q-29 -66 -71 -138.5t-79 -148.5q31 39 77 91.5t93 93.5q12 10 32.5 28.5t44 38t47.5 36.5t42 30l-20 -37q-10 -14 -18.5 -28.5t-18.5 -18.5q-18 -10 -51 -44t-62 -59q-33 -31 -79 -84 t-89 -113.5t-77 -122t-44 -106.5q-35 0 -54 34t-11 79q10 68 33.5 122t52.5 111q25 53 37 79t5 26t-38 -27.5t-88 -81.5q-39 -35 -57.5 -59.5t-45.5 -71.5q-10 10 -10 22.5zM1021 200.5q3 59.5 22.5 123t51 125t68.5 110.5q57 78 129 120t146 42q78 0 113.5 -39t27.5 -102 q-4 -25 -19.5 -51.5t-36 -45t-43 -23.5t-38.5 11q16 20 35.5 48t27.5 56q14 53 1 77t-42 24t-57.5 -16.5t-58 -41t-56 -56.5t-47.5 -62q-14 -20 -33.5 -55t-37 -77t-29.5 -89.5t-12 -92.5q0 -61 27.5 -109t92.5 -48q49 0 88 17t71 44t58.5 60.5t51.5 68.5q18 27 33.5 20.5 t-1.5 -34.5q-25 -43 -54.5 -82t-66 -67.5t-86 -46t-114.5 -17.5q-80 0 -127 28.5t-67.5 74.5t-17.5 105.5zM1494 195q15 41 44 52t49.5 -10.5t-6.5 -78.5q-8 -16 -4 -35t15.5 -34t28.5 -24.5t36 -9.5q35 2 60 9.5t48 27.5q41 35 75 85t63.5 107.5t55.5 117t48.5 111.5t43 92 t42.5 61q16 16 32.5 24t39 11.5t52.5 3.5h75q8 0 2 -5.5t-18.5 -11.5t-30 -11t-29.5 -5q-59 2 -84 -23.5t-51 -73.5q-33 -59 -71 -155t-86 -189.5t-108.5 -161t-140.5 -67.5q-49 0 -91 17.5t-68 66.5q-37 68 -22 109zM1980 154.5q0 48.5 21 109.5q14 45 34.5 96.5t44 103.5 t47 103t42.5 95q12 25 31.5 34t48.5 9h110q-23 -18 -39 -34t-31.5 -37.5t-31.5 -53t-39 -78.5q-23 -43 -44.5 -89t-40.5 -90t-33.5 -82t-18.5 -65q-14 -66 1 -92.5t38 -30.5q43 -6 82 31t75.5 97.5t70.5 135t64.5 145t58.5 126t52 78.5q16 16 32.5 24t39 11.5t52.5 3.5h75 q8 0 2 -5.5t-18.5 -11.5t-30 -11t-29.5 -5q-59 2 -82.5 -23.5t-52.5 -73.5q-23 -39 -46.5 -97t-51 -122.5t-60.5 -129t-71.5 -115t-85 -81t-101.5 -28.5q-35 2 -61.5 19.5t-40 51t-13.5 82zM2413 153.5q0 49.5 20 110.5q14 45 34.5 96.5t44 103.5t47.5 103.5t42 94.5 q12 25 31.5 34t48.5 9h110q-23 -18 -39 -34t-31.5 -37.5t-31.5 -53t-39 -78.5q-23 -43 -44 -89t-40.5 -90t-34 -82t-18.5 -65q-14 -66 1 -93.5t38 -29.5q37 0 74.5 33t72.5 83t67 110.5t58 115.5q12 27 27.5 20t1.5 -38q-25 -53 -57.5 -117.5t-73.5 -122t-90 -96.5t-105 -39 q-35 0 -61.5 17.5t-39.5 51t-13 83z" />
<glyph unicode="&#x436;&#x44f;" horiz-adv-x="2248" d="M90 338q37 80 74 149.5t83 122t106.5 82t144.5 29.5q80 0 127 -28.5t67.5 -75t17.5 -105.5t-22.5 -122.5t-51.5 -125t-69 -110.5q-57 -78 -128.5 -120t-145.5 -42q-78 0 -114 39t-27 102q2 25 18 51.5t36.5 45t43 23.5t39.5 -11q-16 -20 -36 -48t-28 -57 q-14 -53 -0.5 -76.5t41.5 -23.5q27 0 56.5 16.5t59.5 41t55.5 56t47.5 62.5q14 20 34 55t37 77t29.5 89t12.5 92q0 61 -27.5 109.5t-93.5 48.5q-68 0 -120 -34t-95 -86t-77.5 -115.5t-65.5 -124.5q-14 -29 -28.5 -23t-0.5 37zM602 245.5q0 12.5 4 22.5q6 12 15 27l51 65 q6 8 29.5 37t56.5 67t71.5 79t74.5 74.5t66.5 53t49.5 13.5q29 -10 37 -34.5t-6 -55.5q-29 -66 -71 -138.5t-79 -148.5q31 39 77 91.5t93 93.5q12 10 32.5 28.5t44 38t47.5 36.5t42 30l-20 -37q-10 -14 -18.5 -28.5t-18.5 -18.5q-18 -10 -51 -44t-62 -59q-33 -31 -79 -84 t-89 -113.5t-77 -122t-44 -106.5q-35 0 -54 34t-11 79q10 68 33.5 122t52.5 111q25 53 37 79t5 26t-38 -27.5t-88 -81.5q-39 -35 -57.5 -59.5t-45.5 -71.5q-10 10 -10 22.5zM1021 200.5q3 59.5 22.5 123t51 125t68.5 110.5q57 78 129 120t146 42q78 0 113.5 -39t27.5 -102 q-4 -25 -19.5 -51.5t-36 -45t-43 -23.5t-38.5 11q16 20 35.5 48t27.5 56q14 53 1 77t-42 24t-57.5 -16.5t-58 -41t-56 -56.5t-47.5 -62q-14 -20 -33.5 -55t-37 -77t-29.5 -89.5t-12 -92.5q0 -61 27.5 -109t92.5 -48q49 0 88 17t71 44t58.5 60.5t51.5 68.5q18 27 33.5 20.5 t-1.5 -34.5q-25 -43 -54.5 -82t-66 -67.5t-86 -46t-114.5 -17.5q-80 0 -127 28.5t-67.5 74.5t-17.5 105.5zM1465 161q-1 36 12.5 57.5t34 28.5t36 0t20.5 -29.5t-14 -59.5q-8 -18 -4 -38t15.5 -36t29 -27.5t39.5 -11.5q35 -2 60.5 7t48.5 30q47 41 91 100.5t81 124.5 q4 4 29 0q10 -2 26 -4q-33 -59 -66.5 -115.5t-72.5 -99.5t-82 -69.5t-92 -26.5q-119 0 -164 84q-27 49 -28 85zM1806 407.5q-2 32.5 4 61.5q8 37 25.5 75t42.5 70.5t56.5 57t68.5 35.5q55 16 96 8t61.5 -37t19.5 -78t-32 -113q-45 -55 -73 -84q-25 -25 -37.5 -28.5 t14.5 45.5t47.5 94t26.5 80t-6.5 56.5t-51.5 23.5q-29 2 -56 -11.5t-48 -41.5q-23 -31 -48.5 -72t-37.5 -76q-8 -20 -10 -49t8 -52.5t40 -36.5t87 -5q29 4 29 -11.5t-41 -19.5q-68 -8 -107 7.5t-57.5 42t-20.5 59zM1940.5 127q-5.5 53 13.5 100q25 51 44 91t38.5 77t41 76 t48.5 88q20 37 33.5 62.5t27 41t28.5 21.5t40 4q20 -2 41.5 -7t44.5 -1q-23 -12 -54.5 -53t-65.5 -96.5t-67.5 -118t-60.5 -117.5q-14 -29 -29.5 -71t-21.5 -82t3 -68.5t46 -28.5q39 0 81 43t79 100.5t66.5 115.5t45.5 91q12 27 27.5 20t1.5 -38q-23 -47 -56.5 -112.5 t-76.5 -126t-94 -103.5t-111 -43q-25 0 -48.5 13t-43.5 42q-16 27 -21.5 80z" />
<glyph unicode="&#x437;&#x43b;" horiz-adv-x="1515" d="M-395 -476.5q-2 58.5 39 122.5q41 61 121.5 109t181 87t209 72t206.5 63q12 37 23.5 89.5t12.5 98.5t-14 75.5t-60 21.5q-20 -10 -43 -19.5t-48 -19.5q-12 -4 -21 0t-12 11.5t1 15.5t16 12q51 14 89 39t65.5 51.5t46 50t28.5 39.5q37 55 23 101.5t-56 64t-97.5 -4 t-102.5 -101.5q-10 -16 -23.5 -41t-29 -52.5t-29.5 -57t-27 -54.5q-12 -27 -26.5 -19.5t2.5 41.5q29 53 57.5 113t63.5 121q47 86 113.5 126t127 41t101.5 -33t39 -95q-4 -68 -53.5 -145.5t-147.5 -137.5q78 2 108.5 -37t32.5 -96q0 -10 -2 -30.5t-5 -43t-7 -43t-8 -32.5 q57 10 113.5 59t113.5 141q16 27 30.5 19t-1.5 -37q-37 -61 -71 -103.5t-67.5 -69t-65.5 -40.5t-65 -21q-78 -217 -232.5 -373.5t-377.5 -222.5q-78 -23 -139.5 -8t-96 54.5t-36.5 98zM-323.5 -475q-8.5 -57 24.5 -92t113 -19q59 12 134 53t149.5 107t140 154.5t106.5 197.5 q-68 -23 -139.5 -42t-138 -40.5t-126 -45t-104.5 -50.5q-68 -39 -109.5 -102.5t-50 -120.5zM695.5 195q15.5 41 44 52t49 -10.5t-6.5 -78.5q-8 -16 -4 -35t15.5 -34t29 -24.5t35.5 -9.5q35 2 60.5 9.5t48.5 27.5q41 35 74.5 85t63.5 107.5t55.5 117t48 111.5t43 92t42.5 61 q16 16 32.5 24t39.5 11.5t52.5 3.5h74.5q8 0 2 -5.5t-18.5 -11.5t-29.5 -11t-30 -5q-59 2 -83.5 -23.5t-51.5 -73.5q-33 -59 -70.5 -155t-86 -189.5t-109 -161t-139.5 -67.5q-49 0 -91.5 17.5t-68.5 66.5q-37 68 -21.5 109zM1219 153.5q0 49.5 20 110.5q14 45 34.5 96.5 t44 103.5t47.5 103.5t42 94.5q12 25 31.5 34t48.5 9h110q-23 -18 -39 -34t-31.5 -37.5t-31.5 -53t-39 -78.5q-23 -43 -44 -89t-40.5 -90t-34 -82t-18.5 -65q-14 -66 1 -93.5t38 -29.5q37 0 74.5 33t72.5 83t67 110.5t58 115.5q12 27 27.5 20t1.5 -38q-25 -53 -57.5 -117.5 t-73.5 -122t-90 -96.5t-105 -39q-35 0 -61.5 17.5t-39.5 51t-13 83z" />
<glyph unicode="&#x437;&#x43c;" horiz-adv-x="1910" d="M-395 -476.5q-2 58.5 39 122.5q41 61 121.5 109t181 87t209 72t206.5 63q12 37 23.5 89.5t12.5 98.5t-14 75.5t-60 21.5q-20 -10 -43 -19.5t-48 -19.5q-12 -4 -21 0t-12 11.5t1 15.5t16 12q51 14 89 39t65.5 51.5t46 50t28.5 39.5q37 55 23 101.5t-56 64t-97.5 -4 t-102.5 -101.5q-10 -16 -23.5 -41t-29 -52.5t-29.5 -57t-27 -54.5q-12 -27 -26.5 -19.5t2.5 41.5q29 53 57.5 113t63.5 121q47 86 113.5 126t127 41t101.5 -33t39 -95q-4 -68 -53.5 -145.5t-147.5 -137.5q78 2 108.5 -37t32.5 -96q0 -10 -2 -30.5t-5 -43t-7 -43t-8 -32.5 q59 10 115.5 61t109.5 137q16 29 30.5 20t-1.5 -40q-63 -106 -126 -159.5t-141 -70.5q-78 -217 -232.5 -373.5t-377.5 -222.5q-78 -23 -139.5 -8t-96 54.5t-36.5 98zM-323.5 -475q-8.5 -57 24.5 -92t113 -19q59 12 134 53t149.5 107t140 154.5t106.5 197.5 q-68 -23 -139.5 -42t-138 -40.5t-126 -45t-104.5 -50.5q-68 -39 -109.5 -102.5t-50 -120.5zM695.5 195q15.5 41 44 52t49 -10.5t-6.5 -78.5q-8 -16 -4 -35t15.5 -34t29 -24.5t35.5 -9.5q35 2 60.5 9.5t48.5 27.5q41 35 74.5 85t63.5 107.5t55.5 117t48 111.5t43 92t42.5 61 q16 16 32.5 24t39.5 11.5t52.5 3.5h74.5q8 0 2 -5.5t-18.5 -11.5t-29.5 -11t-30 -5q-59 2 -83.5 -23.5t-51.5 -73.5q-33 -59 -70.5 -155t-86 -189.5t-109 -161t-139.5 -67.5q-49 0 -91.5 17.5t-68.5 66.5q-37 68 -21.5 109zM1182 154.5q0 48.5 20 109.5q14 45 34.5 96.5 t44.5 103.5t47.5 103t41.5 95q12 25 31.5 34t48.5 9h111q-23 -18 -39.5 -34t-31.5 -37.5t-31.5 -53t-39.5 -78.5q-23 -43 -44 -89t-40.5 -90t-34 -82t-18.5 -65q-14 -66 1 -92.5t38 -30.5q41 -6 81 31t77 97.5t70.5 135t64.5 145t58.5 126t51.5 78.5q16 16 33 24t39.5 11.5 t52 3.5h74.5q8 0 2 -5.5t-18.5 -11.5t-29.5 -11t-30 -5q-59 2 -82.5 -23.5t-52.5 -73.5q-23 -39 -46.5 -97t-51 -122.5t-60 -129t-71.5 -115t-85.5 -81t-101.5 -28.5q-35 2 -61.5 19.5t-39.5 51t-13 82zM1614 153.5q0 49.5 20 110.5q14 45 35 96.5t44.5 103.5t47 103.5 t41.5 94.5q12 25 31.5 34t48.5 9h111q-23 -18 -39.5 -34t-31.5 -37.5t-31.5 -53t-39.5 -78.5q-23 -43 -44 -89t-40.5 -90t-34 -82t-18.5 -65q-14 -66 1.5 -93.5t37.5 -29.5q37 0 75 33t72.5 83t66.5 110.5t58 115.5q12 27 27.5 20t1.5 -38q-25 -53 -57.5 -117.5t-73.5 -122 t-90 -96.5t-104 -39q-35 0 -62 17.5t-40 51t-13 83z" />
<glyph unicode="&#x437;&#x44f;" horiz-adv-x="1478" d="M-395 -476.5q-2 58.5 39 122.5q41 61 121.5 109t181 87t209 72t206.5 63q12 37 23.5 89.5t12.5 98.5t-14 75.5t-60 21.5q-20 -10 -43 -19.5t-48 -19.5q-12 -4 -21 0t-12 11.5t1 15.5t16 12q51 14 89 39t65.5 51.5t46 50t28.5 39.5q37 55 23 101.5t-56 64t-97.5 -4 t-102.5 -101.5q-10 -16 -23.5 -41t-29 -52.5t-29.5 -57t-27 -54.5q-12 -27 -26.5 -19.5t2.5 41.5q29 53 57.5 113t63.5 121q47 86 113.5 126t127 41t101.5 -33t39 -95q-4 -68 -53.5 -145.5t-147.5 -137.5q78 2 108.5 -37t32.5 -96q0 -10 -2 -30.5t-5 -43t-7 -43t-8 -32.5 q57 10 113.5 59t113.5 141q16 27 30.5 19t-1.5 -37q-37 -61 -71 -103.5t-67.5 -69t-65.5 -40.5t-65 -21q-78 -217 -232.5 -373.5t-377.5 -222.5q-78 -23 -139.5 -8t-96 54.5t-36.5 98zM-323.5 -475q-8.5 -57 24.5 -92t113 -19q59 12 134 53t149.5 107t140 154.5t106.5 197.5 q-68 -23 -139.5 -42t-138 -40.5t-126 -45t-104.5 -50.5q-68 -39 -109.5 -102.5t-50 -120.5zM695 161q-1 36 12.5 57.5t34 28.5t36 0t20.5 -29.5t-14 -59.5q-8 -18 -4 -38t15.5 -36t29 -27.5t39.5 -11.5q35 -2 60.5 7t48.5 30q47 41 91 100.5t81 124.5q4 4 29 0q10 -2 26 -4 q-33 -59 -66.5 -115.5t-72.5 -99.5t-82 -69.5t-92 -26.5q-119 0 -164 84q-27 49 -28 85zM1036 407.5q-2 32.5 4 61.5q8 37 25.5 75t42.5 70.5t56.5 57t68.5 35.5q55 16 96 8t61.5 -37t19.5 -78t-32 -113q-45 -55 -73 -84q-25 -25 -37.5 -28.5t14.5 45.5t47.5 94t26.5 80 t-6.5 56.5t-51.5 23.5q-29 2 -56.5 -11.5t-47.5 -41.5q-23 -31 -48.5 -72t-37.5 -76q-8 -20 -10 -49t8 -52.5t40 -36.5t87 -5q29 4 29 -11.5t-41 -19.5q-68 -8 -107 7.5t-57.5 42t-20.5 59zM1170.5 127q-5.5 53 13.5 100q25 51 44 91t38.5 77t41 76t48.5 88q20 37 33.5 62.5 t27 41t28.5 21.5t40 4q20 -2 41.5 -7t44.5 -1q-23 -12 -54.5 -53t-65.5 -96.5t-67.5 -118t-60.5 -117.5q-14 -29 -29.5 -71t-21.5 -82t3 -68.5t46 -28.5q39 0 81 43t79 100.5t66.5 115.5t45.5 91q12 27 27.5 20t1.5 -38q-23 -47 -56.5 -112.5t-76.5 -126t-94.5 -103.5 t-110.5 -43q-25 0 -48.5 13t-43.5 42q-16 27 -21.5 80z" />
<glyph unicode="&#x438;&#x43b;" horiz-adv-x="1548" d="M49 157.5q4 30.5 15.5 60.5t26.5 57.5t30 56.5q-10 0 -19.5 6t0.5 27q10 16 18.5 34.5t18.5 36.5q31 59 61.5 118.5t53.5 107.5q12 25 31.5 34t48.5 9h125q-18 -12 -32.5 -25.5t-30 -32t-32 -45.5t-36.5 -70q-29 -53 -52 -102q-23 -43 -43 -88t-34 -74q-37 -80 -41 -133 t15.5 -74.5t58 -6t87.5 72.5q43 49 85 116.5t81 140.5t75 144.5t65 133.5q12 25 31.5 34t48.5 9h110q-23 -18 -39 -34t-31.5 -37.5t-32 -53t-38.5 -78.5q-23 -43 -44.5 -89t-41 -90t-33.5 -82t-18 -65q-14 -66 1 -93.5t37 -29.5q47 0 93.5 48.5t93.5 127.5q16 25 31.5 18 t-0.5 -36q-23 -39 -49.5 -76t-56.5 -66.5t-64.5 -48t-71.5 -18.5q-35 0 -61.5 17.5t-40 51t-13.5 83t21 110.5q-27 -47 -58.5 -93t-67.5 -84t-75 -61.5t-76 -23.5q-16 0 -35.5 3t-38 13.5t-34 29t-21.5 46.5q-6 33 -2 63.5zM728 195q15 41 44 52t49.5 -10.5t-6.5 -78.5 q-8 -16 -4 -35t15.5 -34t28.5 -24.5t36 -9.5q35 2 60 9.5t48 27.5q41 35 75 85t63.5 107.5t55.5 117t48.5 111.5t43 92t42.5 61q16 16 32.5 24t39 11.5t52.5 3.5h75q8 0 2 -5.5t-18.5 -11.5t-30 -11t-29.5 -5q-59 2 -84 -23.5t-51 -73.5q-33 -59 -71 -155t-86 -189.5 t-108.5 -161t-140.5 -67.5q-49 0 -91 17.5t-68 66.5q-37 68 -22 109zM1251 153.5q0 49.5 21 110.5q14 45 34.5 96.5t44 103.5t47.5 103.5t42 94.5q12 25 31.5 34t48.5 9h110q-23 -18 -39 -34t-31.5 -37.5t-32 -53t-38.5 -78.5q-23 -43 -44.5 -89t-41 -90t-33.5 -82t-18 -65 q-14 -66 1 -93.5t38 -29.5q37 0 74.5 33t72.5 83t66.5 110.5t58.5 115.5q12 27 27.5 20t1.5 -38q-25 -53 -57.5 -117.5t-73.5 -122t-90.5 -96.5t-104.5 -39q-35 0 -61.5 17.5t-40 51t-13.5 83z" />
<glyph unicode="&#x438;&#x43c;" horiz-adv-x="1943" d="M49 157.5q4 30.5 15.5 60.5t26.5 57.5t30 56.5q-10 0 -19.5 6t0.5 27q10 16 18.5 34.5t18.5 36.5q31 59 61.5 118.5t53.5 107.5q12 25 31.5 34t48.5 9h125q-18 -12 -32.5 -25.5t-30 -32t-32 -45.5t-36.5 -70q-29 -53 -52 -102q-23 -43 -43 -88t-34 -74q-37 -80 -41 -133 t15.5 -74.5t58 -6t87.5 72.5q43 49 85 116.5t81 140.5t75 144.5t65 133.5q12 25 31.5 34t48.5 9h110q-23 -18 -39 -34t-31.5 -37.5t-32 -53t-38.5 -78.5q-23 -43 -44.5 -89t-41 -90t-33.5 -82t-18 -65q-14 -66 1 -93.5t37 -29.5q47 0 93.5 48.5t93.5 127.5q16 25 31.5 18 t-0.5 -36q-23 -39 -49.5 -76t-56.5 -66.5t-64.5 -48t-71.5 -18.5q-35 0 -61.5 17.5t-40 51t-13.5 83t21 110.5q-27 -47 -58.5 -93t-67.5 -84t-75 -61.5t-76 -23.5q-16 0 -35.5 3t-38 13.5t-34 29t-21.5 46.5q-6 33 -2 63.5zM728 195q15 41 44 52t49.5 -10.5t-6.5 -78.5 q-8 -16 -4 -35t15.5 -34t28.5 -24.5t36 -9.5q35 2 60 9.5t48 27.5q41 35 75 85t63.5 107.5t55.5 117t48.5 111.5t43 92t42.5 61q16 16 32.5 24t39 11.5t52.5 3.5h75q8 0 2 -5.5t-18.5 -11.5t-30 -11t-29.5 -5q-59 2 -84 -23.5t-51 -73.5q-33 -59 -71 -155t-86 -189.5 t-108.5 -161t-140.5 -67.5q-49 0 -91 17.5t-68 66.5q-37 68 -22 109zM1214 154.5q0 48.5 21 109.5q14 45 34.5 96.5t44 103.5t47 103t42.5 95q12 25 31.5 34t48.5 9h110q-23 -18 -39 -34t-31.5 -37.5t-31.5 -53t-39 -78.5q-23 -43 -44.5 -89t-40.5 -90t-33.5 -82t-18.5 -65 q-14 -66 1 -92.5t38 -30.5q41 -6 81 31t76.5 97.5t70.5 135t64.5 145t58.5 126t52 78.5q16 16 32.5 24t39 11.5t52.5 3.5h75q8 0 2 -5.5t-18.5 -11.5t-30 -11t-29.5 -5q-59 2 -82.5 -23.5t-52.5 -73.5q-23 -39 -46.5 -97t-51 -122.5t-60.5 -129t-71.5 -115t-85 -81 t-101.5 -28.5q-35 2 -61.5 19.5t-40 51t-13.5 82zM1647 153.5q0 49.5 20 110.5q14 45 34.5 96.5t44 103.5t47.5 103.5t42 94.5q12 25 31.5 34t48.5 9h110q-23 -18 -39 -34t-31.5 -37.5t-31.5 -53t-39 -78.5q-23 -43 -44 -89t-40.5 -90t-34 -82t-18.5 -65q-14 -66 1 -93.5 t38 -29.5q37 0 74.5 33t72.5 83t67 110.5t58 115.5q12 27 27.5 20t1.5 -38q-25 -53 -57.5 -117.5t-73.5 -122t-90 -96.5t-105 -39q-35 0 -61.5 17.5t-39.5 51t-13 83z" />
<glyph unicode="&#x438;&#x44f;" horiz-adv-x="1511" d="M49 157.5q4 30.5 15.5 60.5t26.5 57.5t30 56.5q-10 0 -19.5 6t0.5 27q10 16 18.5 34.5t18.5 36.5q31 59 61.5 118.5t53.5 107.5q12 25 31.5 34t48.5 9h125q-18 -12 -32.5 -25.5t-30 -32t-32 -45.5t-36.5 -70q-29 -53 -52 -102q-23 -43 -43 -88t-34 -74q-37 -80 -41 -133 t15.5 -74.5t58 -6t87.5 72.5q43 49 85 116.5t81 140.5t75 144.5t65 133.5q12 25 31.5 34t48.5 9h110q-23 -18 -39 -34t-31.5 -37.5t-32 -53t-38.5 -78.5q-23 -43 -44.5 -89t-41 -90t-33.5 -82t-18 -65q-14 -66 1 -93.5t37 -29.5q47 0 93.5 48.5t93.5 127.5q16 25 31.5 18 t-0.5 -36q-23 -39 -49.5 -76t-56.5 -66.5t-64.5 -48t-71.5 -18.5q-35 0 -61.5 17.5t-40 51t-13.5 83t21 110.5q-27 -47 -58.5 -93t-67.5 -84t-75 -61.5t-76 -23.5q-16 0 -35.5 3t-38 13.5t-34 29t-21.5 46.5q-6 33 -2 63.5zM728 161q-1 36 12.5 57.5t34 28.5t35.5 0 t20.5 -29.5t-13.5 -59.5q-8 -18 -4 -38t15.5 -36t28.5 -27.5t40 -11.5q35 -2 60.5 7t48.5 30q47 41 91 100.5t81 124.5q4 4 28 0q11 -2 27 -4q-33 -59 -66.5 -115.5t-72.5 -99.5t-82 -69.5t-92 -26.5q-119 0 -164 84q-27 49 -28 85zM1069 407.5q-2 32.5 4 61.5q8 37 25.5 75 t42 70.5t56.5 57t69 35.5q55 16 96 8t61.5 -37t19.5 -78t-32 -113q-45 -55 -74 -84q-25 -25 -37 -28.5t15 45.5t47 94t26.5 80t-6 56.5t-51.5 23.5q-29 2 -56.5 -11.5t-47.5 -41.5q-23 -31 -48.5 -72t-37.5 -76q-8 -20 -10.5 -49t8 -52.5t40 -36.5t87.5 -5q29 4 28.5 -11.5 t-41.5 -19.5q-68 -8 -106.5 7.5t-57 42t-20.5 59zM1203.5 127q-5.5 53 13.5 100q25 51 44 91t38.5 77t41 76t48.5 88q20 37 33.5 62.5t26.5 41t28.5 21.5t40.5 4q20 -2 41.5 -7t44.5 -1q-23 -12 -54.5 -53t-65.5 -96.5t-67.5 -118t-60.5 -117.5q-14 -29 -29.5 -71t-22 -82 t3 -68.5t46.5 -28.5q39 0 81 43t78.5 100.5t66.5 115.5t46 91q12 27 27.5 20t1.5 -38q-23 -47 -56.5 -112.5t-76.5 -126t-94.5 -103.5t-110.5 -43q-25 0 -48.5 13t-43.5 42q-16 27 -21.5 80z" />
<glyph unicode="&#x439;&#x43b;" horiz-adv-x="1548" d="M49 157.5q4 30.5 15.5 60.5t26.5 57.5t30 56.5q-10 0 -19.5 6t0.5 27q10 16 18.5 34.5t18.5 36.5q31 59 61.5 118.5t53.5 107.5q12 25 31.5 34t48.5 9h125q-18 -12 -32.5 -25.5t-30 -32t-32 -45.5t-36.5 -70q-29 -53 -52 -102q-23 -43 -43 -88t-34 -74q-37 -80 -41 -133 t15.5 -74.5t58 -6t87.5 72.5q43 49 85 116.5t81 140.5t75 144.5t65 133.5q12 25 31.5 34t48.5 9h110q-23 -18 -39 -34t-31.5 -37.5t-32 -53t-38.5 -78.5q-23 -43 -44.5 -89t-41 -90t-33.5 -82t-18 -65q-14 -66 1 -93.5t37 -29.5q47 0 93.5 48.5t93.5 127.5q16 25 31.5 18 t-0.5 -36q-23 -39 -49.5 -76t-56.5 -66.5t-64.5 -48t-71.5 -18.5q-35 0 -61.5 17.5t-40 51t-13.5 83t21 110.5q-27 -47 -58.5 -93t-67.5 -84t-75 -61.5t-76 -23.5q-16 0 -35.5 3t-38 13.5t-34 29t-21.5 46.5q-6 33 -2 63.5zM379 1010q-10 53 2 72.5t29 19.5q8 0 12 -8.5 t9 -20.5t11.5 -25.5t18.5 -25.5q33 -31 64.5 -41t76.5 -10q43 0 73 8t51.5 22.5t39 33.5t35.5 44q14 16 31.5 15.5t13.5 -17.5q-37 -82 -112 -129t-173 -47q-27 0 -56.5 6t-56 19.5t-46 34t-23.5 49.5zM728 195q15 41 44 52t49.5 -10.5t-6.5 -78.5q-8 -16 -4 -35t15.5 -34 t28.5 -24.5t36 -9.5q35 2 60 9.5t48 27.5q41 35 75 85t63.5 107.5t55.5 117t48.5 111.5t43 92t42.5 61q16 16 32.5 24t39 11.5t52.5 3.5h75q8 0 2 -5.5t-18.5 -11.5t-30 -11t-29.5 -5q-59 2 -84 -23.5t-51 -73.5q-33 -59 -71 -155t-86 -189.5t-108.5 -161t-140.5 -67.5 q-49 0 -91 17.5t-68 66.5q-37 68 -22 109zM1251 153.5q0 49.5 21 110.5q14 45 34.5 96.5t44 103.5t47.5 103.5t42 94.5q12 25 31.5 34t48.5 9h110q-23 -18 -39 -34t-31.5 -37.5t-32 -53t-38.5 -78.5q-23 -43 -44.5 -89t-41 -90t-33.5 -82t-18 -65q-14 -66 1 -93.5t38 -29.5 q37 0 74.5 33t72.5 83t66.5 110.5t58.5 115.5q12 27 27.5 20t1.5 -38q-25 -53 -57.5 -117.5t-73.5 -122t-90.5 -96.5t-104.5 -39q-35 0 -61.5 17.5t-40 51t-13.5 83z" />
<glyph unicode="&#x439;&#x43c;" horiz-adv-x="1943" d="M49 157.5q4 30.5 15.5 60.5t26.5 57.5t30 56.5q-10 0 -19.5 6t0.5 27q10 16 18.5 34.5t18.5 36.5q31 59 61.5 118.5t53.5 107.5q12 25 31.5 34t48.5 9h125q-18 -12 -32.5 -25.5t-30 -32t-32 -45.5t-36.5 -70q-29 -53 -52 -102q-23 -43 -43 -88t-34 -74q-37 -80 -41 -133 t15.5 -74.5t58 -6t87.5 72.5q43 49 85 116.5t81 140.5t75 144.5t65 133.5q12 25 31.5 34t48.5 9h110q-23 -18 -39 -34t-31.5 -37.5t-32 -53t-38.5 -78.5q-23 -43 -44.5 -89t-41 -90t-33.5 -82t-18 -65q-14 -66 1 -93.5t37 -29.5q47 0 93.5 48.5t93.5 127.5q16 25 31.5 18 t-0.5 -36q-23 -39 -49.5 -76t-56.5 -66.5t-64.5 -48t-71.5 -18.5q-35 0 -61.5 17.5t-40 51t-13.5 83t21 110.5q-27 -47 -58.5 -93t-67.5 -84t-75 -61.5t-76 -23.5q-16 0 -35.5 3t-38 13.5t-34 29t-21.5 46.5q-6 33 -2 63.5zM379 1010q-10 53 2 72.5t29 19.5q8 0 12 -8.5 t9 -20.5t11.5 -25.5t18.5 -25.5q33 -31 64.5 -41t76.5 -10q43 0 73 8t51.5 22.5t39 33.5t35.5 44q14 16 31.5 15.5t13.5 -17.5q-37 -82 -112 -129t-173 -47q-27 0 -56.5 6t-56 19.5t-46 34t-23.5 49.5zM728 195q15 41 44 52t49.5 -10.5t-6.5 -78.5q-8 -16 -4 -35t15.5 -34 t28.5 -24.5t36 -9.5q35 2 60 9.5t48 27.5q41 35 75 85t63.5 107.5t55.5 117t48.5 111.5t43 92t42.5 61q16 16 32.5 24t39 11.5t52.5 3.5h75q8 0 2 -5.5t-18.5 -11.5t-30 -11t-29.5 -5q-59 2 -84 -23.5t-51 -73.5q-33 -59 -71 -155t-86 -189.5t-108.5 -161t-140.5 -67.5 q-49 0 -91 17.5t-68 66.5q-37 68 -22 109zM1214 154.5q0 48.5 21 109.5q14 45 34.5 96.5t44 103.5t47 103t42.5 95q12 25 31.5 34t48.5 9h110q-23 -18 -39 -34t-31.5 -37.5t-31.5 -53t-39 -78.5q-23 -43 -44.5 -89t-40.5 -90t-33.5 -82t-18.5 -65q-14 -66 1 -92.5t38 -30.5 q41 -6 81 31t76.5 97.5t70.5 135t64.5 145t58.5 126t52 78.5q16 16 32.5 24t39 11.5t52.5 3.5h75q8 0 2 -5.5t-18.5 -11.5t-30 -11t-29.5 -5q-59 2 -82.5 -23.5t-52.5 -73.5q-23 -39 -46.5 -97t-51 -122.5t-60.5 -129t-71.5 -115t-85 -81t-101.5 -28.5q-35 2 -61.5 19.5 t-40 51t-13.5 82zM1647 153.5q0 49.5 20 110.5q14 45 34.5 96.5t44 103.5t47.5 103.5t42 94.5q12 25 31.5 34t48.5 9h110q-23 -18 -39 -34t-31.5 -37.5t-31.5 -53t-39 -78.5q-23 -43 -44 -89t-40.5 -90t-34 -82t-18.5 -65q-14 -66 1 -93.5t38 -29.5q37 0 74.5 33t72.5 83 t67 110.5t58 115.5q12 27 27.5 20t1.5 -38q-25 -53 -57.5 -117.5t-73.5 -122t-90 -96.5t-105 -39q-35 0 -61.5 17.5t-39.5 51t-13 83z" />
<glyph unicode="&#x439;&#x44f;" horiz-adv-x="1511" d="M49 157.5q4 30.5 15.5 60.5t26.5 57.5t30 56.5q-10 0 -19.5 6t0.5 27q10 16 18.5 34.5t18.5 36.5q31 59 61.5 118.5t53.5 107.5q12 25 31.5 34t48.5 9h125q-18 -12 -32.5 -25.5t-30 -32t-32 -45.5t-36.5 -70q-29 -53 -52 -102q-23 -43 -43 -88t-34 -74q-37 -80 -41 -133 t15.5 -74.5t58 -6t87.5 72.5q43 49 85 116.5t81 140.5t75 144.5t65 133.5q12 25 31.5 34t48.5 9h110q-23 -18 -39 -34t-31.5 -37.5t-32 -53t-38.5 -78.5q-23 -43 -44.5 -89t-41 -90t-33.5 -82t-18 -65q-14 -66 1 -93.5t37 -29.5q47 0 93.5 48.5t93.5 127.5q16 25 31.5 18 t-0.5 -36q-23 -39 -49.5 -76t-56.5 -66.5t-64.5 -48t-71.5 -18.5q-35 0 -61.5 17.5t-40 51t-13.5 83t21 110.5q-27 -47 -58.5 -93t-67.5 -84t-75 -61.5t-76 -23.5q-16 0 -35.5 3t-38 13.5t-34 29t-21.5 46.5q-6 33 -2 63.5zM379 1010q-10 53 2 72.5t29 19.5q8 0 12 -8.5 t9 -20.5t11.5 -25.5t18.5 -25.5q33 -31 64.5 -41t76.5 -10q43 0 73 8t51.5 22.5t39 33.5t35.5 44q14 16 31.5 15.5t13.5 -17.5q-37 -82 -112 -129t-173 -47q-27 0 -56.5 6t-56 19.5t-46 34t-23.5 49.5zM728 161q-1 36 12.5 57.5t34 28.5t35.5 0t20.5 -29.5t-13.5 -59.5 q-8 -18 -4 -38t15.5 -36t28.5 -27.5t40 -11.5q35 -2 60.5 7t48.5 30q47 41 91 100.5t81 124.5q4 4 28 0q11 -2 27 -4q-33 -59 -66.5 -115.5t-72.5 -99.5t-82 -69.5t-92 -26.5q-119 0 -164 84q-27 49 -28 85zM1069 407.5q-2 32.5 4 61.5q8 37 25.5 75t42 70.5t56.5 57 t69 35.5q55 16 96 8t61.5 -37t19.5 -78t-32 -113q-45 -55 -74 -84q-25 -25 -37 -28.5t15 45.5t47 94t26.5 80t-6 56.5t-51.5 23.5q-29 2 -56.5 -11.5t-47.5 -41.5q-23 -31 -48.5 -72t-37.5 -76q-8 -20 -10.5 -49t8 -52.5t40 -36.5t87.5 -5q29 4 28.5 -11.5t-41.5 -19.5 q-68 -8 -106.5 7.5t-57 42t-20.5 59zM1203.5 127q-5.5 53 13.5 100q25 51 44 91t38.5 77t41 76t48.5 88q20 37 33.5 62.5t26.5 41t28.5 21.5t40.5 4q20 -2 41.5 -7t44.5 -1q-23 -12 -54.5 -53t-65.5 -96.5t-67.5 -118t-60.5 -117.5q-14 -29 -29.5 -71t-22 -82t3 -68.5 t46.5 -28.5q39 0 81 43t78.5 100.5t66.5 115.5t46 91q12 27 27.5 20t1.5 -38q-23 -47 -56.5 -112.5t-76.5 -126t-94.5 -103.5t-110.5 -43q-25 0 -48.5 13t-43.5 42q-16 27 -21.5 80z" />
<glyph unicode="&#x43a;&#x43b;" horiz-adv-x="1523" d="M-80 -6q74 147 140.5 290.5t142.5 282.5q39 74 67.5 102.5t77.5 26.5q20 -2 42 -7t44 -1q-18 -10 -41.5 -38.5t-50.5 -68.5t-54 -87.5t-52 -96.5q33 41 72.5 86t84.5 86t92 75t95 52q80 29 127 23t63 -35q8 -25 4 -47.5t-17.5 -38.5t-34 -23.5t-42.5 -1.5q-2 20 -23.5 34 t-58.5 11.5t-87 -23t-105 -63.5q-47 -137 -40 -244.5t50 -167t108.5 -62.5t134.5 71q23 25 38.5 48.5t29.5 45.5q14 23 28.5 11.5t0.5 -33.5q-45 -78 -88 -120t-83 -61.5t-76 -22.5t-65 1q-29 2 -58.5 13.5t-56 35t-48 58t-29.5 88.5q-10 66 -9 108.5t7 71.5 q-27 -35 -54.5 -74t-48.5 -80q-12 -25 -29.5 -65.5t-49.5 -116.5q-12 -23 -28.5 -27t-49.5 -4q-23 -2 -38 -2t-32 -10zM703.5 195q15.5 41 44 52t49 -10.5t-5.5 -78.5q-8 -16 -4 -35t15 -34t28.5 -24.5t35.5 -9.5q35 2 60.5 9.5t48.5 27.5q41 35 74.5 85t63.5 107.5 t55.5 117t48 111.5t43 92t43.5 61q16 16 32.5 24t39 11.5t52 3.5h74.5q8 0 2 -5.5t-18 -11.5t-29.5 -11t-30.5 -5q-59 2 -83.5 -23.5t-51.5 -73.5q-33 -59 -70.5 -155t-86 -189.5t-108.5 -161t-140 -67.5q-49 0 -91 17.5t-69 66.5q-37 68 -21.5 109zM1227 153.5 q0 49.5 20 110.5q14 45 35 96.5t44.5 103.5t47 103.5t41.5 94.5q12 25 31.5 34t48.5 9h111q-23 -18 -39.5 -34t-31.5 -37.5t-31.5 -53t-39.5 -78.5q-23 -43 -44 -89t-40.5 -90t-34 -82t-18.5 -65q-14 -66 1 -93.5t38 -29.5q37 0 75 33t72.5 83t66.5 110.5t58 115.5 q12 27 27.5 20t1.5 -38q-25 -53 -57.5 -117.5t-73.5 -122t-90 -96.5t-105 -39q-35 0 -61.5 17.5t-39.5 51t-13 83z" />
<glyph unicode="&#x43a;&#x43c;" horiz-adv-x="1918" d="M-80 -6q74 147 140.5 290.5t142.5 282.5q39 74 67.5 102.5t77.5 26.5q20 -2 42 -7t44 -1q-18 -10 -41.5 -38.5t-50.5 -68.5t-54 -87.5t-52 -96.5q33 41 72.5 86t84.5 86t92 75t95 52q80 29 127 23t63 -35q8 -25 4 -47.5t-17.5 -38.5t-34 -23.5t-42.5 -1.5q-2 20 -23.5 34 t-58.5 11.5t-87 -23t-105 -63.5q-47 -137 -40 -244.5t50 -167t108.5 -62.5t134.5 71q23 25 38.5 48.5t29.5 45.5q14 23 28.5 11.5t0.5 -33.5q-45 -78 -88 -120t-83 -61.5t-76 -22.5t-65 1q-29 2 -58.5 13.5t-56 35t-48 58t-29.5 88.5q-10 66 -9 108.5t7 71.5 q-27 -35 -54.5 -74t-48.5 -80q-12 -25 -29.5 -65.5t-49.5 -116.5q-12 -23 -28.5 -27t-49.5 -4q-23 -2 -38 -2t-32 -10zM703.5 195q15.5 41 44 52t49 -10.5t-5.5 -78.5q-8 -16 -4 -35t15 -34t28.5 -24.5t35.5 -9.5q35 2 60.5 9.5t48.5 27.5q41 35 74.5 85t63.5 107.5 t55.5 117t48 111.5t43 92t43.5 61q16 16 32.5 24t39 11.5t52 3.5h74.5q8 0 2 -5.5t-18 -11.5t-29.5 -11t-30.5 -5q-59 2 -83.5 -23.5t-51.5 -73.5q-33 -59 -70.5 -155t-86 -189.5t-108.5 -161t-140 -67.5q-49 0 -91 17.5t-69 66.5q-37 68 -21.5 109zM1190 154.5 q0 48.5 20 109.5q14 45 35 96.5t44.5 103.5t47 103t41.5 95q12 25 32 34t48 9h111q-23 -18 -39.5 -34t-31.5 -37.5t-31.5 -53t-39.5 -78.5q-23 -43 -44 -89t-40.5 -90t-34 -82t-18.5 -65q-14 -66 1.5 -92.5t37.5 -30.5q41 -6 81 31t77 97.5t70.5 135t64.5 145t58.5 126 t52.5 78.5q16 16 32.5 24t39 11.5t52 3.5h74.5q8 0 2 -5.5t-18 -11.5t-29.5 -11t-30.5 -5q-59 2 -82.5 -23.5t-52.5 -73.5q-23 -39 -46 -97t-51 -122.5t-60.5 -129t-71.5 -115t-85 -81t-101 -28.5q-35 2 -61.5 19.5t-40 51t-13.5 82zM1622 153.5q0 49.5 20 110.5 q14 45 35 96.5t44.5 103.5t47 103.5t41.5 94.5q12 25 32 34t48 9h111q-23 -18 -39 -34t-31.5 -37.5t-32 -53t-38.5 -78.5q-23 -43 -44.5 -89t-41 -90t-34 -82t-18.5 -65q-14 -66 1.5 -93.5t37.5 -29.5q37 0 75 33t73 83t66.5 110.5t58.5 115.5q12 27 27.5 20t0.5 -38 q-25 -53 -57.5 -117.5t-73.5 -122t-90 -96.5t-104 -39q-35 0 -61.5 17.5t-40 51t-13.5 83z" />
<glyph unicode="&#x43a;&#x44f;" horiz-adv-x="1458" d="M-80 -6q74 147 140.5 290.5t142.5 282.5q39 74 67.5 102.5t77.5 26.5q20 -2 42 -7t44 -1q-18 -10 -41.5 -38.5t-50.5 -68.5t-54 -87.5t-52 -96.5q33 41 72.5 86t84.5 86t92 75t95 52q80 29 127 23t63 -35q8 -25 4 -47.5t-17.5 -38.5t-34 -23.5t-42.5 -1.5q-2 20 -23.5 34 t-58.5 11.5t-87 -23t-105 -63.5q-47 -137 -40 -244.5t50 -167t108.5 -62.5t134.5 71q23 25 38.5 48.5t29.5 45.5q14 23 28.5 11.5t0.5 -33.5q-45 -78 -88 -120t-83 -61.5t-76 -22.5t-65 1q-29 2 -58.5 13.5t-56 35t-48 58t-29.5 88.5q-10 66 -9 108.5t7 71.5 q-27 -35 -54.5 -74t-48.5 -80q-12 -25 -29.5 -65.5t-49.5 -116.5q-12 -23 -28.5 -27t-49.5 -4q-23 -2 -38 -2t-32 -10zM674.5 161q-0.5 36 12.5 57.5t33.5 28.5t36 0t20.5 -29.5t-13 -59.5q-8 -18 -4 -38t15 -36t28.5 -27.5t40.5 -11.5q35 -2 60.5 7t47.5 30q47 41 91 100.5 t81 124.5q4 4 29 0q11 -2 27 -4q-33 -59 -67 -115.5t-73 -99.5t-82 -69.5t-92 -26.5q-119 0 -164 84q-27 49 -27.5 85zM1016 407.5q-2 32.5 4 61.5q8 37 25.5 75t42 70.5t56.5 57t68 35.5q55 16 96.5 8t62 -37t19.5 -78t-32 -113q-45 -55 -74 -84q-25 -25 -37 -28.5t15 45.5 t47 94t26 80t-6 56.5t-51 23.5q-29 2 -56.5 -11.5t-47.5 -41.5q-23 -31 -48.5 -72t-38.5 -76q-8 -20 -10 -49t8.5 -52.5t40 -36.5t86.5 -5q29 4 29 -11.5t-41 -19.5q-68 -8 -106.5 7.5t-57 42t-20.5 59zM1150 127q-5 53 13 100q25 51 44.5 91t39 77t41 76t47.5 88 q20 37 33.5 62.5t27 41t29 21.5t39.5 4q20 -2 42 -7t44 -1q-23 -12 -54.5 -53t-65 -96.5t-67 -118t-60.5 -117.5q-14 -29 -30 -71t-22 -82t3.5 -68.5t45.5 -28.5q39 0 81 43t79 100.5t66.5 115.5t46.5 91q12 27 27.5 20t1.5 -38q-23 -47 -57 -112.5t-77 -126t-94 -103.5 t-110 -43q-25 0 -48.5 13t-44.5 42q-16 27 -21 80z" />
<glyph unicode="&#x43b;&#x43b;" horiz-adv-x="1634" d="M-3.5 195q15.5 41 44.5 52t49.5 -10.5t-6.5 -78.5q-8 -16 -4 -35t15 -34t28.5 -24.5t36.5 -9.5q35 2 60 9.5t48 27.5q41 35 75 85t63.5 107.5t55 117t48 111.5t43 92t43.5 61q16 16 32.5 24t39 11.5t52.5 3.5h75q8 0 2 -5.5t-18.5 -11.5t-30 -11t-29.5 -5 q-59 2 -84 -23.5t-51 -73.5q-33 -59 -71 -155t-86 -189.5t-108.5 -161t-140.5 -67.5q-49 0 -91 17.5t-69 66.5q-37 68 -21.5 109zM520 153.5q0 49.5 21 110.5q14 45 34.5 96.5t44 103.5t47.5 103.5t42 94.5q12 25 31.5 34t47.5 9h111q-23 -18 -39 -34t-31.5 -37.5t-32 -53 t-38.5 -78.5q-23 -43 -44.5 -89t-41 -90t-33.5 -82t-18 -65q-14 -66 1 -93.5t37 -29.5q78 0 185 172q16 27 31.5 19t-1.5 -37q-57 -98 -116.5 -151.5t-122.5 -53.5q-35 0 -61.5 17.5t-40 51t-13.5 83zM814 195q15 41 44 52t49.5 -10.5t-6.5 -78.5q-8 -16 -4 -35t15.5 -34 t28.5 -24.5t36 -9.5q35 2 60 9.5t48 27.5q41 35 75 85t63.5 107.5t55.5 117t48.5 111.5t43 92t42.5 61q16 16 32.5 24t39 11.5t52.5 3.5h75q8 0 2 -5.5t-18.5 -11.5t-30 -11t-29.5 -5q-59 2 -84 -23.5t-51 -73.5q-33 -59 -71 -155t-86 -189.5t-108.5 -161t-140.5 -67.5 q-49 0 -91 17.5t-68 66.5q-37 68 -22 109zM1337 153.5q0 49.5 21 110.5q14 45 34.5 96.5t44 103.5t47.5 103.5t42 94.5q12 25 31.5 34t48.5 9h110q-23 -18 -39 -34t-31.5 -37.5t-32 -53t-38.5 -78.5q-23 -43 -44.5 -89t-41 -90t-33.5 -82t-18 -65q-14 -66 1 -93.5t38 -29.5 q37 0 74.5 33t72.5 83t66.5 110.5t58.5 115.5q12 27 27.5 20t1.5 -38q-25 -53 -57.5 -117.5t-73.5 -122t-90.5 -96.5t-104.5 -39q-35 0 -61.5 17.5t-40 51t-13.5 83z" />
<glyph unicode="&#x43b;&#x43c;" horiz-adv-x="2029" d="M-3.5 195q15.5 41 44.5 52t49.5 -10.5t-6.5 -78.5q-8 -16 -4 -35t15 -34t28.5 -24.5t36.5 -9.5q35 2 60 9.5t48 27.5q41 35 75 85t63.5 107.5t55 117t48 111.5t43 92t43.5 61q16 16 32.5 24t39 11.5t52.5 3.5h75q8 0 2 -5.5t-18.5 -11.5t-30 -11t-29.5 -5 q-59 2 -84 -23.5t-51 -73.5q-33 -59 -71 -155t-86 -189.5t-108.5 -161t-140.5 -67.5q-49 0 -91 17.5t-69 66.5q-37 68 -21.5 109zM520 153.5q0 49.5 21 110.5q14 45 34.5 96.5t44 103.5t47.5 103.5t42 94.5q12 25 31.5 34t47.5 9h111q-23 -18 -39 -34t-31.5 -37.5t-32 -53 t-38.5 -78.5q-23 -43 -44.5 -89t-41 -90t-33.5 -82t-18 -65q-14 -66 1 -93.5t37 -29.5q78 0 185 172q16 27 31.5 19t-1.5 -37q-57 -98 -116.5 -151.5t-122.5 -53.5q-35 0 -61.5 17.5t-40 51t-13.5 83zM814 195q15 41 44 52t49.5 -10.5t-6.5 -78.5q-8 -16 -4 -35t15.5 -34 t28.5 -24.5t36 -9.5q35 2 60 9.5t48 27.5q41 35 75 85t63.5 107.5t55.5 117t48.5 111.5t43 92t42.5 61q16 16 32.5 24t39 11.5t52.5 3.5h75q8 0 2 -5.5t-18.5 -11.5t-30 -11t-29.5 -5q-59 2 -84 -23.5t-51 -73.5q-33 -59 -71 -155t-86 -189.5t-108.5 -161t-140.5 -67.5 q-49 0 -91 17.5t-68 66.5q-37 68 -22 109zM1300 154.5q0 48.5 21 109.5q14 45 34.5 96.5t44 103.5t47 103t42.5 95q12 25 31.5 34t48.5 9h110q-23 -18 -39 -34t-31.5 -37.5t-31.5 -53t-39 -78.5q-23 -43 -44 -89t-40.5 -90t-34 -82t-18.5 -65q-14 -66 1 -92.5t38 -30.5 q41 -6 81 31t76.5 97.5t70.5 135t64.5 145t58.5 126t52 78.5q16 16 32.5 24t39 11.5t52.5 3.5h75q8 0 2 -5.5t-18.5 -11.5t-30 -11t-29.5 -5q-59 2 -82.5 -23.5t-52.5 -73.5q-23 -39 -46.5 -97t-51 -122.5t-60.5 -129t-71.5 -115t-85 -81t-101.5 -28.5q-35 2 -61.5 19.5 t-40 51t-13.5 82zM1733 153.5q0 49.5 20 110.5q14 45 34.5 96.5t44 103.5t47.5 103.5t42 94.5q12 25 31.5 34t48.5 9h110q-23 -18 -39 -34t-31.5 -37.5t-31.5 -53t-39 -78.5q-23 -43 -44 -89t-40.5 -90t-34 -82t-18.5 -65q-14 -66 1 -93.5t38 -29.5q37 0 75 33t72.5 83 t66.5 110.5t58 115.5q12 27 27.5 20t1.5 -38q-25 -53 -57.5 -117.5t-73.5 -122t-90 -96.5t-105 -39q-35 0 -61.5 17.5t-39.5 51t-13 83z" />
<glyph unicode="&#x43b;&#x44f;" horiz-adv-x="1595" d="M-3.5 195q15.5 41 44.5 52t49.5 -10.5t-6.5 -78.5q-8 -16 -4 -35t15 -34t28.5 -24.5t36.5 -9.5q35 2 60 9.5t48 27.5q41 35 75 85t63.5 107.5t55 117t48 111.5t43 92t43.5 61q16 16 32.5 24t39 11.5t52.5 3.5h75q8 0 2 -5.5t-18.5 -11.5t-30 -11t-29.5 -5 q-59 2 -84 -23.5t-51 -73.5q-33 -59 -71 -155t-86 -189.5t-108.5 -161t-140.5 -67.5q-49 0 -91 17.5t-69 66.5q-37 68 -21.5 109zM520 153.5q0 49.5 21 110.5q14 45 34.5 96.5t44 103.5t47.5 103.5t42 94.5q12 25 31.5 34t47.5 9h111q-23 -18 -39 -34t-31.5 -37.5t-32 -53 t-38.5 -78.5q-23 -43 -44.5 -89t-41 -90t-33.5 -82t-18 -65q-14 -66 1 -93.5t37 -29.5q78 0 185 172q16 27 31.5 19t-1.5 -37q-57 -98 -116.5 -151.5t-122.5 -53.5q-35 0 -61.5 17.5t-40 51t-13.5 83zM812 161q-1 36 12.5 57.5t34 28.5t35.5 0t20.5 -29.5t-13.5 -59.5 q-8 -18 -4 -38t15.5 -36t28.5 -27.5t40 -11.5q35 -2 60.5 7t48.5 30q47 41 91 100.5t81 124.5q4 4 28 0q11 -2 27 -4q-33 -59 -66.5 -115.5t-72.5 -99.5t-82 -69.5t-92 -26.5q-119 0 -164 84q-27 49 -28 85zM1153 407.5q-2 32.5 4 61.5q8 37 25.5 75t42 70.5t56.5 57 t69 35.5q55 16 96 8t61.5 -37t19.5 -78t-32 -113q-45 -55 -74 -84q-25 -25 -37 -28.5t15 45.5t47 94t26.5 80t-6 56.5t-51.5 23.5q-29 2 -56.5 -11.5t-47.5 -41.5q-23 -31 -48.5 -72t-37.5 -76q-8 -20 -10.5 -49t8 -52.5t40 -36.5t87.5 -5q29 4 28.5 -11.5t-41.5 -19.5 q-68 -8 -106.5 7.5t-57 42t-20.5 59zM1287.5 127q-5.5 53 12.5 100q25 51 44.5 91t39 77t41 76t48.5 88q20 37 33.5 62.5t26.5 41t28.5 21.5t40.5 4q20 -2 41.5 -7t44.5 -1q-23 -12 -54.5 -53t-65.5 -96.5t-67.5 -118t-60.5 -117.5q-14 -29 -29.5 -71t-22 -82t3 -68.5 t46.5 -28.5q39 0 81 43t78.5 100.5t66.5 115.5t46 91q12 27 27.5 20t1.5 -38q-23 -47 -56.5 -112.5t-76.5 -126t-94.5 -103.5t-110.5 -43q-25 0 -48.5 13t-43.5 42q-16 27 -21.5 80z" />
<glyph unicode="&#x43c;&#x43b;" horiz-adv-x="2029" d="M-3.5 195q15.5 41 44.5 52t49.5 -10.5t-6.5 -78.5q-8 -16 -4 -35t15 -34t28.5 -24.5t36.5 -9.5q35 2 60 9.5t48 27.5q41 35 75 85t63.5 107.5t55 117t48 111.5t43 92t43.5 61q16 16 32.5 24t39 11.5t52.5 3.5h75q8 0 2 -5.5t-18.5 -11.5t-30 -11t-29.5 -5 q-59 2 -84 -23.5t-51 -73.5q-33 -59 -71 -155t-86 -189.5t-108.5 -161t-140.5 -67.5q-49 0 -91 17.5t-69 66.5q-37 68 -21.5 109zM483 154.5q0 48.5 21 109.5q14 45 34.5 96.5t44 103.5t47 103t42.5 95q12 25 31.5 34t48.5 9h110q-23 -18 -39 -34t-31.5 -37.5t-32 -53 t-38.5 -78.5q-23 -43 -44.5 -89t-41 -90t-33.5 -82t-18 -65q-14 -66 1 -92.5t38 -30.5q41 -6 80.5 31t76.5 97.5t71 135t64.5 145t58 126t52.5 78.5q16 16 32.5 24t39 11.5t52.5 3.5h75q8 0 2 -5.5t-18.5 -11.5t-30 -11t-29.5 -5q-59 2 -83 -23.5t-52 -73.5 q-23 -39 -46.5 -97t-51 -122.5t-60.5 -129t-72 -115t-85 -81t-101 -28.5q-35 2 -61.5 19.5t-40 51t-13.5 82zM915 153.5q0 49.5 21 110.5q14 45 34.5 96.5t44 103.5t47.5 103.5t42 94.5q12 25 31.5 34t48.5 9h110q-23 -18 -39 -34t-31.5 -37.5t-31.5 -53t-39 -78.5 q-23 -43 -44.5 -89t-40.5 -90t-33.5 -82t-18.5 -65q-14 -66 1 -93.5t38 -29.5q37 -2 83 40t99 130q16 27 31.5 20t-0.5 -38q-117 -203 -238 -203q-35 0 -61.5 17.5t-40 51t-13.5 83zM1209.5 195q15.5 41 44 52t49 -10.5t-6.5 -78.5q-8 -16 -4 -35t15.5 -34t29 -24.5 t35.5 -9.5q35 2 60.5 9.5t48.5 27.5q41 35 74.5 85t63.5 107.5t55.5 117t48 111.5t43 92t42.5 61q16 16 33 24t39.5 11.5t52 3.5h74.5q8 0 2 -5.5t-18.5 -11.5t-29.5 -11t-30 -5q-59 2 -83.5 -23.5t-51.5 -73.5q-33 -59 -70.5 -155t-86 -189.5t-109 -161t-139.5 -67.5 q-49 0 -91.5 17.5t-68.5 66.5q-37 68 -21.5 109zM1733 153.5q0 49.5 20 110.5q14 45 34.5 96.5t44 103.5t47.5 103.5t42 94.5q12 25 31.5 34t48.5 9h110q-23 -18 -39 -34t-31.5 -37.5t-31.5 -53t-39 -78.5q-23 -43 -44 -89t-40.5 -90t-34 -82t-18.5 -65q-14 -66 1 -93.5 t38 -29.5q37 0 75 33t72.5 83t66.5 110.5t58 115.5q12 27 27.5 20t1.5 -38q-25 -53 -57.5 -117.5t-73.5 -122t-90 -96.5t-105 -39q-35 0 -61.5 17.5t-39.5 51t-13 83z" />
<glyph unicode="&#x43c;&#x43c;" horiz-adv-x="2424" d="M-3.5 195q15.5 41 44.5 52t49.5 -10.5t-6.5 -78.5q-8 -16 -4 -35t15 -34t28.5 -24.5t36.5 -9.5q35 2 60 9.5t48 27.5q41 35 75 85t63.5 107.5t55 117t48 111.5t43 92t43.5 61q16 16 32.5 24t39 11.5t52.5 3.5h75q8 0 2 -5.5t-18.5 -11.5t-30 -11t-29.5 -5 q-59 2 -84 -23.5t-51 -73.5q-33 -59 -71 -155t-86 -189.5t-108.5 -161t-140.5 -67.5q-49 0 -91 17.5t-69 66.5q-37 68 -21.5 109zM483 154.5q0 48.5 21 109.5q14 45 34.5 96.5t44 103.5t47 103t42.5 95q12 25 31.5 34t48.5 9h110q-23 -18 -39 -34t-31.5 -37.5t-32 -53 t-38.5 -78.5q-23 -43 -44.5 -89t-41 -90t-33.5 -82t-18 -65q-14 -66 1 -92.5t38 -30.5q41 -6 80.5 31t76.5 97.5t71 135t64.5 145t58 126t52.5 78.5q16 16 32.5 24t39 11.5t52.5 3.5h75q8 0 2 -5.5t-18.5 -11.5t-30 -11t-29.5 -5q-59 2 -83 -23.5t-52 -73.5 q-23 -39 -46.5 -97t-51 -122.5t-60.5 -129t-72 -115t-85 -81t-101 -28.5q-35 2 -61.5 19.5t-40 51t-13.5 82zM915 153.5q0 49.5 21 110.5q14 45 34.5 96.5t44 103.5t47.5 103.5t42 94.5q12 25 31.5 34t48.5 9h110q-23 -18 -39 -34t-31.5 -37.5t-31.5 -53t-39 -78.5 q-23 -43 -44.5 -89t-40.5 -90t-33.5 -82t-18.5 -65q-14 -66 1 -93.5t38 -29.5q37 -2 83 40t99 130q16 27 31.5 20t-0.5 -38q-117 -203 -238 -203q-35 0 -61.5 17.5t-40 51t-13.5 83zM1209.5 195q15.5 41 44 52t49 -10.5t-6.5 -78.5q-8 -16 -4 -35t15.5 -34t29 -24.5 t35.5 -9.5q35 2 60.5 9.5t48.5 27.5q41 35 74.5 85t63.5 107.5t55.5 117t48 111.5t43 92t42.5 61q16 16 33 24t39.5 11.5t52 3.5h74.5q8 0 2 -5.5t-18.5 -11.5t-29.5 -11t-30 -5q-59 2 -83.5 -23.5t-51.5 -73.5q-33 -59 -70.5 -155t-86 -189.5t-109 -161t-139.5 -67.5 q-49 0 -91.5 17.5t-68.5 66.5q-37 68 -21.5 109zM1696 154.5q0 48.5 20 109.5q14 45 35 96.5t44.5 103.5t47 103t41.5 95q12 25 31.5 34t48.5 9h111q-23 -18 -39.5 -34t-31.5 -37.5t-31.5 -53t-39.5 -78.5q-23 -43 -44 -89t-40.5 -90t-34 -82t-18.5 -65q-14 -66 1 -92.5 t38 -30.5q41 -6 81 31t77 97.5t70.5 135t64.5 145t58.5 126t51.5 78.5q16 16 33 24t39.5 11.5t52 3.5h74.5q8 0 2 -5.5t-18.5 -11.5t-29.5 -11t-30 -5q-59 2 -82.5 -23.5t-52.5 -73.5q-23 -39 -46 -97t-51 -122.5t-60.5 -129t-71.5 -115t-85.5 -81t-101.5 -28.5 q-35 2 -61.5 19.5t-39.5 51t-13 82zM2128 153.5q0 49.5 20 110.5q14 45 35 96.5t44.5 103.5t47 103.5t41.5 94.5q12 25 31.5 34t48.5 9h111q-23 -18 -39.5 -34t-31.5 -37.5t-31.5 -53t-39.5 -78.5q-23 -43 -44 -89t-40.5 -90t-34 -82t-18.5 -65q-14 -66 1.5 -93.5 t37.5 -29.5q37 0 75 33t72.5 83t66.5 110.5t59 115.5q12 27 27.5 20t0.5 -38q-25 -53 -57.5 -117.5t-73.5 -122t-90 -96.5t-104 -39q-35 0 -62 17.5t-40 51t-13 83z" />
<glyph unicode="&#x43c;&#x44f;" horiz-adv-x="1988" d="M-3.5 195q15.5 41 44.5 52t49.5 -10.5t-6.5 -78.5q-8 -16 -4 -35t15 -34t28.5 -24.5t36.5 -9.5q35 2 60 9.5t48 27.5q41 35 75 85t63.5 107.5t55 117t48 111.5t43 92t43.5 61q16 16 32.5 24t39 11.5t52.5 3.5h75q8 0 2 -5.5t-18.5 -11.5t-30 -11t-29.5 -5 q-59 2 -84 -23.5t-51 -73.5q-33 -59 -71 -155t-86 -189.5t-108.5 -161t-140.5 -67.5q-49 0 -91 17.5t-69 66.5q-37 68 -21.5 109zM483 154.5q0 48.5 21 109.5q14 45 34.5 96.5t44 103.5t47 103t42.5 95q12 25 31.5 34t48.5 9h110q-23 -18 -39 -34t-31.5 -37.5t-32 -53 t-38.5 -78.5q-23 -43 -44.5 -89t-41 -90t-33.5 -82t-18 -65q-14 -66 1 -92.5t38 -30.5q41 -6 80.5 31t76.5 97.5t71 135t64.5 145t58 126t52.5 78.5q16 16 32.5 24t39 11.5t52.5 3.5h75q8 0 2 -5.5t-18.5 -11.5t-30 -11t-29.5 -5q-59 2 -83 -23.5t-52 -73.5 q-23 -39 -46.5 -97t-51 -122.5t-60.5 -129t-72 -115t-85 -81t-101 -28.5q-35 2 -61.5 19.5t-40 51t-13.5 82zM915 153.5q0 49.5 21 110.5q14 45 34.5 96.5t44 103.5t47.5 103.5t42 94.5q12 25 31.5 34t48.5 9h110q-23 -18 -39 -34t-31.5 -37.5t-31.5 -53t-39 -78.5 q-23 -43 -44.5 -89t-40.5 -90t-33.5 -82t-18.5 -65q-14 -66 1 -93.5t38 -29.5q37 -2 83 40t99 130q16 27 31.5 20t-0.5 -38q-117 -203 -238 -203q-35 0 -61.5 17.5t-40 51t-13.5 83zM1205 161q-1 36 12.5 57.5t34 28.5t36 0t20.5 -29.5t-14 -59.5q-8 -18 -4 -38t15.5 -36 t29 -27.5t39.5 -11.5q35 -2 60.5 7t48.5 30q47 41 91 100.5t81 124.5q4 4 28 0q11 -2 27 -4q-33 -59 -66.5 -115.5t-72.5 -99.5t-82 -69.5t-92 -26.5q-119 0 -164 84q-27 49 -28 85zM1546 407.5q-2 32.5 4 61.5q8 37 25.5 75t42 70.5t56.5 57t69 35.5q55 16 96 8t61.5 -37 t19.5 -78t-32 -113q-45 -55 -73 -84q-25 -25 -37.5 -28.5t14.5 45.5t47.5 94t26.5 80t-6.5 56.5t-51.5 23.5q-29 2 -56.5 -11.5t-47.5 -41.5q-23 -31 -48.5 -72t-37.5 -76q-8 -20 -10 -49t8 -52.5t40 -36.5t87 -5q29 4 29 -11.5t-41 -19.5q-68 -8 -107 7.5t-57.5 42 t-20.5 59zM1680.5 127q-5.5 53 13.5 100q25 51 44 91t38.5 77t41 76t48.5 88q20 37 33.5 62.5t26.5 41t28.5 21.5t40.5 4q20 -2 41.5 -7t44.5 -1q-23 -12 -54.5 -53t-65.5 -96.5t-67.5 -118t-60.5 -117.5q-14 -29 -29.5 -71t-21.5 -82t3 -68.5t46 -28.5q39 0 81 43t79 100.5 t66.5 115.5t45.5 91q12 27 27.5 20t1.5 -38q-23 -47 -56.5 -112.5t-76.5 -126t-94.5 -103.5t-110.5 -43q-25 0 -48.5 13t-43.5 42q-16 27 -21.5 80z" />
<glyph unicode="&#x43d;&#x43b;" horiz-adv-x="1513" d="M-80 -14q74 147 140.5 290.5t142.5 282.5q39 74 67.5 102.5t77.5 26.5q20 -2 42 -7t44 -1q-23 -12 -54.5 -53t-65 -96.5t-67.5 -118t-61 -117.5q-12 -27 -20 -43t-18.5 -41t-29 -66t-50.5 -116q-12 -23 -28.5 -27t-49.5 -4q-23 -2 -38 -2t-32 -10zM168 322q16 31 46 61.5 t71 26.5q39 -2 72.5 -19.5t68.5 -21.5q25 -4 39 8t24 31q4 4 16.5 4t8.5 -4q-12 -35 -43 -67t-72 -28q-37 2 -72.5 21.5t-70.5 21.5q-20 2 -36.5 -9t-24.5 -28q-2 -4 -16.5 -4t-10.5 7zM391.5 127q-10.5 53 7.5 100q25 51 43.5 91t37 77t39 76t46.5 88q39 74 68 102.5 t78 26.5q20 -2 41.5 -7t44.5 -1q-23 -12 -54.5 -53t-65.5 -96.5t-67.5 -118t-60.5 -117.5q-14 -29 -29.5 -71t-21.5 -82t3 -68.5t46 -28.5q29 0 57.5 22.5t53 52.5t44 60.5t29.5 46.5q16 27 30.5 18t-1.5 -38q-18 -33 -45 -71t-58.5 -69.5t-68.5 -53t-78 -21.5 q-25 0 -48.5 13t-43.5 42q-16 27 -26.5 80zM693.5 195q15.5 41 44 52t49 -10.5t-6.5 -78.5q-8 -16 -4 -35t15.5 -34t29 -24.5t35.5 -9.5q35 2 60.5 9.5t48.5 27.5q41 35 74.5 85t63.5 107.5t55.5 117t48 111.5t43 92t42.5 61q16 16 32.5 24t39 11.5t52.5 3.5h75q8 0 2 -5.5 t-18.5 -11.5t-30 -11t-29.5 -5q-59 2 -83.5 -23.5t-51.5 -73.5q-33 -59 -71 -155t-86 -189.5t-108.5 -161t-140.5 -67.5q-49 0 -91 17.5t-68 66.5q-37 68 -21.5 109zM1217 153.5q0 49.5 20 110.5q14 45 34.5 96.5t44 103.5t47.5 103.5t42 94.5q12 25 31.5 34t48.5 9h110 q-23 -18 -39 -34t-31.5 -37.5t-31.5 -53t-39 -78.5q-23 -43 -44 -89t-40.5 -90t-34 -82t-18.5 -65q-14 -66 1 -93.5t38 -29.5q37 0 74.5 33t72.5 83t67 110.5t58 115.5q12 27 27.5 20t1.5 -38q-25 -53 -57.5 -117.5t-73.5 -122t-90.5 -96.5t-104.5 -39q-35 0 -61.5 17.5 t-39.5 51t-13 83z" />
<glyph unicode="&#x43d;&#x43c;" horiz-adv-x="1908" d="M-80 -14q74 147 140.5 290.5t142.5 282.5q39 74 67.5 102.5t77.5 26.5q20 -2 42 -7t44 -1q-23 -12 -54.5 -53t-65 -96.5t-67.5 -118t-61 -117.5q-12 -27 -20 -43t-18.5 -41t-29 -66t-50.5 -116q-12 -23 -28.5 -27t-49.5 -4q-23 -2 -38 -2t-32 -10zM168 322q16 31 46 61.5 t71 26.5q39 -2 72.5 -19.5t68.5 -21.5q25 -4 39 8t24 31q4 4 16.5 4t8.5 -4q-12 -35 -43 -67t-72 -28q-37 2 -72.5 21.5t-70.5 21.5q-20 2 -36.5 -9t-24.5 -28q-2 -4 -16.5 -4t-10.5 7zM391.5 127q-10.5 53 7.5 100q25 51 43.5 91t37 77t39 76t46.5 88q39 74 68 102.5 t78 26.5q20 -2 41.5 -7t44.5 -1q-23 -12 -54.5 -53t-65.5 -96.5t-67.5 -118t-60.5 -117.5q-14 -29 -29.5 -71t-21.5 -82t3 -68.5t46 -28.5q29 0 57.5 22.5t53 52.5t44 60.5t29.5 46.5q16 27 30.5 18t-1.5 -38q-18 -33 -45 -71t-58.5 -69.5t-68.5 -53t-78 -21.5 q-25 0 -48.5 13t-43.5 42q-16 27 -26.5 80zM693.5 195q15.5 41 44 52t49 -10.5t-6.5 -78.5q-8 -16 -4 -35t15.5 -34t29 -24.5t35.5 -9.5q35 2 60.5 9.5t48.5 27.5q41 35 74.5 85t63.5 107.5t55.5 117t48 111.5t43 92t42.5 61q16 16 32.5 24t39 11.5t52.5 3.5h75q8 0 2 -5.5 t-18.5 -11.5t-30 -11t-29.5 -5q-59 2 -83.5 -23.5t-51.5 -73.5q-33 -59 -71 -155t-86 -189.5t-108.5 -161t-140.5 -67.5q-49 0 -91 17.5t-68 66.5q-37 68 -21.5 109zM1180 154.5q0 48.5 20 109.5q14 45 34.5 96.5t44.5 103.5t47.5 103t41.5 95q12 25 31.5 34t48.5 9h111 q-23 -18 -39.5 -34t-31.5 -37.5t-31.5 -53t-39.5 -78.5q-23 -43 -44 -89t-40.5 -90t-34 -82t-18.5 -65q-14 -66 1 -92.5t38 -30.5q41 -6 81 31t76.5 97.5t70.5 135t64.5 145t58.5 126t52 78.5q16 16 33 24t39.5 11.5t52 3.5h74.5q8 0 2 -5.5t-18.5 -11.5t-29.5 -11t-30 -5 q-59 2 -82.5 -23.5t-52.5 -73.5q-23 -39 -46.5 -97t-51 -122.5t-60 -129t-71.5 -115t-85.5 -81t-101.5 -28.5q-35 2 -61.5 19.5t-39.5 51t-13 82zM1612 153.5q0 49.5 20 110.5q14 45 35 96.5t44.5 103.5t47 103.5t41.5 94.5q12 25 31.5 34t48.5 9h111q-23 -18 -39.5 -34 t-31.5 -37.5t-31.5 -53t-39.5 -78.5q-23 -43 -44 -89t-40.5 -90t-34 -82t-18.5 -65q-14 -66 1.5 -93.5t37.5 -29.5q37 0 75 33t72.5 83t66.5 110.5t58 115.5q12 27 27.5 20t1.5 -38q-25 -53 -57.5 -117.5t-73.5 -122t-90 -96.5t-105 -39q-35 0 -61.5 17.5t-39.5 51t-13 83z " />
<glyph unicode="&#x43d;&#x44f;" horiz-adv-x="1480" d="M-80 -14q74 147 140.5 290.5t142.5 282.5q39 74 67.5 102.5t77.5 26.5q20 -2 42 -7t44 -1q-23 -12 -54.5 -53t-65 -96.5t-67.5 -118t-61 -117.5q-12 -27 -20 -43t-18.5 -41t-29 -66t-50.5 -116q-12 -23 -28.5 -27t-49.5 -4q-23 -2 -38 -2t-32 -10zM168 322q16 31 46 61.5 t71 26.5q39 -2 72.5 -19.5t68.5 -21.5q25 -4 39 8t24 31q4 4 16.5 4t8.5 -4q-12 -35 -43 -67t-72 -28q-37 2 -72.5 21.5t-70.5 21.5q-20 2 -36.5 -9t-24.5 -28q-2 -4 -16.5 -4t-10.5 7zM391.5 127q-10.5 53 7.5 100q25 51 43.5 91t37 77t39 76t46.5 88q39 74 68 102.5 t78 26.5q20 -2 41.5 -7t44.5 -1q-23 -12 -54.5 -53t-65.5 -96.5t-67.5 -118t-60.5 -117.5q-14 -29 -29.5 -71t-21.5 -82t3 -68.5t46 -28.5q29 0 57.5 22.5t53 52.5t44 60.5t29.5 46.5q16 27 30.5 18t-1.5 -38q-18 -33 -45 -71t-58.5 -69.5t-68.5 -53t-78 -21.5 q-25 0 -48.5 13t-43.5 42q-16 27 -26.5 80zM697 161q-1 36 12.5 57.5t34 28.5t36 0t20.5 -29.5t-14 -59.5q-8 -18 -4 -38t15.5 -36t29 -27.5t39.5 -11.5q35 -2 60.5 7t48.5 30q47 41 91 100.5t81 124.5q4 4 29 0q10 -2 26 -4q-33 -59 -66.5 -115.5t-72.5 -99.5t-82 -69.5 t-92 -26.5q-119 0 -164 84q-27 49 -28 85zM1038 407.5q-2 32.5 4 61.5q8 37 25.5 75t42.5 70.5t56.5 57t68.5 35.5q55 16 96 8t61.5 -37t19.5 -78t-32 -113q-45 -55 -73 -84q-25 -25 -37.5 -28.5t14.5 45.5t47.5 94t26.5 80t-6.5 56.5t-51.5 23.5q-29 2 -56 -11.5t-48 -41.5 q-23 -31 -48.5 -72t-37.5 -76q-8 -20 -10 -49t8 -52.5t40 -36.5t87 -5q29 4 29 -11.5t-41 -19.5q-68 -8 -107 7.5t-57.5 42t-20.5 59zM1172.5 127q-5.5 53 13.5 100q25 51 44 91t38.5 77t41 76t48.5 88q20 37 33.5 62.5t27 41t28.5 21.5t40 4q20 -2 41.5 -7t44.5 -1 q-23 -12 -54.5 -53t-65.5 -96.5t-67.5 -118t-60.5 -117.5q-14 -29 -29.5 -71t-21.5 -82t3 -68.5t46 -28.5q39 0 81 43t79 100.5t66.5 115.5t45.5 91q12 27 27.5 20t1.5 -38q-23 -47 -56.5 -112.5t-76.5 -126t-94 -103.5t-111 -43q-25 0 -48.5 13t-43.5 42q-16 27 -21.5 80z " />
<glyph unicode="&#x43e;&#x43b;" horiz-adv-x="1503" d="M65.5 238.5q10.5 66.5 38.5 134.5q31 70 76 133t97.5 110.5t107.5 75t109 25.5q57 0 92 -33t46 -86t1 -119.5t-39 -134.5q-23 -53 -68 -119.5t-104 -122.5q27 -51 96 -51q59 0 106.5 53.5t94.5 126.5q10 14 27.5 9.5t5.5 -27.5q-16 -31 -41 -64.5t-54.5 -63.5 t-65.5 -49.5t-77 -19.5q-47 -2 -79 14.5t-52 39.5q-43 -33 -88 -52.5t-90 -17.5q-59 2 -93 35t-45.5 85t-1 118.5zM176 160q-4 -45 6.5 -75t38.5 -38q29 -8 66 6.5t73 44.5q-16 25 -24 51.5t-8 49.5q2 35 17 61.5t54 26.5q27 0 44.5 -18.5t17.5 -43.5q0 -6 -1 -11t-3 -11 q35 51 63 110q31 63 47.5 121t18.5 103t-10 74.5t-39 37.5q-33 8 -72 -9t-78 -55t-76 -90.5t-65 -113.5q-31 -63 -48.5 -119.5t-21.5 -101.5zM683 195q15 41 44 52t49.5 -10.5t-6.5 -78.5q-8 -16 -4 -35t15.5 -34t28.5 -24.5t36 -9.5q35 2 60 9.5t48 27.5q41 35 75 85 t63.5 107.5t55.5 117t48.5 111.5t43 92t42.5 61q16 16 32.5 24t39 11.5t52.5 3.5h75q8 0 2 -5.5t-18.5 -11.5t-30 -11t-29.5 -5q-59 2 -84 -23.5t-51 -73.5q-33 -59 -71 -155t-86 -189.5t-108.5 -161t-140.5 -67.5q-49 0 -91 17.5t-68 66.5q-37 68 -22 109zM1206 153.5 q0 49.5 21 110.5q14 45 34.5 96.5t44 103.5t47.5 103.5t42 94.5q12 25 31.5 34t48.5 9h110q-23 -18 -39 -34t-31.5 -37.5t-32 -53t-38.5 -78.5q-23 -43 -44.5 -89t-41 -90t-33.5 -82t-18 -65q-14 -66 1 -93.5t38 -29.5q37 0 74.5 33t72.5 83t66.5 110.5t58.5 115.5 q12 27 27.5 20t1.5 -38q-25 -53 -58 -117.5t-73.5 -122t-90 -96.5t-104.5 -39q-35 0 -61.5 17.5t-40 51t-13.5 83z" />
<glyph unicode="&#x43e;&#x43c;" horiz-adv-x="1898" d="M65.5 238.5q10.5 66.5 38.5 134.5q31 70 76 133t97.5 110.5t107.5 75t109 25.5q57 0 92 -33t46 -86t1 -119.5t-39 -134.5q-23 -53 -68 -119.5t-104 -122.5q27 -51 96 -51q59 0 106.5 53.5t94.5 126.5q10 14 27.5 9.5t5.5 -27.5q-16 -31 -41 -64.5t-54.5 -63.5 t-65.5 -49.5t-77 -19.5q-47 -2 -79 14.5t-52 39.5q-43 -33 -88 -52.5t-90 -17.5q-59 2 -93 35t-45.5 85t-1 118.5zM176 160q-4 -45 6.5 -75t38.5 -38q29 -8 66 6.5t73 44.5q-16 25 -24 51.5t-8 49.5q2 35 17 61.5t54 26.5q27 0 44.5 -18.5t17.5 -43.5q0 -6 -1 -11t-3 -11 q35 51 63 110q31 63 47.5 121t18.5 103t-10 74.5t-39 37.5q-33 8 -72 -9t-78 -55t-76 -90.5t-65 -113.5q-31 -63 -48.5 -119.5t-21.5 -101.5zM683 195q15 41 44 52t49.5 -10.5t-6.5 -78.5q-8 -16 -4 -35t15.5 -34t28.5 -24.5t36 -9.5q35 2 60 9.5t48 27.5q41 35 75 85 t63.5 107.5t55.5 117t48.5 111.5t43 92t42.5 61q16 16 32.5 24t39 11.5t52.5 3.5h75q8 0 2 -5.5t-18.5 -11.5t-30 -11t-29.5 -5q-59 2 -84 -23.5t-51 -73.5q-33 -59 -71 -155t-86 -189.5t-108.5 -161t-140.5 -67.5q-49 0 -91 17.5t-68 66.5q-37 68 -22 109zM1169 154.5 q0 48.5 21 109.5q14 45 34.5 96.5t44 103.5t47 103t42.5 95q12 25 31.5 34t48.5 9h110q-23 -18 -39 -34t-31.5 -37.5t-31.5 -53t-39 -78.5q-23 -43 -44.5 -89t-40.5 -90t-33.5 -82t-18.5 -65q-14 -66 1 -92.5t38 -30.5q43 -6 82 31t75.5 97.5t70.5 135t64.5 145t58.5 126 t52 78.5q16 16 32.5 24t39 11.5t52.5 3.5h75q8 0 2 -5.5t-18.5 -11.5t-30 -11t-29.5 -5q-59 2 -82.5 -23.5t-52.5 -73.5q-23 -39 -46.5 -97t-51 -122.5t-60.5 -129t-71.5 -115t-85 -81t-101.5 -28.5q-35 2 -61.5 19.5t-40 51t-13.5 82zM1602 153.5q0 49.5 20 110.5 q14 45 34.5 96.5t44 103.5t47.5 103.5t42 94.5q12 25 31.5 34t48.5 9h110q-23 -18 -39 -34t-31.5 -37.5t-31.5 -53t-39 -78.5q-23 -43 -44 -89t-40.5 -90t-34 -82t-18.5 -65q-14 -66 1 -93.5t38 -29.5q37 0 74.5 33t72.5 83t67 110.5t58 115.5q12 27 27.5 20t1.5 -38 q-25 -53 -57.5 -117.5t-73.5 -122t-90 -96.5t-105 -39q-35 0 -61.5 17.5t-39.5 51t-13 83z" />
<glyph unicode="&#x43e;&#x44f;" horiz-adv-x="1464" d="M65.5 238.5q10.5 66.5 38.5 134.5q31 70 76 133t97.5 110.5t107.5 75t109 25.5q57 0 92 -33t46 -86t1 -119.5t-39 -134.5q-23 -53 -68 -119.5t-104 -122.5q27 -51 96 -51q59 0 106.5 53.5t94.5 126.5q10 14 27.5 9.5t5.5 -27.5q-16 -31 -41 -64.5t-54.5 -63.5 t-65.5 -49.5t-77 -19.5q-47 -2 -79 14.5t-52 39.5q-43 -33 -88 -52.5t-90 -17.5q-59 2 -93 35t-45.5 85t-1 118.5zM176 160q-4 -45 6.5 -75t38.5 -38q29 -8 66 6.5t73 44.5q-16 25 -24 51.5t-8 49.5q2 35 17 61.5t54 26.5q27 0 44.5 -18.5t17.5 -43.5q0 -6 -1 -11t-3 -11 q35 51 63 110q31 63 47.5 121t18.5 103t-10 74.5t-39 37.5q-33 8 -72 -9t-78 -55t-76 -90.5t-65 -113.5q-31 -63 -48.5 -119.5t-21.5 -101.5zM681 161q-1 36 12.5 57.5t34 28.5t35.5 0t20 -29.5t-13 -59.5q-8 -18 -4 -38t15.5 -36t28.5 -27.5t40 -11.5q35 -2 60.5 7t47.5 30 q47 41 91.5 100.5t80.5 124.5q4 4 29 0q11 -2 27 -4q-33 -59 -67 -115.5t-72.5 -99.5t-81.5 -69.5t-93 -26.5q-119 0 -163 84q-27 49 -28 85zM1022 407.5q-2 32.5 4 61.5q8 37 25.5 75t42 70.5t56.5 57t69 35.5q55 16 96 8t61.5 -37t19.5 -78t-32 -113q-45 -55 -74 -84 q-25 -25 -37 -28.5t15 45.5t47 94t26.5 80t-6 56.5t-51.5 23.5q-29 2 -56.5 -11.5t-47.5 -41.5q-23 -31 -48.5 -72t-37.5 -76q-8 -20 -10.5 -49t8 -52.5t40 -36.5t87.5 -5q29 4 28.5 -11.5t-41.5 -19.5q-68 -8 -106.5 7.5t-57 42t-20.5 59zM1156.5 127q-5.5 53 12.5 100 q25 51 44.5 91t39 77t41 76t47.5 88q20 37 34 62.5t27 41t28.5 21.5t39.5 4q20 -2 42 -7t44 -1q-23 -12 -54.5 -53t-65 -96.5t-67 -118t-60.5 -117.5q-14 -29 -29.5 -71t-22 -82t3 -68.5t46.5 -28.5q39 0 81 43t78.5 100.5t66.5 115.5t46 91q12 27 27.5 20t1.5 -38 q-23 -47 -56.5 -112.5t-76.5 -126t-94.5 -103.5t-110.5 -43q-25 0 -48.5 13t-43.5 42q-16 27 -21.5 80z" />
<glyph unicode="&#x43f;&#x43b;" horiz-adv-x="1503" d="M-80 -14q74 147 140.5 290.5t142.5 282.5q39 74 67.5 102.5t77.5 26.5q20 -2 42 -7t44 -1q-23 -12 -54.5 -53t-65 -96.5t-67.5 -118t-61 -117.5q31 39 77 91t93 93q37 33 91.5 71t109.5 67.5t103 46t75 8.5q-61 -111 -112 -211q-23 -43 -44.5 -88t-40 -87t-31.5 -79 t-18 -64q-12 -63 0.5 -82.5t32.5 -19.5q25 0 50.5 17.5t50 44t48 59.5t42.5 65q16 27 32.5 21t-0.5 -37q-53 -92 -116.5 -155.5t-134.5 -63.5q-27 0 -55.5 10t-48 38t-24 74t18.5 117q12 41 41 93.5t72 121.5q18 31 20 53.5t-15.5 26.5t-54 -16.5t-96.5 -75.5 q-53 -47 -125.5 -141t-158.5 -264q-12 -23 -28.5 -27t-49.5 -4q-23 -2 -38 -2t-32 -10zM683 195q15 41 44 52t49.5 -10.5t-6.5 -78.5q-8 -16 -4 -35t15.5 -34t28.5 -24.5t36 -9.5q35 2 60 9.5t48 27.5q41 35 75 85t63.5 107.5t55.5 117t48.5 111.5t43 92t42.5 61 q16 16 32.5 24t39 11.5t52.5 3.5h75q8 0 2 -5.5t-18.5 -11.5t-30 -11t-29.5 -5q-59 2 -84 -23.5t-51 -73.5q-33 -59 -71 -155t-86 -189.5t-108.5 -161t-140.5 -67.5q-49 0 -91 17.5t-68 66.5q-37 68 -22 109zM1206 153.5q0 49.5 21 110.5q14 45 34.5 96.5t44 103.5 t47.5 103.5t42 94.5q12 25 31.5 34t48.5 9h110q-23 -18 -39 -34t-31.5 -37.5t-32 -53t-38.5 -78.5q-23 -43 -44.5 -89t-41 -90t-33.5 -82t-18 -65q-14 -66 1 -93.5t38 -29.5q37 0 74.5 33t72.5 83t66.5 110.5t58.5 115.5q12 27 27.5 20t1.5 -38q-25 -53 -58 -117.5 t-73.5 -122t-90 -96.5t-104.5 -39q-35 0 -61.5 17.5t-40 51t-13.5 83z" />
<glyph unicode="&#x43f;&#x43c;" horiz-adv-x="1898" d="M-80 -14q74 147 140.5 290.5t142.5 282.5q39 74 67.5 102.5t77.5 26.5q20 -2 42 -7t44 -1q-23 -12 -54.5 -53t-65 -96.5t-67.5 -118t-61 -117.5q31 39 77 91t93 93q37 33 91.5 71t109.5 67.5t103 46t75 8.5q-61 -111 -112 -211q-23 -43 -44.5 -88t-40 -87t-31.5 -79 t-18 -64q-12 -63 0.5 -82.5t32.5 -19.5q25 0 50.5 17.5t50 44t48 59.5t42.5 65q16 27 32.5 21t-0.5 -37q-53 -92 -116.5 -155.5t-134.5 -63.5q-27 0 -55.5 10t-48 38t-24 74t18.5 117q12 41 41 93.5t72 121.5q18 31 20 53.5t-15.5 26.5t-54 -16.5t-96.5 -75.5 q-53 -47 -125.5 -141t-158.5 -264q-12 -23 -28.5 -27t-49.5 -4q-23 -2 -38 -2t-32 -10zM683 195q15 41 44 52t49.5 -10.5t-6.5 -78.5q-8 -16 -4 -35t15.5 -34t28.5 -24.5t36 -9.5q35 2 60 9.5t48 27.5q41 35 75 85t63.5 107.5t55.5 117t48.5 111.5t43 92t42.5 61 q16 16 32.5 24t39 11.5t52.5 3.5h75q8 0 2 -5.5t-18.5 -11.5t-30 -11t-29.5 -5q-59 2 -84 -23.5t-51 -73.5q-33 -59 -71 -155t-86 -189.5t-108.5 -161t-140.5 -67.5q-49 0 -91 17.5t-68 66.5q-37 68 -22 109zM1169 154.5q0 48.5 21 109.5q14 45 34.5 96.5t44 103.5t47 103 t42.5 95q12 25 31.5 34t48.5 9h110q-23 -18 -39 -34t-31.5 -37.5t-31.5 -53t-39 -78.5q-23 -43 -44.5 -89t-40.5 -90t-33.5 -82t-18.5 -65q-14 -66 1 -92.5t38 -30.5q43 -6 82 31t75.5 97.5t70.5 135t64.5 145t58.5 126t52 78.5q16 16 32.5 24t39 11.5t52.5 3.5h75 q8 0 2 -5.5t-18.5 -11.5t-30 -11t-29.5 -5q-59 2 -82.5 -23.5t-52.5 -73.5q-23 -39 -46.5 -97t-51 -122.5t-60.5 -129t-71.5 -115t-85 -81t-101.5 -28.5q-35 2 -61.5 19.5t-40 51t-13.5 82zM1602 153.5q0 49.5 20 110.5q14 45 34.5 96.5t44 103.5t47.5 103.5t42 94.5 q12 25 31.5 34t48.5 9h110q-23 -18 -39 -34t-31.5 -37.5t-31.5 -53t-39 -78.5q-23 -43 -44 -89t-40.5 -90t-34 -82t-18.5 -65q-14 -66 1 -93.5t38 -29.5q37 0 74.5 33t72.5 83t67 110.5t58 115.5q12 27 27.5 20t1.5 -38q-25 -53 -57.5 -117.5t-73.5 -122t-90 -96.5t-105 -39 q-35 0 -61.5 17.5t-39.5 51t-13 83z" />
<glyph unicode="&#x43f;&#x44f;" horiz-adv-x="1464" d="M-80 -14q74 147 140.5 290.5t142.5 282.5q39 74 67.5 102.5t77.5 26.5q20 -2 42 -7t44 -1q-23 -12 -54.5 -53t-65 -96.5t-67.5 -118t-61 -117.5q31 39 77 91t93 93q37 33 91.5 71t109.5 67.5t103 46t75 8.5q-61 -111 -112 -211q-23 -43 -44.5 -88t-40 -87t-31.5 -79 t-18 -64q-12 -63 0.5 -82.5t32.5 -19.5q25 0 50.5 17.5t50 44t48 59.5t42.5 65q16 27 32.5 21t-0.5 -37q-53 -92 -116.5 -155.5t-134.5 -63.5q-27 0 -55.5 10t-48 38t-24 74t18.5 117q12 41 41 93.5t72 121.5q18 31 20 53.5t-15.5 26.5t-54 -16.5t-96.5 -75.5 q-53 -47 -125.5 -141t-158.5 -264q-12 -23 -28.5 -27t-49.5 -4q-23 -2 -38 -2t-32 -10zM681 161q-1 36 12.5 57.5t34 28.5t35.5 0t20 -29.5t-13 -59.5q-8 -18 -4 -38t15.5 -36t28.5 -27.5t40 -11.5q35 -2 60.5 7t47.5 30q47 41 91.5 100.5t80.5 124.5q4 4 29 0q11 -2 27 -4 q-33 -59 -67 -115.5t-72.5 -99.5t-81.5 -69.5t-93 -26.5q-119 0 -163 84q-27 49 -28 85zM1022 407.5q-2 32.5 4 61.5q8 37 25.5 75t42 70.5t56.5 57t69 35.5q55 16 96 8t61.5 -37t19.5 -78t-32 -113q-45 -55 -74 -84q-25 -25 -37 -28.5t15 45.5t47 94t26.5 80t-6 56.5 t-51.5 23.5q-29 2 -56.5 -11.5t-47.5 -41.5q-23 -31 -48.5 -72t-37.5 -76q-8 -20 -10.5 -49t8 -52.5t40 -36.5t87.5 -5q29 4 28.5 -11.5t-41.5 -19.5q-68 -8 -106.5 7.5t-57 42t-20.5 59zM1156.5 127q-5.5 53 12.5 100q25 51 44.5 91t39 77t41 76t47.5 88q20 37 34 62.5 t27 41t28.5 21.5t39.5 4q20 -2 42 -7t44 -1q-23 -12 -54.5 -53t-65 -96.5t-67 -118t-60.5 -117.5q-14 -29 -29.5 -71t-22 -82t3 -68.5t46.5 -28.5q39 0 81 43t78.5 100.5t66.5 115.5t46 91q12 27 27.5 20t1.5 -38q-23 -47 -56.5 -112.5t-76.5 -126t-94.5 -103.5t-110.5 -43 q-25 0 -48.5 13t-43.5 42q-16 27 -21.5 80z" />
<glyph unicode="&#x440;&#x43b;" horiz-adv-x="1523" d="M-297 -545q12 12 47 70.5t80 143.5t96 185.5t95.5 196.5t76 177t41.5 128q-16 -27 -36.5 -34t-10.5 16q8 16 20.5 45t20.5 47q14 33 25.5 76t14.5 82t-3 66.5t-25 31.5q23 4 43 8q16 4 34 5t24 3q23 2 37 3.5t22 -5t11 -26t3 -56.5q0 -31 -9 -72.5t-21.5 -86.5t-26.5 -88 t-26 -76q31 39 77.5 91t94.5 93q37 33 91 71t109.5 67.5t103.5 46t74 8.5q-61 -111 -112 -211q-23 -43 -44.5 -88t-40 -87t-31.5 -79t-17 -64q-12 -63 0 -82.5t32 -19.5q23 0 47.5 15.5t49 42t48 58t42.5 64.5q16 27 31.5 15.5t-3.5 -39.5q-53 -90 -113.5 -147.5 t-129.5 -57.5q-27 0 -55.5 10t-48 38t-23.5 74t18 117q12 41 41 93.5t72 121.5q18 31 20 53.5t-15 26.5t-54 -16.5t-97 -75.5q-27 -25 -60.5 -57.5t-71.5 -80.5t-76.5 -113.5t-75.5 -153.5l-193 -478q-31 -66 -58.5 -88t-78.5 -18q-20 2 -41.5 8t-44.5 2zM703.5 195 q15.5 41 44 52t49 -10.5t-5.5 -78.5q-8 -16 -4 -35t15 -34t28.5 -24.5t35.5 -9.5q35 2 60.5 9.5t48.5 27.5q41 35 74.5 85t63.5 107.5t55.5 117t48 111.5t43 92t43.5 61q16 16 32.5 24t39 11.5t52 3.5h74.5q8 0 2 -5.5t-18 -11.5t-29.5 -11t-30.5 -5q-59 2 -83.5 -23.5 t-51.5 -73.5q-33 -59 -70.5 -155t-86 -189.5t-108.5 -161t-140 -67.5q-49 0 -91 17.5t-69 66.5q-37 68 -21.5 109zM1227 153.5q0 49.5 20 110.5q14 45 35 96.5t44.5 103.5t47 103.5t41.5 94.5q12 25 31.5 34t48.5 9h111q-23 -18 -39.5 -34t-31.5 -37.5t-31.5 -53 t-39.5 -78.5q-23 -43 -44 -89t-40.5 -90t-34 -82t-18.5 -65q-14 -66 1 -93.5t38 -29.5q37 0 75 33t72.5 83t66.5 110.5t58 115.5q12 27 27.5 20t1.5 -38q-25 -53 -57.5 -117.5t-73.5 -122t-90 -96.5t-105 -39q-35 0 -61.5 17.5t-39.5 51t-13 83z" />
<glyph unicode="&#x440;&#x43c;" horiz-adv-x="1918" d="M-297 -545q12 12 47 70.5t80 143.5t96 185.5t95.5 196.5t76 177t41.5 128q-16 -27 -36.5 -34t-10.5 16q8 16 20.5 45t20.5 47q14 33 25.5 76t14.5 82t-3 66.5t-25 31.5q23 4 43 8q16 4 34 5t24 3q23 2 37 3.5t22 -5t11 -26t3 -56.5q0 -31 -9 -72.5t-21.5 -86.5t-26.5 -88 t-26 -76q31 39 77.5 91t94.5 93q37 33 91 71t109.5 67.5t103.5 46t74 8.5q-61 -111 -112 -211q-23 -43 -44.5 -88t-40 -87t-31.5 -79t-17 -64q-12 -63 0 -82.5t32 -19.5q23 0 47.5 15.5t49 42t48 58t42.5 64.5q16 27 31.5 15.5t-3.5 -39.5q-53 -90 -113.5 -147.5 t-129.5 -57.5q-27 0 -55.5 10t-48 38t-23.5 74t18 117q12 41 41 93.5t72 121.5q18 31 20 53.5t-15 26.5t-54 -16.5t-97 -75.5q-27 -25 -60.5 -57.5t-71.5 -80.5t-76.5 -113.5t-75.5 -153.5l-193 -478q-31 -66 -58.5 -88t-78.5 -18q-20 2 -41.5 8t-44.5 2zM703.5 195 q15.5 41 44 52t49 -10.5t-5.5 -78.5q-8 -16 -4 -35t15 -34t28.5 -24.5t35.5 -9.5q35 2 60.5 9.5t48.5 27.5q41 35 74.5 85t63.5 107.5t55.5 117t48 111.5t43 92t43.5 61q16 16 32.5 24t39 11.5t52 3.5h74.5q8 0 2 -5.5t-18 -11.5t-29.5 -11t-30.5 -5q-59 2 -83.5 -23.5 t-51.5 -73.5q-33 -59 -70.5 -155t-86 -189.5t-108.5 -161t-140 -67.5q-49 0 -91 17.5t-69 66.5q-37 68 -21.5 109zM1190 154.5q0 48.5 20 109.5q14 45 35 96.5t44.5 103.5t47 103t41.5 95q12 25 32 34t48 9h111q-23 -18 -39.5 -34t-31.5 -37.5t-31.5 -53t-39.5 -78.5 q-23 -43 -44 -89t-40.5 -90t-34 -82t-18.5 -65q-14 -66 1.5 -92.5t37.5 -30.5q41 -6 81 31t77 97.5t70.5 135t64.5 145t58.5 126t52.5 78.5q16 16 32.5 24t39 11.5t52 3.5h74.5q8 0 2 -5.5t-18 -11.5t-29.5 -11t-30.5 -5q-59 2 -82.5 -23.5t-52.5 -73.5q-23 -39 -46 -97 t-51 -122.5t-60.5 -129t-71.5 -115t-85 -81t-101 -28.5q-35 2 -61.5 19.5t-40 51t-13.5 82zM1622 153.5q0 49.5 20 110.5q14 45 35 96.5t44.5 103.5t47 103.5t41.5 94.5q12 25 32 34t48 9h111q-23 -18 -39 -34t-31.5 -37.5t-32 -53t-38.5 -78.5q-23 -43 -44.5 -89t-41 -90 t-34 -82t-18.5 -65q-14 -66 1.5 -93.5t37.5 -29.5q37 0 75 33t73 83t66.5 110.5t58.5 115.5q12 27 27.5 20t0.5 -38q-25 -53 -57.5 -117.5t-73.5 -122t-90 -96.5t-104 -39q-35 0 -61.5 17.5t-40 51t-13.5 83z" />
<glyph unicode="&#x440;&#x44f;" horiz-adv-x="1484" d="M-297 -545q12 12 47 70.5t80 143.5t96 185.5t95.5 196.5t76 177t41.5 128q-16 -27 -36.5 -34t-10.5 16q8 16 20.5 45t20.5 47q14 33 25.5 76t14.5 82t-3 66.5t-25 31.5q23 4 43 8q16 4 34 5t24 3q23 2 37 3.5t22 -5t11 -26t3 -56.5q0 -31 -9 -72.5t-21.5 -86.5t-26.5 -88 t-26 -76q31 39 77.5 91t94.5 93q37 33 91 71t109.5 67.5t103.5 46t74 8.5q-61 -111 -112 -211q-23 -43 -44.5 -88t-40 -87t-31.5 -79t-17 -64q-12 -63 0 -82.5t32 -19.5q23 0 47.5 15.5t49 42t48 58t42.5 64.5q16 27 31.5 15.5t-3.5 -39.5q-53 -90 -113.5 -147.5 t-129.5 -57.5q-27 0 -55.5 10t-48 38t-23.5 74t18 117q12 41 41 93.5t72 121.5q18 31 20 53.5t-15 26.5t-54 -16.5t-97 -75.5q-27 -25 -60.5 -57.5t-71.5 -80.5t-76.5 -113.5t-75.5 -153.5l-193 -478q-31 -66 -58.5 -88t-78.5 -18q-20 2 -41.5 8t-44.5 2zM701 161 q-1 36 12.5 57.5t34 28.5t36 0t20.5 -29.5t-13 -59.5q-8 -18 -4 -38t15 -36t28.5 -27.5t39.5 -11.5q35 -2 60.5 7t48.5 30q47 41 91 100.5t81 124.5q4 4 29 0q10 -2 26 -4q-33 -59 -66.5 -115.5t-72.5 -99.5t-82 -69.5t-92 -26.5q-119 0 -164 84q-27 49 -28 85z M1042.5 407.5q-1.5 32.5 4.5 61.5q8 37 25.5 75t42 70.5t56 57t68.5 35.5q55 16 96 8t61.5 -37t19.5 -78t-32 -113q-45 -55 -73 -84q-25 -25 -37 -28.5t14 45.5q27 49 47.5 94t26.5 80t-6.5 56.5t-50.5 23.5q-29 2 -56.5 -11.5t-48.5 -41.5q-23 -31 -48.5 -72t-37.5 -76 q-8 -20 -10 -49t8 -52.5t40 -36.5t87 -5q29 4 29 -11.5t-41 -19.5q-68 -8 -107 7.5t-57.5 42t-20 59zM1176.5 127q-5.5 53 13.5 100q25 51 44 91t38.5 77t41 76t48.5 88q20 37 33.5 62.5t27 41t28.5 21.5t40 4q20 -2 41.5 -7t44.5 -1q-23 -12 -54.5 -53t-65.5 -96.5 t-67.5 -118t-60.5 -117.5q-14 -29 -29.5 -71t-21.5 -82t3 -68.5t46 -28.5q39 0 81 43t79 100.5t66.5 115.5t45.5 91q12 27 27.5 20t1.5 -38q-23 -47 -56.5 -112.5t-76.5 -126t-94 -103.5t-111 -43q-25 0 -48 13t-44 42q-16 27 -21.5 80z" />
<glyph unicode="&#x441;&#x43b;" horiz-adv-x="1349" d="M73 200.5q3 59.5 22.5 123t51 125t68.5 110.5q57 78 129 120t145 42q78 0 114 -39t28 -102q-4 -25 -19.5 -51.5t-36 -45t-43 -23.5t-38.5 11q16 20 35.5 48t27.5 56q14 53 1 77t-42 24t-57.5 -16.5t-58 -41t-56.5 -56.5t-47 -62q-14 -20 -33.5 -55t-37 -77t-30 -89.5 t-12.5 -92.5q0 -61 28 -109t93 -48q49 0 88 17t71 44t58.5 60.5t50.5 68.5q18 27 34 20.5t-1 -34.5q-25 -43 -54.5 -82t-66 -67.5t-86 -46t-114.5 -17.5q-80 0 -127 28.5t-67.5 74.5t-17.5 105.5zM529.5 195q15.5 41 44 52t49 -10.5t-6.5 -78.5q-8 -16 -4 -35t15.5 -34 t29 -24.5t35.5 -9.5q35 2 60.5 9.5t48.5 27.5q41 35 74.5 85t63.5 107.5t55.5 117t48 111.5t43 92t42.5 61q16 16 33 24t39.5 11.5t52 3.5h74.5q8 0 2 -5.5t-18.5 -11.5t-29.5 -11t-30 -5q-59 2 -83.5 -23.5t-51.5 -73.5q-33 -59 -70.5 -155t-86 -189.5t-108.5 -161 t-140 -67.5q-49 0 -91 17.5t-69 66.5q-37 68 -21.5 109zM1053 153.5q0 49.5 20 110.5q14 45 34.5 96.5t44.5 103.5t47.5 103.5t41.5 94.5q12 25 31.5 34t48.5 9h111q-23 -18 -39.5 -34t-31.5 -37.5t-31.5 -53t-39.5 -78.5q-23 -43 -44 -89t-40.5 -90t-34 -82t-18.5 -65 q-14 -66 1 -93.5t38 -29.5q37 0 75 33t72.5 83t66.5 110.5t58 115.5q12 27 27.5 20t1.5 -38q-25 -53 -57.5 -117.5t-73.5 -122t-90 -96.5t-105 -39q-35 0 -61.5 17.5t-39.5 51t-13 83z" />
<glyph unicode="&#x441;&#x43c;" horiz-adv-x="1744" d="M73 200.5q3 59.5 22.5 123t51 125t68.5 110.5q57 78 129 120t145 42q78 0 114 -39t28 -102q-4 -25 -19.5 -51.5t-36 -45t-43 -23.5t-38.5 11q16 20 35.5 48t27.5 56q14 53 1 77t-42 24t-57.5 -16.5t-58 -41t-56.5 -56.5t-47 -62q-14 -20 -33.5 -55t-37 -77t-30 -89.5 t-12.5 -92.5q0 -61 28 -109t93 -48q49 0 88 17t71 44t58.5 60.5t50.5 68.5q18 27 34 20.5t-1 -34.5q-25 -43 -54.5 -82t-66 -67.5t-86 -46t-114.5 -17.5q-80 0 -127 28.5t-67.5 74.5t-17.5 105.5zM529.5 195q15.5 41 44 52t49 -10.5t-6.5 -78.5q-8 -16 -4 -35t15.5 -34 t29 -24.5t35.5 -9.5q35 2 60.5 9.5t48.5 27.5q41 35 74.5 85t63.5 107.5t55.5 117t48 111.5t43 92t42.5 61q16 16 33 24t39.5 11.5t52 3.5h74.5q8 0 2 -5.5t-18.5 -11.5t-29.5 -11t-30 -5q-59 2 -83.5 -23.5t-51.5 -73.5q-33 -59 -70.5 -155t-86 -189.5t-108.5 -161 t-140 -67.5q-49 0 -91 17.5t-69 66.5q-37 68 -21.5 109zM1016 154.5q0 48.5 20 109.5q14 45 35 96.5t44.5 103.5t47 103t41.5 95q12 25 31.5 34t48.5 9h111q-23 -18 -39.5 -34t-31.5 -37.5t-31.5 -53t-39.5 -78.5q-23 -43 -44 -89t-40.5 -90t-34 -82t-18.5 -65 q-14 -66 1.5 -92.5t37.5 -30.5q41 -6 81 31t77 97.5t70.5 135t64.5 145t58.5 126t52.5 78.5q16 16 32.5 24t39 11.5t52 3.5h74.5q8 0 2 -5.5t-18 -11.5t-29.5 -11t-30.5 -5q-59 2 -82.5 -23.5t-52.5 -73.5q-23 -39 -46 -97t-51 -122.5t-60.5 -129t-71.5 -115t-85.5 -81 t-101.5 -28.5q-35 2 -61.5 19.5t-39.5 51t-13 82zM1448 153.5q0 49.5 20 110.5q14 45 35 96.5t44.5 103.5t47 103.5t41.5 94.5q12 25 32 34t48 9h111q-23 -18 -39 -34t-31.5 -37.5t-32 -53t-38.5 -78.5q-23 -43 -44.5 -89t-41 -90t-34 -82t-18.5 -65q-14 -66 1.5 -93.5 t37.5 -29.5q37 0 75 33t72.5 83t66.5 110.5t59 115.5q12 27 27.5 20t0.5 -38q-25 -53 -57.5 -117.5t-73.5 -122t-90 -96.5t-104 -39q-35 0 -61.5 17.5t-40 51t-13.5 83z" />
<glyph unicode="&#x441;&#x44f;" horiz-adv-x="1310" d="M73 200.5q3 59.5 22.5 123t51 125t68.5 110.5q57 78 129 120t145 42q78 0 114 -39t28 -102q-4 -25 -19.5 -51.5t-36 -45t-43 -23.5t-38.5 11q16 20 35.5 48t27.5 56q14 53 1 77t-42 24t-57.5 -16.5t-58 -41t-56.5 -56.5t-47 -62q-14 -20 -33.5 -55t-37 -77t-30 -89.5 t-12.5 -92.5q0 -61 28 -109t93 -48q49 0 88 17t71 44t58.5 60.5t50.5 68.5q18 27 34 20.5t-1 -34.5q-25 -43 -54.5 -82t-66 -67.5t-86 -46t-114.5 -17.5q-80 0 -127 28.5t-67.5 74.5t-17.5 105.5zM527 161q-1 36 12.5 57.5t34 28.5t36 0t20.5 -29.5t-14 -59.5q-8 -18 -4 -38 t15.5 -36t29 -27.5t39.5 -11.5q35 -2 60.5 7t48.5 30q47 41 91 100.5t81 124.5q4 4 29 0q10 -2 26 -4q-33 -59 -66.5 -115.5t-72.5 -99.5t-82 -69.5t-92 -26.5q-119 0 -164 84q-27 49 -28 85zM868 407.5q-2 32.5 4 61.5q8 37 25.5 75t42.5 70.5t56.5 57t68.5 35.5 q55 16 96 8t61.5 -37t19.5 -78t-32 -113q-45 -55 -73 -84q-25 -25 -37.5 -28.5t14.5 45.5t47.5 94t26.5 80t-6.5 56.5t-51.5 23.5q-29 2 -56 -11.5t-48 -41.5q-23 -31 -48.5 -72t-37.5 -76q-8 -20 -10 -49t8 -52.5t40 -36.5t87 -5q29 4 29 -11.5t-41 -19.5q-68 -8 -107 7.5 t-57.5 42t-20.5 59zM1002.5 127q-5.5 53 13.5 100q25 51 44 91t38.5 77t41 76t48.5 88q20 37 33.5 62.5t27 41t28.5 21.5t40 4q20 -2 41.5 -7t44.5 -1q-23 -12 -54.5 -53t-65.5 -96.5t-67.5 -118t-60.5 -117.5q-14 -29 -29.5 -71t-21.5 -82t3 -68.5t46 -28.5q39 0 81 43 t79 100.5t66.5 115.5t45.5 91q12 27 27.5 20t1.5 -38q-23 -47 -56.5 -112.5t-76.5 -126t-94 -103.5t-111 -43q-25 0 -48.5 13t-43.5 42q-16 27 -21.5 80z" />
<glyph unicode="&#x442;&#x43b;" horiz-adv-x="1855" d="M-76 -10q74 147 138.5 288.5t140.5 280.5q39 74 67.5 102.5t77.5 26.5q20 -2 42 -7t44 -1q-23 -12 -54.5 -53t-65 -96.5t-67.5 -118t-61 -117.5q31 39 77 91t93 93q37 33 79 71t82 67.5t76 46t62 8.5q29 -10 37 -35t-6 -55q-29 -66 -71 -138.5t-78 -148.5q31 39 76.5 91 t93.5 93q37 33 91 71t109.5 67.5t104 46t73.5 8.5q-61 -111 -112 -211q-23 -43 -43.5 -88t-39 -87t-31.5 -79t-19 -64q-10 -63 2 -82.5t32 -19.5q43 0 94.5 53t98.5 133q16 27 29.5 16.5t-2.5 -38.5q-53 -94 -118 -153.5t-130 -59.5q-29 0 -57.5 10t-48 38t-23.5 74t18 117 q12 41 41 93.5t72 121.5q18 31 20 53.5t-15 26.5t-54 -16.5t-97 -75.5q-33 -31 -78.5 -85t-88.5 -116.5t-77 -125t-44 -107.5q-35 0 -54.5 34t-11.5 79q10 68 35 122t51 111q25 51 45.5 100.5t19.5 72t-34 7t-113 -91.5q-53 -47 -123.5 -139t-158.5 -260q-10 -23 -26.5 -28 t-51.5 -5q-23 -2 -37 -2t-31 -10zM379 784q35 45 97.5 89.5t148.5 39.5q39 -2 76.5 -10t75.5 -19.5t74 -20.5t73 -11q51 -4 83.5 13.5t55.5 45.5q0 2 9 3t18.5 1t16.5 -2t5 -4q-16 -25 -39.5 -50t-54.5 -45.5t-69 -33t-81 -10.5q-41 2 -78.5 12.5t-74.5 21.5t-74 20.5 t-74 11.5q-47 4 -78.5 -13.5t-50.5 -42.5q-2 -4 -12 -5t-20.5 0t-18.5 3t-8 6zM1035.5 195q15.5 41 44 52t49 -10.5t-6.5 -78.5q-8 -16 -4 -35t15.5 -34t29 -24.5t35.5 -9.5q35 2 60.5 9.5t48.5 27.5q41 35 74.5 85t63.5 107.5t55.5 117t48 111.5t43 92t42.5 61 q16 16 32.5 24t39.5 11.5t52.5 3.5h74.5q8 0 2 -5.5t-18.5 -11.5t-30 -11t-29.5 -5q-59 2 -83.5 -23.5t-51.5 -73.5q-33 -59 -71 -155t-86 -189.5t-108.5 -161t-139.5 -67.5q-49 0 -91.5 17.5t-68.5 66.5q-37 68 -21.5 109zM1559 153.5q0 49.5 20 110.5q14 45 34.5 96.5 t44 103.5t47.5 103.5t42 94.5q12 25 31.5 34t48.5 9h110q-23 -18 -39 -34t-31.5 -37.5t-31.5 -53t-39 -78.5q-23 -43 -44 -89t-40.5 -90t-34 -82t-18.5 -65q-14 -66 1 -93.5t38 -29.5q37 0 74.5 33t72.5 83t67 110.5t58 115.5q12 27 27.5 20t1.5 -38q-25 -53 -57.5 -117.5 t-73.5 -122t-90 -96.5t-105 -39q-35 0 -61.5 17.5t-39.5 51t-13 83z" />
<glyph unicode="&#x442;&#x43c;" horiz-adv-x="2250" d="M-76 -10q74 147 138.5 288.5t140.5 280.5q39 74 67.5 102.5t77.5 26.5q20 -2 42 -7t44 -1q-23 -12 -54.5 -53t-65 -96.5t-67.5 -118t-61 -117.5q31 39 77 91t93 93q37 33 79 71t82 67.5t76 46t62 8.5q29 -10 37 -35t-6 -55q-29 -66 -71 -138.5t-78 -148.5q31 39 76.5 91 t93.5 93q37 33 91 71t109.5 67.5t104 46t73.5 8.5q-61 -111 -112 -211q-23 -43 -43.5 -88t-39 -87t-31.5 -79t-19 -64q-10 -63 2 -82.5t32 -19.5q43 0 94.5 53t98.5 133q16 27 29.5 16.5t-2.5 -38.5q-53 -94 -118 -153.5t-130 -59.5q-29 0 -57.5 10t-48 38t-23.5 74t18 117 q12 41 41 93.5t72 121.5q18 31 20 53.5t-15 26.5t-54 -16.5t-97 -75.5q-33 -31 -78.5 -85t-88.5 -116.5t-77 -125t-44 -107.5q-35 0 -54.5 34t-11.5 79q10 68 35 122t51 111q25 51 45.5 100.5t19.5 72t-34 7t-113 -91.5q-53 -47 -123.5 -139t-158.5 -260q-10 -23 -26.5 -28 t-51.5 -5q-23 -2 -37 -2t-31 -10zM379 784q35 45 97.5 89.5t148.5 39.5q39 -2 76.5 -10t75.5 -19.5t74 -20.5t73 -11q51 -4 83.5 13.5t55.5 45.5q0 2 9 3t18.5 1t16.5 -2t5 -4q-16 -25 -39.5 -50t-54.5 -45.5t-69 -33t-81 -10.5q-41 2 -78.5 12.5t-74.5 21.5t-74 20.5 t-74 11.5q-47 4 -78.5 -13.5t-50.5 -42.5q-2 -4 -12 -5t-20.5 0t-18.5 3t-8 6zM1035.5 195q15.5 41 44 52t49 -10.5t-6.5 -78.5q-8 -16 -4 -35t15.5 -34t29 -24.5t35.5 -9.5q35 2 60.5 9.5t48.5 27.5q41 35 74.5 85t63.5 107.5t55.5 117t48 111.5t43 92t42.5 61 q16 16 32.5 24t39.5 11.5t52.5 3.5h74.5q8 0 2 -5.5t-18.5 -11.5t-30 -11t-29.5 -5q-59 2 -83.5 -23.5t-51.5 -73.5q-33 -59 -71 -155t-86 -189.5t-108.5 -161t-139.5 -67.5q-49 0 -91.5 17.5t-68.5 66.5q-37 68 -21.5 109zM1522 154.5q0 48.5 20 109.5q14 45 34.5 96.5 t44.5 103.5t47.5 103t41.5 95q12 25 31.5 34t48.5 9h111q-23 -18 -39.5 -34t-31.5 -37.5t-31.5 -53t-39.5 -78.5q-23 -43 -44 -89t-40.5 -90t-34 -82t-18.5 -65q-14 -66 1 -92.5t38 -30.5q41 -6 81 31t76.5 97.5t70.5 135t65 145t58.5 126t51.5 78.5q16 16 33 24t39.5 11.5 t52 3.5h74.5q8 0 2 -5.5t-18.5 -11.5t-29.5 -11t-30 -5q-59 2 -82.5 -23.5t-52.5 -73.5q-23 -39 -46.5 -97t-51 -122.5t-60 -129t-71.5 -115t-85.5 -81t-101.5 -28.5q-35 2 -61.5 19.5t-39.5 51t-13 82zM1954 153.5q0 49.5 20 110.5q14 45 35 96.5t44.5 103.5t47 103.5 t41.5 94.5q12 25 31.5 34t48.5 9h111q-23 -18 -39.5 -34t-31.5 -37.5t-31.5 -53t-39.5 -78.5q-23 -43 -44 -89t-40.5 -90t-34 -82t-18.5 -65q-14 -66 1.5 -93.5t37.5 -29.5q37 0 75 33t72.5 83t66.5 110.5t58 115.5q12 27 27.5 20t1.5 -38q-25 -53 -57.5 -117.5t-73.5 -122 t-90 -96.5t-105 -39q-35 0 -61.5 17.5t-39.5 51t-13 83z" />
<glyph unicode="&#x442;&#x44f;" horiz-adv-x="1818" d="M-76 -10q74 147 138.5 288.5t140.5 280.5q39 74 67.5 102.5t77.5 26.5q20 -2 42 -7t44 -1q-23 -12 -54.5 -53t-65 -96.5t-67.5 -118t-61 -117.5q31 39 77 91t93 93q37 33 79 71t82 67.5t76 46t62 8.5q29 -10 37 -35t-6 -55q-29 -66 -71 -138.5t-78 -148.5q31 39 76.5 91 t93.5 93q37 33 91 71t109.5 67.5t104 46t73.5 8.5q-61 -111 -112 -211q-23 -43 -43.5 -88t-39 -87t-31.5 -79t-19 -64q-10 -63 2 -82.5t32 -19.5q43 0 94.5 53t98.5 133q16 27 29.5 16.5t-2.5 -38.5q-53 -94 -118 -153.5t-130 -59.5q-29 0 -57.5 10t-48 38t-23.5 74t18 117 q12 41 41 93.5t72 121.5q18 31 20 53.5t-15 26.5t-54 -16.5t-97 -75.5q-33 -31 -78.5 -85t-88.5 -116.5t-77 -125t-44 -107.5q-35 0 -54.5 34t-11.5 79q10 68 35 122t51 111q25 51 45.5 100.5t19.5 72t-34 7t-113 -91.5q-53 -47 -123.5 -139t-158.5 -260q-10 -23 -26.5 -28 t-51.5 -5q-23 -2 -37 -2t-31 -10zM1035 161q-1 36 12.5 57.5t34 28.5t36 0t20.5 -29.5t-14 -59.5q-8 -18 -4 -38t15.5 -36t29 -27.5t39.5 -11.5q35 -2 60.5 7t48.5 30q47 41 91 100.5t81 124.5q4 4 28 0q11 -2 27 -4q-33 -59 -66.5 -115.5t-72.5 -99.5t-82 -69.5t-92 -26.5 q-119 0 -164 84q-27 49 -28 85zM1376 407.5q-2 32.5 4 61.5q8 37 25.5 75t42.5 70.5t56.5 57t68.5 35.5q55 16 96 8t61.5 -37t19.5 -78t-32 -113q-45 -55 -73 -84q-25 -25 -37.5 -28.5t14.5 45.5t47.5 94t26.5 80t-6.5 56.5t-51.5 23.5q-29 2 -56.5 -11.5t-47.5 -41.5 q-23 -31 -48.5 -72t-37.5 -76q-8 -20 -10 -49t8 -52.5t40 -36.5t87 -5q29 4 29 -11.5t-41 -19.5q-68 -8 -107 7.5t-57.5 42t-20.5 59zM1510.5 127q-5.5 53 13.5 100q25 51 44 91t38.5 77t41 76t48.5 88q20 37 33.5 62.5t26.5 41t28.5 21.5t40.5 4q20 -2 41.5 -7t44.5 -1 q-23 -12 -54.5 -53t-65.5 -96.5t-67.5 -118t-60.5 -117.5q-14 -29 -29.5 -71t-21.5 -82t3 -68.5t46 -28.5q39 0 81 43t79 100.5t66.5 115.5t45.5 91q12 27 27.5 20t1.5 -38q-23 -47 -56.5 -112.5t-76.5 -126t-94.5 -103.5t-110.5 -43q-25 0 -48.5 13t-43.5 42 q-16 27 -21.5 80z" />
<glyph unicode="&#x443;&#x43b;" horiz-adv-x="1634" d="M-354 -484q6 44 28 87q29 57 81 98t112 70q104 49 238.5 80.5t259.5 66.5q29 51 55 114.5t49 127t41 121t31 98.5q-27 -47 -64 -111.5t-83 -123t-100 -100.5t-114 -42q-16 0 -35.5 3t-38 13.5t-34 29t-21.5 46.5q-6 33 -2 63.5t15.5 60.5t26.5 57.5t30 56.5 q-10 0 -19.5 6t0.5 27q10 16 18.5 34.5t18.5 36.5q31 59 61.5 118.5t53.5 107.5q12 25 31.5 34t48.5 9h125q-14 -12 -36 -26.5t-40 -47.5q-53 -90 -97 -180.5t-87 -182.5q-37 -80 -41 -133t15.5 -74.5t58 -6t87.5 72.5q43 49 88.5 116.5t87.5 140.5t79.5 144.5t66.5 133.5 q12 25 31.5 34t48.5 9h110q-29 -20 -50 -46t-39.5 -59t-35 -75t-34.5 -93q-39 -104 -79 -225t-85 -244q123 39 203 104.5t129 155.5q16 27 33.5 20t0.5 -36q-43 -78 -90 -128t-97 -83t-103.5 -54.5t-110.5 -43.5q-49 -86 -111.5 -182.5t-140.5 -177.5t-174 -133t-209 -52 q-78 0 -121 22.5t-60 59.5t-11 81zM-298 -474q-17 -54 3.5 -93t85.5 -39q68 0 139.5 42t138 101.5t123 125t91.5 114.5q10 16 21.5 36t23.5 40q-49 -12 -105.5 -26.5t-114 -31t-110.5 -34t-96 -35.5q-78 -35 -130.5 -90.5t-69.5 -109.5zM814 195q15 41 44 52t49.5 -10.5 t-6.5 -78.5q-8 -16 -4 -35t15.5 -34t28.5 -24.5t36 -9.5q35 2 60 9.5t48 27.5q41 35 75 85t63.5 107.5t55.5 117t48.5 111.5t43 92t42.5 61q16 16 32.5 24t39 11.5t52.5 3.5h75q8 0 2 -5.5t-18.5 -11.5t-30 -11t-29.5 -5q-59 2 -84 -23.5t-51 -73.5q-33 -59 -71 -155 t-86 -189.5t-108.5 -161t-140.5 -67.5q-49 0 -91 17.5t-68 66.5q-37 68 -22 109zM1337 153.5q0 49.5 21 110.5q14 45 34.5 96.5t44 103.5t47.5 103.5t42 94.5q12 25 31.5 34t48.5 9h110q-23 -18 -39 -34t-31.5 -37.5t-32 -53t-38.5 -78.5q-23 -43 -44.5 -89t-41 -90 t-33.5 -82t-18 -65q-14 -66 1 -93.5t38 -29.5q37 0 74.5 33t72.5 83t66.5 110.5t58.5 115.5q12 27 27.5 20t1.5 -38q-25 -53 -57.5 -117.5t-73.5 -122t-90.5 -96.5t-104.5 -39q-35 0 -61.5 17.5t-40 51t-13.5 83z" />
<glyph unicode="&#x443;&#x43c;" horiz-adv-x="2029" d="M-354 -484q6 44 28 87q29 57 81 98t112 70q104 49 238.5 80.5t259.5 66.5q29 51 55 114.5t49 127t41 121t31 98.5q-27 -47 -64 -111.5t-83 -123t-100 -100.5t-114 -42q-16 0 -35.5 3t-38 13.5t-34 29t-21.5 46.5q-6 33 -2 63.5t15.5 60.5t26.5 57.5t30 56.5 q-10 0 -19.5 6t0.5 27q10 16 18.5 34.5t18.5 36.5q31 59 61.5 118.5t53.5 107.5q12 25 31.5 34t48.5 9h125q-14 -12 -36 -26.5t-40 -47.5q-53 -90 -97 -180.5t-87 -182.5q-37 -80 -41 -133t15.5 -74.5t58 -6t87.5 72.5q43 49 88.5 116.5t87.5 140.5t79.5 144.5t66.5 133.5 q12 25 31.5 34t48.5 9h110q-29 -20 -50 -46t-39.5 -59t-35 -75t-34.5 -93q-39 -104 -79 -225t-85 -244q123 39 203 104.5t129 155.5q16 27 33.5 20t0.5 -36q-43 -78 -90 -128t-97 -83t-103.5 -54.5t-110.5 -43.5q-49 -86 -111.5 -182.5t-140.5 -177.5t-174 -133t-209 -52 q-78 0 -121 22.5t-60 59.5t-11 81zM-298 -474q-17 -54 3.5 -93t85.5 -39q68 0 139.5 42t138 101.5t123 125t91.5 114.5q10 16 21.5 36t23.5 40q-49 -12 -105.5 -26.5t-114 -31t-110.5 -34t-96 -35.5q-78 -35 -130.5 -90.5t-69.5 -109.5zM814 195q15 41 44 52t49.5 -10.5 t-6.5 -78.5q-8 -16 -4 -35t15.5 -34t28.5 -24.5t36 -9.5q35 2 60 9.5t48 27.5q41 35 75 85t63.5 107.5t55.5 117t48.5 111.5t43 92t42.5 61q16 16 32.5 24t39 11.5t52.5 3.5h75q8 0 2 -5.5t-18.5 -11.5t-30 -11t-29.5 -5q-59 2 -84 -23.5t-51 -73.5q-33 -59 -71 -155 t-86 -189.5t-108.5 -161t-140.5 -67.5q-49 0 -91 17.5t-68 66.5q-37 68 -22 109zM1300 154.5q0 48.5 21 109.5q14 45 34.5 96.5t44 103.5t47 103t42.5 95q12 25 31.5 34t48.5 9h110q-23 -18 -39 -34t-31.5 -37.5t-31.5 -53t-39 -78.5q-23 -43 -44 -89t-40.5 -90t-34 -82 t-18.5 -65q-14 -66 1 -92.5t38 -30.5q41 -6 81 31t76.5 97.5t70.5 135t64.5 145t58.5 126t52 78.5q16 16 32.5 24t39 11.5t52.5 3.5h75q8 0 2 -5.5t-18.5 -11.5t-30 -11t-29.5 -5q-59 2 -82.5 -23.5t-52.5 -73.5q-23 -39 -46.5 -97t-51 -122.5t-60.5 -129t-71.5 -115 t-85 -81t-101.5 -28.5q-35 2 -61.5 19.5t-40 51t-13.5 82zM1733 153.5q0 49.5 20 110.5q14 45 34.5 96.5t44 103.5t47.5 103.5t42 94.5q12 25 31.5 34t48.5 9h110q-23 -18 -39 -34t-31.5 -37.5t-31.5 -53t-39 -78.5q-23 -43 -44 -89t-40.5 -90t-34 -82t-18.5 -65 q-14 -66 1 -93.5t38 -29.5q37 0 75 33t72.5 83t66.5 110.5t58 115.5q12 27 27.5 20t1.5 -38q-25 -53 -57.5 -117.5t-73.5 -122t-90 -96.5t-105 -39q-35 0 -61.5 17.5t-39.5 51t-13 83z" />
<glyph unicode="&#x443;&#x44f;" horiz-adv-x="1597" d="M-354 -484q6 44 28 87q29 57 81 98t112 70q104 49 238.5 80.5t259.5 66.5q29 51 55 114.5t49 127t41 121t31 98.5q-27 -47 -64 -111.5t-83 -123t-100 -100.5t-114 -42q-16 0 -35.5 3t-38 13.5t-34 29t-21.5 46.5q-6 33 -2 63.5t15.5 60.5t26.5 57.5t30 56.5 q-10 0 -19.5 6t0.5 27q10 16 18.5 34.5t18.5 36.5q31 59 61.5 118.5t53.5 107.5q12 25 31.5 34t48.5 9h125q-14 -12 -36 -26.5t-40 -47.5q-53 -90 -97 -180.5t-87 -182.5q-37 -80 -41 -133t15.5 -74.5t58 -6t87.5 72.5q43 49 88.5 116.5t87.5 140.5t79.5 144.5t66.5 133.5 q12 25 31.5 34t48.5 9h110q-29 -20 -50 -46t-39.5 -59t-35 -75t-34.5 -93q-39 -104 -79 -225t-85 -244q123 39 203 104.5t129 155.5q16 27 33.5 20t0.5 -36q-43 -78 -90 -128t-97 -83t-103.5 -54.5t-110.5 -43.5q-49 -86 -111.5 -182.5t-140.5 -177.5t-174 -133t-209 -52 q-78 0 -121 22.5t-60 59.5t-11 81zM-298 -474q-17 -54 3.5 -93t85.5 -39q68 0 139.5 42t138 101.5t123 125t91.5 114.5q10 16 21.5 36t23.5 40q-49 -12 -105.5 -26.5t-114 -31t-110.5 -34t-96 -35.5q-78 -35 -130.5 -90.5t-69.5 -109.5zM814 161q-1 36 12.5 57.5t34 28.5 t35.5 0t20.5 -29.5t-13.5 -59.5q-8 -18 -4 -38t15.5 -36t29 -27.5t39.5 -11.5q35 -2 60.5 7t48.5 30q47 41 91 100.5t81 124.5q4 4 28 0q11 -2 27 -4q-33 -59 -66.5 -115.5t-72.5 -99.5t-82 -69.5t-92 -26.5q-119 0 -164 84q-27 49 -28 85zM1155 407.5q-2 32.5 4 61.5 q8 37 25.5 75t42 70.5t56.5 57t69 35.5q55 16 96 8t61.5 -37t19.5 -78t-32 -113q-45 -55 -74 -84q-25 -25 -37 -28.5t15 45.5t47 94t26.5 80t-6 56.5t-51.5 23.5q-29 2 -56.5 -11.5t-47.5 -41.5q-23 -31 -48.5 -72t-37.5 -76q-8 -20 -10.5 -49t8 -52.5t40 -36.5t87.5 -5 q29 4 28.5 -11.5t-41.5 -19.5q-68 -8 -106.5 7.5t-57 42t-20.5 59zM1289.5 127q-5.5 53 13.5 100q25 51 44 91t38.5 77t41 76t48.5 88q20 37 33.5 62.5t26.5 41t28.5 21.5t40.5 4q20 -2 41.5 -7t44.5 -1q-23 -12 -54.5 -53t-65.5 -96.5t-67.5 -118t-60.5 -117.5 q-14 -29 -29.5 -71t-22 -82t3 -68.5t46.5 -28.5q39 0 81 43t78.5 100.5t66.5 115.5t46 91q12 27 27.5 20t1.5 -38q-23 -47 -56.5 -112.5t-76.5 -126t-94.5 -103.5t-110.5 -43q-25 0 -48.5 13t-43.5 42q-16 27 -21.5 80z" />
<glyph unicode="&#x445;&#x43b;" horiz-adv-x="1499" d="M-67.5 -24.5q1.5 8.5 8 14.5t15.5 8t15 -6q35 -31 105 0q31 14 69.5 56t76.5 101.5t72 129t56 141.5q8 41 14.5 79t4.5 76q0 25 -10.5 40.5t-28 15.5t-42 -19.5t-52.5 -66.5q-10 -16 -28 -48t-36 -69t-36.5 -69.5t-26.5 -49.5q-14 -25 -24.5 -15.5t5.5 42.5 q14 31 35.5 75t46.5 89t49.5 83t44.5 56q29 23 57.5 37t57.5 10q41 -4 62.5 -28.5t28.5 -61.5t3 -81t-12 -87q27 51 59.5 101.5t66.5 91.5t64.5 68.5t53.5 33.5q16 4 32.5 3t28.5 -9t18.5 -21.5t1.5 -33.5q-6 -29 -29 -47.5t-52 -18.5q-41 0 -52 35q-31 -29 -63.5 -70 t-62 -88t-54 -98t-41.5 -101q-16 -90 0.5 -152.5t54.5 -70.5q57 -12 109.5 32t112.5 144q8 14 17 17.5t15.5 0.5t7.5 -11.5t-6 -18.5q-53 -96 -118.5 -155.5t-153.5 -59.5q-39 0 -67.5 18.5t-47 48t-27.5 64.5t-7 70v20t2 21q-53 -102 -117 -183.5t-119 -107.5 q-37 -18 -80 -20.5t-73 28.5q-6 8 -4.5 16.5zM678.5 195q15.5 41 44.5 52t49.5 -10.5t-6.5 -78.5q-8 -16 -4 -35t15 -34t28.5 -24.5t36.5 -9.5q35 2 60 9.5t48 27.5q41 35 75 85t63.5 107.5t55 117t48 111.5t43 92t43.5 61q16 16 32.5 24t39 11.5t52.5 3.5h75q8 0 2 -5.5 t-18.5 -11.5t-30 -11t-29.5 -5q-59 2 -84 -23.5t-51 -73.5q-33 -59 -71 -155t-86 -189.5t-108.5 -161t-140.5 -67.5q-49 0 -91 17.5t-69 66.5q-37 68 -21.5 109zM1202 153.5q0 49.5 21 110.5q14 45 34.5 96.5t44 103.5t47.5 103.5t42 94.5q12 25 31.5 34t47.5 9h111 q-23 -18 -39 -34t-31.5 -37.5t-32 -53t-38.5 -78.5q-23 -43 -44.5 -89t-41 -90t-33.5 -82t-18 -65q-14 -66 1 -93.5t37 -29.5q37 0 75 33t73 83t66.5 110.5t58.5 115.5q12 27 27.5 20t0.5 -38q-25 -53 -57.5 -117.5t-73.5 -122t-90 -96.5t-104 -39q-35 0 -61.5 17.5t-40 51 t-13.5 83z" />
<glyph unicode="&#x445;&#x43c;" horiz-adv-x="1894" d="M-67.5 -24.5q1.5 8.5 8 14.5t15.5 8t15 -6q35 -31 105 0q31 14 69.5 56t76.5 101.5t72 129t56 141.5q8 41 14.5 79t4.5 76q0 25 -10.5 40.5t-28 15.5t-42 -19.5t-52.5 -66.5q-10 -16 -28 -48t-36 -69t-36.5 -69.5t-26.5 -49.5q-14 -25 -24.5 -15.5t5.5 42.5 q14 31 35.5 75t46.5 89t49.5 83t44.5 56q29 23 57.5 37t57.5 10q41 -4 62.5 -28.5t28.5 -61.5t3 -81t-12 -87q27 51 59.5 101.5t66.5 91.5t64.5 68.5t53.5 33.5q16 4 32.5 3t28.5 -9t18.5 -21.5t1.5 -33.5q-6 -29 -29 -47.5t-52 -18.5q-41 0 -52 35q-31 -29 -63.5 -70 t-62 -88t-54 -98t-41.5 -101q-16 -90 0.5 -152.5t54.5 -70.5q57 -12 109.5 32t112.5 144q8 14 17 17.5t15.5 0.5t7.5 -11.5t-6 -18.5q-53 -96 -118.5 -155.5t-153.5 -59.5q-39 0 -67.5 18.5t-47 48t-27.5 64.5t-7 70v20t2 21q-53 -102 -117 -183.5t-119 -107.5 q-37 -18 -80 -20.5t-73 28.5q-6 8 -4.5 16.5zM678.5 195q15.5 41 44.5 52t49.5 -10.5t-6.5 -78.5q-8 -16 -4 -35t15 -34t28.5 -24.5t36.5 -9.5q35 2 60 9.5t48 27.5q41 35 75 85t63.5 107.5t55 117t48 111.5t43 92t43.5 61q16 16 32.5 24t39 11.5t52.5 3.5h75q8 0 2 -5.5 t-18.5 -11.5t-30 -11t-29.5 -5q-59 2 -84 -23.5t-51 -73.5q-33 -59 -71 -155t-86 -189.5t-108.5 -161t-140.5 -67.5q-49 0 -91 17.5t-69 66.5q-37 68 -21.5 109zM1165 154.5q0 48.5 21 109.5q14 45 34.5 96.5t44 103.5t47 103t42.5 95q12 25 31.5 34t48.5 9h110 q-23 -18 -39 -34t-31.5 -37.5t-32 -53t-38.5 -78.5q-23 -43 -44.5 -89t-41 -90t-33.5 -82t-18 -65q-14 -66 1 -92.5t38 -30.5q41 -6 80.5 31t76.5 97.5t71 135t64.5 145t58 126t52.5 78.5q16 16 32.5 24t39 11.5t52.5 3.5h75q8 0 2 -5.5t-18.5 -11.5t-30 -11t-29.5 -5 q-59 2 -83 -23.5t-52 -73.5q-23 -39 -46.5 -97t-51 -122.5t-60.5 -129t-72 -115t-85 -81t-101 -28.5q-35 2 -61.5 19.5t-40 51t-13.5 82zM1597 153.5q0 49.5 21 110.5q14 45 34.5 96.5t44 103.5t47.5 103.5t42 94.5q12 25 31.5 34t48.5 9h110q-23 -18 -39 -34t-31.5 -37.5 t-31.5 -53t-39 -78.5q-23 -43 -44.5 -89t-40.5 -90t-33.5 -82t-18.5 -65q-14 -66 1 -93.5t38 -29.5q37 0 74.5 33t72.5 83t66.5 110.5t58.5 115.5q12 27 27.5 20t1.5 -38q-25 -53 -57.5 -117.5t-73.5 -122t-90.5 -96.5t-104.5 -39q-35 0 -61.5 17.5t-40 51t-13.5 83z" />
<glyph unicode="&#x445;&#x44f;" horiz-adv-x="1460" d="M-67.5 -24.5q1.5 8.5 8 14.5t15.5 8t15 -6q35 -31 105 0q31 14 69.5 56t76.5 101.5t72 129t56 141.5q8 41 14.5 79t4.5 76q0 25 -10.5 40.5t-28 15.5t-42 -19.5t-52.5 -66.5q-10 -16 -28 -48t-36 -69t-36.5 -69.5t-26.5 -49.5q-14 -25 -24.5 -15.5t5.5 42.5 q14 31 35.5 75t46.5 89t49.5 83t44.5 56q29 23 57.5 37t57.5 10q41 -4 62.5 -28.5t28.5 -61.5t3 -81t-12 -87q27 51 59.5 101.5t66.5 91.5t64.5 68.5t53.5 33.5q16 4 32.5 3t28.5 -9t18.5 -21.5t1.5 -33.5q-6 -29 -29 -47.5t-52 -18.5q-41 0 -52 35q-31 -29 -63.5 -70 t-62 -88t-54 -98t-41.5 -101q-16 -90 0.5 -152.5t54.5 -70.5q57 -12 109.5 32t112.5 144q8 14 17 17.5t15.5 0.5t7.5 -11.5t-6 -18.5q-53 -96 -118.5 -155.5t-153.5 -59.5q-39 0 -67.5 18.5t-47 48t-27.5 64.5t-7 70v20t2 21q-53 -102 -117 -183.5t-119 -107.5 q-37 -18 -80 -20.5t-73 28.5q-6 8 -4.5 16.5zM677 161q-1 36 12 57.5t33.5 28.5t36 0t20.5 -29.5t-13 -59.5q-8 -18 -4 -38t15 -36t28.5 -27.5t40.5 -11.5q35 -2 60.5 7t47.5 30q47 41 91.5 100.5t80.5 124.5q4 4 29 0q11 -2 27 -4q-33 -59 -67 -115.5t-72.5 -99.5 t-81.5 -69.5t-93 -26.5q-119 0 -163 84q-27 49 -28 85zM1018 407.5q-2 32.5 4 61.5q8 37 25.5 75t42 70.5t56.5 57t68 35.5q55 16 96.5 8t62 -37t19.5 -78t-32 -113q-45 -55 -74 -84q-25 -25 -37 -28.5t15 45.5t47 94t26 80t-6 56.5t-51 23.5q-29 2 -56.5 -11.5t-47.5 -41.5 q-23 -31 -48.5 -72t-37.5 -76q-8 -20 -10.5 -49t8 -52.5t40 -36.5t86.5 -5q29 4 29 -11.5t-41 -19.5q-68 -8 -106.5 7.5t-57 42t-20.5 59zM1152.5 127q-5.5 53 12.5 100q25 51 44.5 91t39 77t41 76t47.5 88q20 37 33.5 62.5t27 41t29 21.5t39.5 4q20 -2 42 -7t44 -1 q-23 -12 -54.5 -53t-65 -96.5t-67 -118t-60.5 -117.5q-14 -29 -29.5 -71t-22 -82t3 -68.5t46.5 -28.5q39 0 80.5 43t78.5 100.5t67 115.5t46 91q12 27 27.5 20t1.5 -38q-23 -47 -57 -112.5t-77 -126t-94 -103.5t-110 -43q-25 0 -48.5 13t-43.5 42q-16 27 -21.5 80z" />
<glyph unicode="&#x446;&#x43b;" horiz-adv-x="1548" d="M49 157.5q4 30.5 15.5 60.5t26.5 57.5t30 56.5q-10 0 -19.5 6t0.5 27q10 16 18.5 34.5t18.5 36.5q31 59 61.5 118.5t53.5 107.5q12 25 31.5 34t48.5 9h125q-18 -12 -32.5 -25.5t-30 -32t-32 -45.5t-36.5 -70q-29 -53 -52 -102q-23 -43 -43 -88t-34 -74q-37 -80 -41 -133 t15.5 -74.5t58 -6t87.5 72.5q43 49 85 116.5t81 140.5t75 144.5t65 133.5q12 25 31.5 34t48.5 9h110q-23 -18 -39 -34t-31.5 -37.5t-32 -53t-38.5 -78.5q-23 -43 -44.5 -89t-41 -90t-33.5 -82t-18 -65q-14 -66 1 -93.5t37 -29.5q47 0 93.5 48.5t93.5 127.5q16 25 31.5 18 t-0.5 -36q-23 -39 -49.5 -76t-56.5 -66.5t-64.5 -48t-71.5 -18.5q-35 0 -61.5 17.5t-40 51t-13.5 83t21 110.5q-27 -47 -58.5 -93t-67.5 -84t-75 -61.5t-76 -23.5q-16 0 -35.5 3t-38 13.5t-34 29t-21.5 46.5q-6 33 -2 63.5zM299 -336q2 47 40 108.5t91 119t109.5 102.5 t93.5 61h11t1 -20q-41 -33 -83 -76t-77.5 -88t-58.5 -90t-25 -80q0 -29 12.5 -48.5t47.5 -19.5q29 0 56.5 20.5t47.5 41.5q4 4 14.5 5t6.5 -13q-4 -16 -19.5 -36t-42 -37t-60.5 -29.5t-73 -12.5t-66.5 22.5t-25.5 69.5zM728 195q15 41 44 52t49.5 -10.5t-6.5 -78.5 q-8 -16 -4 -35t15.5 -34t28.5 -24.5t36 -9.5q35 2 60 9.5t48 27.5q41 35 75 85t63.5 107.5t55.5 117t48.5 111.5t43 92t42.5 61q16 16 32.5 24t39 11.5t52.5 3.5h75q8 0 2 -5.5t-18.5 -11.5t-30 -11t-29.5 -5q-59 2 -84 -23.5t-51 -73.5q-33 -59 -71 -155t-86 -189.5 t-108.5 -161t-140.5 -67.5q-49 0 -91 17.5t-68 66.5q-37 68 -22 109zM1251 153.5q0 49.5 21 110.5q14 45 34.5 96.5t44 103.5t47.5 103.5t42 94.5q12 25 31.5 34t48.5 9h110q-23 -18 -39 -34t-31.5 -37.5t-32 -53t-38.5 -78.5q-23 -43 -44.5 -89t-41 -90t-33.5 -82t-18 -65 q-14 -66 1 -93.5t38 -29.5q37 0 74.5 33t72.5 83t66.5 110.5t58.5 115.5q12 27 27.5 20t1.5 -38q-25 -53 -57.5 -117.5t-73.5 -122t-90.5 -96.5t-104.5 -39q-35 0 -61.5 17.5t-40 51t-13.5 83z" />
<glyph unicode="&#x446;&#x43c;" horiz-adv-x="1943" d="M49 157.5q4 30.5 15.5 60.5t26.5 57.5t30 56.5q-10 0 -19.5 6t0.5 27q10 16 18.5 34.5t18.5 36.5q31 59 61.5 118.5t53.5 107.5q12 25 31.5 34t48.5 9h125q-18 -12 -32.5 -25.5t-30 -32t-32 -45.5t-36.5 -70q-29 -53 -52 -102q-23 -43 -43 -88t-34 -74q-37 -80 -41 -133 t15.5 -74.5t58 -6t87.5 72.5q43 49 85 116.5t81 140.5t75 144.5t65 133.5q12 25 31.5 34t48.5 9h110q-23 -18 -39 -34t-31.5 -37.5t-32 -53t-38.5 -78.5q-23 -43 -44.5 -89t-41 -90t-33.5 -82t-18 -65q-14 -66 1 -93.5t37 -29.5q47 0 93.5 48.5t93.5 127.5q16 25 31.5 18 t-0.5 -36q-23 -39 -49.5 -76t-56.5 -66.5t-64.5 -48t-71.5 -18.5q-35 0 -61.5 17.5t-40 51t-13.5 83t21 110.5q-27 -47 -58.5 -93t-67.5 -84t-75 -61.5t-76 -23.5q-16 0 -35.5 3t-38 13.5t-34 29t-21.5 46.5q-6 33 -2 63.5zM299 -336q2 47 40 108.5t91 119t109.5 102.5 t93.5 61h11t1 -20q-41 -33 -83 -76t-77.5 -88t-58.5 -90t-25 -80q0 -29 12.5 -48.5t47.5 -19.5q29 0 56.5 20.5t47.5 41.5q4 4 14.5 5t6.5 -13q-4 -16 -19.5 -36t-42 -37t-60.5 -29.5t-73 -12.5t-66.5 22.5t-25.5 69.5zM728 195q15 41 44 52t49.5 -10.5t-6.5 -78.5 q-8 -16 -4 -35t15.5 -34t28.5 -24.5t36 -9.5q35 2 60 9.5t48 27.5q41 35 75 85t63.5 107.5t55.5 117t48.5 111.5t43 92t42.5 61q16 16 32.5 24t39 11.5t52.5 3.5h75q8 0 2 -5.5t-18.5 -11.5t-30 -11t-29.5 -5q-59 2 -84 -23.5t-51 -73.5q-33 -59 -71 -155t-86 -189.5 t-108.5 -161t-140.5 -67.5q-49 0 -91 17.5t-68 66.5q-37 68 -22 109zM1214 154.5q0 48.5 21 109.5q14 45 34.5 96.5t44 103.5t47 103t42.5 95q12 25 31.5 34t48.5 9h110q-23 -18 -39 -34t-31.5 -37.5t-31.5 -53t-39 -78.5q-23 -43 -44.5 -89t-40.5 -90t-33.5 -82t-18.5 -65 q-14 -66 1 -92.5t38 -30.5q41 -6 81 31t76.5 97.5t70.5 135t64.5 145t58.5 126t52 78.5q16 16 32.5 24t39 11.5t52.5 3.5h75q8 0 2 -5.5t-18.5 -11.5t-30 -11t-29.5 -5q-59 2 -82.5 -23.5t-52.5 -73.5q-23 -39 -46.5 -97t-51 -122.5t-60.5 -129t-71.5 -115t-85 -81 t-101.5 -28.5q-35 2 -61.5 19.5t-40 51t-13.5 82zM1647 153.5q0 49.5 20 110.5q14 45 34.5 96.5t44 103.5t47.5 103.5t42 94.5q12 25 31.5 34t48.5 9h110q-23 -18 -39 -34t-31.5 -37.5t-31.5 -53t-39 -78.5q-23 -43 -44 -89t-40.5 -90t-34 -82t-18.5 -65q-14 -66 1 -93.5 t38 -29.5q37 0 74.5 33t72.5 83t67 110.5t58 115.5q12 27 27.5 20t1.5 -38q-25 -53 -57.5 -117.5t-73.5 -122t-90 -96.5t-105 -39q-35 0 -61.5 17.5t-39.5 51t-13 83z" />
<glyph unicode="&#x446;&#x44f;" horiz-adv-x="1511" d="M49 157.5q4 30.5 15.5 60.5t26.5 57.5t30 56.5q-10 0 -19.5 6t0.5 27q10 16 18.5 34.5t18.5 36.5q31 59 61.5 118.5t53.5 107.5q12 25 31.5 34t48.5 9h125q-18 -12 -32.5 -25.5t-30 -32t-32 -45.5t-36.5 -70q-29 -53 -52 -102q-23 -43 -43 -88t-34 -74q-37 -80 -41 -133 t15.5 -74.5t58 -6t87.5 72.5q43 49 85 116.5t81 140.5t75 144.5t65 133.5q12 25 31.5 34t48.5 9h110q-23 -18 -39 -34t-31.5 -37.5t-32 -53t-38.5 -78.5q-23 -43 -44.5 -89t-41 -90t-33.5 -82t-18 -65q-14 -66 1 -93.5t37 -29.5q47 0 93.5 48.5t93.5 127.5q16 25 31.5 18 t-0.5 -36q-23 -39 -49.5 -76t-56.5 -66.5t-64.5 -48t-71.5 -18.5q-35 0 -61.5 17.5t-40 51t-13.5 83t21 110.5q-27 -47 -58.5 -93t-67.5 -84t-75 -61.5t-76 -23.5q-16 0 -35.5 3t-38 13.5t-34 29t-21.5 46.5q-6 33 -2 63.5zM299 -336q2 47 40 108.5t91 119t109.5 102.5 t93.5 61h11t1 -20q-41 -33 -83 -76t-77.5 -88t-58.5 -90t-25 -80q0 -29 12.5 -48.5t47.5 -19.5q29 0 56.5 20.5t47.5 41.5q4 4 14.5 5t6.5 -13q-4 -16 -19.5 -36t-42 -37t-60.5 -29.5t-73 -12.5t-66.5 22.5t-25.5 69.5zM728 161q-1 36 12.5 57.5t34 28.5t35.5 0t20.5 -29.5 t-13.5 -59.5q-8 -18 -4 -38t15.5 -36t28.5 -27.5t40 -11.5q35 -2 60.5 7t48.5 30q47 41 91 100.5t81 124.5q4 4 28 0q11 -2 27 -4q-33 -59 -66.5 -115.5t-72.5 -99.5t-82 -69.5t-92 -26.5q-119 0 -164 84q-27 49 -28 85zM1069 407.5q-2 32.5 4 61.5q8 37 25.5 75t42 70.5 t56.5 57t69 35.5q55 16 96 8t61.5 -37t19.5 -78t-32 -113q-45 -55 -74 -84q-25 -25 -37 -28.5t15 45.5t47 94t26.5 80t-6 56.5t-51.5 23.5q-29 2 -56.5 -11.5t-47.5 -41.5q-23 -31 -48.5 -72t-37.5 -76q-8 -20 -10.5 -49t8 -52.5t40 -36.5t87.5 -5q29 4 28.5 -11.5 t-41.5 -19.5q-68 -8 -106.5 7.5t-57 42t-20.5 59zM1203.5 127q-5.5 53 13.5 100q25 51 44 91t38.5 77t41 76t48.5 88q20 37 33.5 62.5t26.5 41t28.5 21.5t40.5 4q20 -2 41.5 -7t44.5 -1q-23 -12 -54.5 -53t-65.5 -96.5t-67.5 -118t-60.5 -117.5q-14 -29 -29.5 -71t-22 -82 t3 -68.5t46.5 -28.5q39 0 81 43t78.5 100.5t66.5 115.5t46 91q12 27 27.5 20t1.5 -38q-23 -47 -56.5 -112.5t-76.5 -126t-94.5 -103.5t-110.5 -43q-25 0 -48.5 13t-43.5 42q-16 27 -21.5 80z" />
<glyph unicode="&#x447;&#x43b;" horiz-adv-x="1349" d="M-56 81q-7 11 3 25q61 80 112.5 175.5t91 194.5t67.5 197.5t44 184.5q8 43 32.5 56.5t48.5 1t39 -46t5 -85.5q-10 -43 -48 -80.5t-65 -56.5q57 -4 132 -2t151 10q6 -10 3 -29.5t-10 -41t-17.5 -45t-18.5 -41.5q-8 -16 -27.5 -55.5t-43 -87.5t-45 -101t-32 -97t-5 -73 t35.5 -31q18 0 39 14.5t42.5 38t43 55.5t39.5 64q16 27 29.5 16.5t-4.5 -38.5q-61 -104 -113.5 -147.5t-93.5 -53.5q-27 -6 -58.5 3t-54 40t-26.5 83t26 132q12 31 29.5 65.5t37 67.5t36 61.5t24.5 47.5q23 51 -24 72.5t-133 23.5l-25 -66q-18 -49 -45 -111.5t-59.5 -127 t-69.5 -120.5t-74 -93q-12 -10 -19 1zM529.5 195q15.5 41 44 52t49 -10.5t-6.5 -78.5q-8 -16 -4 -35t15.5 -34t29 -24.5t35.5 -9.5q35 2 60.5 9.5t48.5 27.5q41 35 74.5 85t63.5 107.5t55.5 117t48 111.5t43 92t42.5 61q16 16 33 24t39.5 11.5t52 3.5h74.5q8 0 2 -5.5 t-18.5 -11.5t-29.5 -11t-30 -5q-59 2 -83.5 -23.5t-51.5 -73.5q-33 -59 -70.5 -155t-86 -189.5t-108.5 -161t-140 -67.5q-49 0 -91 17.5t-69 66.5q-37 68 -21.5 109zM1053 153.5q0 49.5 20 110.5q14 45 34.5 96.5t44.5 103.5t47.5 103.5t41.5 94.5q12 25 31.5 34t48.5 9h111 q-23 -18 -39.5 -34t-31.5 -37.5t-31.5 -53t-39.5 -78.5q-23 -43 -44 -89t-40.5 -90t-34 -82t-18.5 -65q-14 -66 1 -93.5t38 -29.5q37 0 75 33t72.5 83t66.5 110.5t58 115.5q12 27 27.5 20t1.5 -38q-25 -53 -57.5 -117.5t-73.5 -122t-90 -96.5t-105 -39q-35 0 -61.5 17.5 t-39.5 51t-13 83z" />
<glyph unicode="&#x447;&#x43c;" horiz-adv-x="1744" d="M-56 81q-7 11 3 25q61 80 112.5 175.5t91 194.5t67.5 197.5t44 184.5q8 43 32.5 56.5t48.5 1t39 -46t5 -85.5q-10 -43 -48 -80.5t-65 -56.5q57 -4 132 -2t151 10q6 -10 3 -29.5t-10 -41t-17.5 -45t-18.5 -41.5q-8 -16 -27.5 -55.5t-43 -87.5t-45 -101t-32 -97t-5 -73 t35.5 -31q18 0 39 14.5t42.5 38t43 55.5t39.5 64q16 27 29.5 16.5t-4.5 -38.5q-61 -104 -113.5 -147.5t-93.5 -53.5q-27 -6 -58.5 3t-54 40t-26.5 83t26 132q12 31 29.5 65.5t37 67.5t36 61.5t24.5 47.5q23 51 -24 72.5t-133 23.5l-25 -66q-18 -49 -45 -111.5t-59.5 -127 t-69.5 -120.5t-74 -93q-12 -10 -19 1zM529.5 195q15.5 41 44 52t49 -10.5t-6.5 -78.5q-8 -16 -4 -35t15.5 -34t29 -24.5t35.5 -9.5q35 2 60.5 9.5t48.5 27.5q41 35 74.5 85t63.5 107.5t55.5 117t48 111.5t43 92t42.5 61q16 16 33 24t39.5 11.5t52 3.5h74.5q8 0 2 -5.5 t-18.5 -11.5t-29.5 -11t-30 -5q-59 2 -83.5 -23.5t-51.5 -73.5q-33 -59 -70.5 -155t-86 -189.5t-108.5 -161t-140 -67.5q-49 0 -91 17.5t-69 66.5q-37 68 -21.5 109zM1016 154.5q0 48.5 20 109.5q14 45 35 96.5t44.5 103.5t47 103t41.5 95q12 25 31.5 34t48.5 9h111 q-23 -18 -39.5 -34t-31.5 -37.5t-31.5 -53t-39.5 -78.5q-23 -43 -44 -89t-40.5 -90t-34 -82t-18.5 -65q-14 -66 1.5 -92.5t37.5 -30.5q41 -6 81 31t77 97.5t70.5 135t64.5 145t58.5 126t52.5 78.5q16 16 32.5 24t39 11.5t52 3.5h74.5q8 0 2 -5.5t-18 -11.5t-29.5 -11 t-30.5 -5q-59 2 -82.5 -23.5t-52.5 -73.5q-23 -39 -46 -97t-51 -122.5t-60.5 -129t-71.5 -115t-85.5 -81t-101.5 -28.5q-35 2 -61.5 19.5t-39.5 51t-13 82zM1448 153.5q0 49.5 20 110.5q14 45 35 96.5t44.5 103.5t47 103.5t41.5 94.5q12 25 32 34t48 9h111q-23 -18 -39 -34 t-31.5 -37.5t-32 -53t-38.5 -78.5q-23 -43 -44.5 -89t-41 -90t-34 -82t-18.5 -65q-14 -66 1.5 -93.5t37.5 -29.5q37 0 75 33t72.5 83t66.5 110.5t59 115.5q12 27 27.5 20t0.5 -38q-25 -53 -57.5 -117.5t-73.5 -122t-90 -96.5t-104 -39q-35 0 -61.5 17.5t-40 51t-13.5 83z " />
<glyph unicode="&#x447;&#x44f;" horiz-adv-x="1314" d="M-56 81q-7 11 3 25q61 80 112.5 175.5t91 194.5t67.5 197.5t44 184.5q8 43 32.5 56.5t48.5 1t39 -46t5 -85.5q-10 -43 -48 -80.5t-65 -56.5q57 -4 132 -2t151 10q6 -10 3 -29.5t-10 -41t-17.5 -45t-18.5 -41.5q-8 -16 -27.5 -55.5t-43 -87.5t-45 -101t-32 -97t-5 -73 t35.5 -31q18 0 39 14.5t42.5 38t43 55.5t39.5 64q16 27 29.5 16.5t-4.5 -38.5q-61 -104 -113.5 -147.5t-93.5 -53.5q-27 -6 -58.5 3t-54 40t-26.5 83t26 132q12 31 29.5 65.5t37 67.5t36 61.5t24.5 47.5q23 51 -24 72.5t-133 23.5l-25 -66q-18 -49 -45 -111.5t-59.5 -127 t-69.5 -120.5t-74 -93q-12 -10 -19 1zM531 161q-1 36 12.5 57.5t34 28.5t36 0t20.5 -29.5t-13 -59.5q-8 -18 -4 -38t15 -36t28.5 -27.5t39.5 -11.5q35 -2 60.5 7t48.5 30q47 41 91 100.5t81 124.5q4 4 29 0q10 -2 26 -4q-33 -59 -66.5 -115.5t-72.5 -99.5t-82 -69.5 t-92 -26.5q-119 0 -164 84q-27 49 -28 85zM872.5 407.5q-1.5 32.5 4.5 61.5q8 37 25.5 75t42 70.5t56 57t68.5 35.5q55 16 96 8t61.5 -37t19.5 -78t-32 -113q-45 -55 -73 -84q-25 -25 -37 -28.5t14 45.5q27 49 47.5 94t26.5 80t-6 56.5t-51 23.5q-29 2 -56.5 -11.5 t-48.5 -41.5q-23 -31 -48.5 -72t-37.5 -76q-8 -20 -10 -49t8 -52.5t40 -36.5t87 -5q29 4 29 -11.5t-41 -19.5q-68 -8 -107 7.5t-57.5 42t-20 59zM1006.5 127q-5.5 53 13.5 100q25 51 44 91t38.5 77t41 76t48.5 88q20 37 33.5 62.5t27 41t28.5 21.5t40 4q20 -2 41.5 -7 t44.5 -1q-23 -12 -54.5 -53t-65.5 -96.5t-67.5 -118t-60.5 -117.5q-14 -29 -29.5 -71t-21.5 -82t3 -68.5t46 -28.5q39 0 81 43t79 100.5t66.5 115.5t46.5 91q12 27 27.5 20t0.5 -38q-23 -47 -56.5 -112.5t-76.5 -126t-94 -103.5t-111 -43q-25 0 -48 13t-44 42 q-16 27 -21.5 80z" />
<glyph unicode="&#x448;&#x43b;" horiz-adv-x="1918" d="M49 157.5q4 30.5 15.5 60.5t26.5 57.5t30 56.5q-10 0 -19.5 6t0.5 27q10 16 18.5 34.5t18.5 36.5q31 59 61.5 118.5t53.5 107.5q12 25 31.5 34t48.5 9h125q-18 -12 -32.5 -25.5t-30 -32t-32 -45.5t-36.5 -70q-29 -53 -52 -102q-23 -43 -43 -88t-34 -74q-37 -80 -41 -133 t15.5 -74.5t58 -6t87.5 72.5q43 49 85 116.5t81 140.5t75 144.5t65 133.5q12 25 31.5 34t48.5 9h110q-23 -18 -39 -34t-31.5 -37.5t-32 -53t-38.5 -78.5q-23 -43 -44.5 -89t-41 -90t-33.5 -82t-18 -65q-14 -66 1 -93.5t37 -29.5q29 0 58 20.5t57 53.5q43 49 85 116.5 t81 140.5t75 144.5t64 133.5q12 25 32 34t48 9h111q-23 -18 -39.5 -34t-31.5 -37.5t-31.5 -53t-39.5 -78.5q-23 -43 -44 -89t-40.5 -90t-34 -82t-18.5 -65q-14 -66 1.5 -93.5t37.5 -29.5q45 4 88 43t96 129q16 27 31 17.5t-2 -37.5q-63 -111 -123.5 -157t-113.5 -46 q-35 0 -61.5 17.5t-40 51t-13.5 83t20 110.5q-18 -35 -47.5 -80t-66.5 -85t-78 -68.5t-84 -28.5q-35 0 -61.5 17.5t-40 51t-13 83t20.5 110.5q-27 -47 -58.5 -93t-67.5 -84t-75 -61.5t-76 -23.5q-16 0 -35.5 3t-38 13.5t-34 29t-21.5 46.5q-6 33 -2 63.5zM113 -213 q35 45 97 89t148 40q39 -2 77 -10t76 -19.5t74 -20.5t72 -11q51 -4 84 13t56 46q0 2 9 3t18.5 1t16.5 -2t5 -4q-16 -25 -40 -50.5t-54.5 -46t-68.5 -32.5t-81 -10q-41 2 -79 12t-74.5 21.5t-73.5 20.5t-74 11q-47 4 -79 -13.5t-50 -41.5q-2 -4 -12 -5t-20.5 0t-18.5 3t-8 6z M1098.5 195q15.5 41 44 52t49 -10.5t-5.5 -78.5q-8 -16 -4 -35t15 -34t28.5 -24.5t36.5 -9.5q35 2 60 9.5t48 27.5q41 35 75 85t63.5 107.5t55 117t48 111.5t43 92t43.5 61q16 16 32.5 24t39 11.5t52 3.5h74.5q8 0 2 -5.5t-18 -11.5t-29.5 -11t-29.5 -5q-59 2 -84 -23.5 t-51 -73.5q-33 -59 -71 -155t-86 -189.5t-108.5 -161t-140.5 -67.5q-49 0 -91 17.5t-69 66.5q-37 68 -21.5 109zM1622 153.5q0 49.5 20 110.5q14 45 35 96.5t44.5 103.5t47 103.5t41.5 94.5q12 25 32 34t48 9h111q-23 -18 -39 -34t-31.5 -37.5t-32 -53t-38.5 -78.5 q-23 -43 -44.5 -89t-41 -90t-34 -82t-18.5 -65q-14 -66 1.5 -93.5t37.5 -29.5q37 0 75 33t73 83t66.5 110.5t58.5 115.5q12 27 27.5 20t0.5 -38q-25 -53 -57.5 -117.5t-73.5 -122t-90 -96.5t-104 -39q-35 0 -61.5 17.5t-40 51t-13.5 83z" />
<glyph unicode="&#x448;&#x43c;" horiz-adv-x="2314" d="M49 157.5q4 30.5 15.5 60.5t26.5 57.5t30 56.5q-10 0 -19.5 6t0.5 27q10 16 18.5 34.5t18.5 36.5q31 59 61.5 118.5t53.5 107.5q12 25 31.5 34t48.5 9h125q-18 -12 -32.5 -25.5t-30 -32t-32 -45.5t-36.5 -70q-29 -53 -52 -102q-23 -43 -43 -88t-34 -74q-37 -80 -41 -133 t15.5 -74.5t58 -6t87.5 72.5q43 49 85 116.5t81 140.5t75 144.5t65 133.5q12 25 31.5 34t48.5 9h110q-23 -18 -39 -34t-31.5 -37.5t-32 -53t-38.5 -78.5q-23 -43 -44.5 -89t-41 -90t-33.5 -82t-18 -65q-14 -66 1 -93.5t37 -29.5q29 0 58 20.5t57 53.5q43 49 85 116.5 t81 140.5t75 144.5t64 133.5q12 25 32 34t48 9h111q-23 -18 -39.5 -34t-31.5 -37.5t-31.5 -53t-39.5 -78.5q-23 -43 -44 -89t-40.5 -90t-34 -82t-18.5 -65q-14 -66 1.5 -93.5t37.5 -29.5q45 4 88 43t96 129q16 27 31 17.5t-2 -37.5q-63 -111 -123.5 -157t-113.5 -46 q-35 0 -61.5 17.5t-40 51t-13.5 83t20 110.5q-18 -35 -47.5 -80t-66.5 -85t-78 -68.5t-84 -28.5q-35 0 -61.5 17.5t-40 51t-13 83t20.5 110.5q-27 -47 -58.5 -93t-67.5 -84t-75 -61.5t-76 -23.5q-16 0 -35.5 3t-38 13.5t-34 29t-21.5 46.5q-6 33 -2 63.5zM113 -213 q35 45 97 89t148 40q39 -2 77 -10t76 -19.5t74 -20.5t72 -11q51 -4 84 13t56 46q0 2 9 3t18.5 1t16.5 -2t5 -4q-16 -25 -40 -50.5t-54.5 -46t-68.5 -32.5t-81 -10q-41 2 -79 12t-74.5 21.5t-73.5 20.5t-74 11q-47 4 -79 -13.5t-50 -41.5q-2 -4 -12 -5t-20.5 0t-18.5 3t-8 6z M1098.5 195q15.5 41 44 52t49 -10.5t-5.5 -78.5q-8 -16 -4 -35t15 -34t28.5 -24.5t36.5 -9.5q35 2 60 9.5t48 27.5q41 35 75 85t63.5 107.5t55 117t48 111.5t43 92t43.5 61q16 16 32.5 24t39 11.5t52 3.5h74.5q8 0 2 -5.5t-18 -11.5t-29.5 -11t-29.5 -5q-59 2 -84 -23.5 t-51 -73.5q-33 -59 -71 -155t-86 -189.5t-108.5 -161t-140.5 -67.5q-49 0 -91 17.5t-69 66.5q-37 68 -21.5 109zM1585 154.5q0 48.5 21 109.5q14 45 34.5 96.5t44 103.5t47 103t42.5 95q12 25 31.5 34t47.5 9h111q-23 -18 -39 -34t-31.5 -37.5t-32 -53t-38.5 -78.5 q-23 -43 -44.5 -89t-41 -90t-33.5 -82t-18 -65q-14 -66 1 -92.5t37 -30.5q41 -6 81 31t77 97.5t71 135t64.5 145t58 126t52.5 78.5q16 16 32.5 24t39 11.5t52 3.5h75.5q8 0 1.5 -5.5t-18.5 -11.5t-29.5 -11t-29.5 -5q-59 2 -83 -23.5t-52 -73.5q-23 -39 -46.5 -97 t-51 -122.5t-60.5 -129t-72 -115t-85 -81t-101 -28.5q-35 2 -61.5 19.5t-40 51t-13.5 82zM2017 153.5q0 49.5 21 110.5q14 45 34.5 96.5t44 103.5t47.5 103.5t42 94.5q12 25 31.5 34t48.5 9h110q-23 -18 -39 -34t-31.5 -37.5t-32 -53t-38.5 -78.5q-23 -43 -44.5 -89t-41 -90 t-33.5 -82t-18 -65q-14 -66 1 -93.5t38 -29.5q37 0 74.5 33t72.5 83t66.5 110.5t58.5 115.5q12 27 27.5 20t1.5 -38q-25 -53 -58 -117.5t-73.5 -122t-90 -96.5t-104.5 -39q-35 0 -61.5 17.5t-40 51t-13.5 83z" />
<glyph unicode="&#x448;&#x44f;" horiz-adv-x="1882" d="M49 157.5q4 30.5 15.5 60.5t26.5 57.5t30 56.5q-10 0 -19.5 6t0.5 27q10 16 18.5 34.5t18.5 36.5q31 59 61.5 118.5t53.5 107.5q12 25 31.5 34t48.5 9h125q-18 -12 -32.5 -25.5t-30 -32t-32 -45.5t-36.5 -70q-29 -53 -52 -102q-23 -43 -43 -88t-34 -74q-37 -80 -41 -133 t15.5 -74.5t58 -6t87.5 72.5q43 49 85 116.5t81 140.5t75 144.5t65 133.5q12 25 31.5 34t48.5 9h110q-23 -18 -39 -34t-31.5 -37.5t-32 -53t-38.5 -78.5q-23 -43 -44.5 -89t-41 -90t-33.5 -82t-18 -65q-14 -66 1 -93.5t37 -29.5q29 0 58 20.5t57 53.5q43 49 85 116.5 t81 140.5t75 144.5t64 133.5q12 25 32 34t48 9h111q-23 -18 -39.5 -34t-31.5 -37.5t-31.5 -53t-39.5 -78.5q-23 -43 -44 -89t-40.5 -90t-34 -82t-18.5 -65q-14 -66 1.5 -93.5t37.5 -29.5q45 4 88 43t96 129q16 27 31 17.5t-2 -37.5q-63 -111 -123.5 -157t-113.5 -46 q-35 0 -61.5 17.5t-40 51t-13.5 83t20 110.5q-18 -35 -47.5 -80t-66.5 -85t-78 -68.5t-84 -28.5q-35 0 -61.5 17.5t-40 51t-13 83t20.5 110.5q-27 -47 -58.5 -93t-67.5 -84t-75 -61.5t-76 -23.5q-16 0 -35.5 3t-38 13.5t-34 29t-21.5 46.5q-6 33 -2 63.5zM1098.5 161 q-0.5 36 12.5 57.5t33.5 28.5t36 0t20.5 -29.5t-13 -59.5q-8 -18 -4 -38t15 -36t28.5 -27.5t40.5 -11.5q35 -2 60.5 7t47.5 30q47 41 91 100.5t81 124.5q4 4 29 0q11 -2 27 -4q-33 -59 -67 -115.5t-73 -99.5t-82 -69.5t-92 -26.5q-119 0 -164 84q-27 49 -27.5 85z M1440 407.5q-2 32.5 4 61.5q8 37 25.5 75t42 70.5t56 57t68.5 35.5q55 16 96.5 8t62 -37t19 -78t-31.5 -113q-45 -55 -74 -84q-25 -25 -37 -28.5t15 45.5t47 94t26 80t-6 56.5t-51 23.5q-29 2 -56.5 -11.5t-48.5 -41.5q-23 -31 -48 -72t-38 -76q-8 -20 -10 -49t8.5 -52.5 t40 -36.5t86.5 -5q29 4 29 -11.5t-41 -19.5q-68 -8 -106.5 7.5t-57 42t-20.5 59zM1574 127q-5 53 13 100q25 51 44.5 91t39 77t41 76t47.5 88q20 37 33.5 62.5t27 41t29 21.5t39.5 4q20 -2 42 -7t44 -1q-23 -12 -54.5 -53t-65 -96.5t-67.5 -118t-61 -117.5 q-14 -29 -29.5 -71t-21.5 -82t3.5 -68.5t45.5 -28.5q39 0 81 43t79 100.5t66.5 115.5t46.5 91q12 27 27.5 20t0.5 -38q-23 -47 -56.5 -112.5t-76.5 -126t-94 -103.5t-110 -43q-25 0 -48.5 13t-44.5 42q-16 27 -21 80z" />
<glyph unicode="&#x449;&#x43b;" horiz-adv-x="1918" d="M49 157.5q4 30.5 15.5 60.5t26.5 57.5t30 56.5q-10 0 -19.5 6t0.5 27q10 16 18.5 34.5t18.5 36.5q31 59 61.5 118.5t53.5 107.5q12 25 31.5 34t48.5 9h125q-18 -12 -32.5 -25.5t-30 -32t-32 -45.5t-36.5 -70q-29 -53 -52 -102q-23 -43 -43 -88t-34 -74q-37 -80 -41 -133 t15.5 -74.5t58 -6t87.5 72.5q43 49 85 116.5t81 140.5t75 144.5t65 133.5q12 25 31.5 34t48.5 9h110q-23 -18 -39 -34t-31.5 -37.5t-32 -53t-38.5 -78.5q-23 -43 -44.5 -89t-41 -90t-33.5 -82t-18 -65q-14 -66 1 -93.5t37 -29.5q29 0 58 20.5t57 53.5q43 49 85 116.5 t81 140.5t75 144.5t64 133.5q12 25 32 34t48 9h111q-23 -18 -39.5 -34t-31.5 -37.5t-31.5 -53t-39.5 -78.5q-23 -43 -44 -89t-40.5 -90t-34 -82t-18.5 -65q-14 -66 1.5 -93.5t37.5 -29.5q45 4 88 43t96 129q16 27 31 17.5t-2 -37.5q-63 -111 -123.5 -157t-113.5 -46 q-35 0 -61.5 17.5t-40 51t-13.5 83t20 110.5q-18 -35 -47.5 -80t-66.5 -85t-78 -68.5t-84 -28.5q-35 0 -61.5 17.5t-40 51t-13 83t20.5 110.5q-27 -47 -58.5 -93t-67.5 -84t-75 -61.5t-76 -23.5q-16 0 -35.5 3t-38 13.5t-34 29t-21.5 46.5q-6 33 -2 63.5zM670 -336 q2 47 40 108.5t91 119t109.5 102.5t93.5 61h11t1 -20q-41 -33 -83 -76t-78 -88t-58.5 -90t-24.5 -80q0 -29 12.5 -48.5t46.5 -19.5q29 0 56.5 20.5t48.5 41.5q4 4 14.5 5t5.5 -13q-4 -16 -19 -36t-42 -37t-60.5 -29.5t-72.5 -12.5t-66.5 22.5t-25.5 69.5zM1098.5 195 q15.5 41 44 52t49 -10.5t-5.5 -78.5q-8 -16 -4 -35t15 -34t28.5 -24.5t36.5 -9.5q35 2 60 9.5t48 27.5q41 35 75 85t63.5 107.5t55 117t48 111.5t43 92t43.5 61q16 16 32.5 24t39 11.5t52 3.5h74.5q8 0 2 -5.5t-18 -11.5t-29.5 -11t-29.5 -5q-59 2 -84 -23.5t-51 -73.5 q-33 -59 -71 -155t-86 -189.5t-108.5 -161t-140.5 -67.5q-49 0 -91 17.5t-69 66.5q-37 68 -21.5 109zM1622 153.5q0 49.5 20 110.5q14 45 35 96.5t44.5 103.5t47 103.5t41.5 94.5q12 25 32 34t48 9h111q-23 -18 -39 -34t-31.5 -37.5t-32 -53t-38.5 -78.5q-23 -43 -44.5 -89 t-41 -90t-34 -82t-18.5 -65q-14 -66 1.5 -93.5t37.5 -29.5q37 0 75 33t73 83t66.5 110.5t58.5 115.5q12 27 27.5 20t0.5 -38q-25 -53 -57.5 -117.5t-73.5 -122t-90 -96.5t-104 -39q-35 0 -61.5 17.5t-40 51t-13.5 83z" />
<glyph unicode="&#x449;&#x43c;" horiz-adv-x="2314" d="M49 157.5q4 30.5 15.5 60.5t26.5 57.5t30 56.5q-10 0 -19.5 6t0.5 27q10 16 18.5 34.5t18.5 36.5q31 59 61.5 118.5t53.5 107.5q12 25 31.5 34t48.5 9h125q-18 -12 -32.5 -25.5t-30 -32t-32 -45.5t-36.5 -70q-29 -53 -52 -102q-23 -43 -43 -88t-34 -74q-37 -80 -41 -133 t15.5 -74.5t58 -6t87.5 72.5q43 49 85 116.5t81 140.5t75 144.5t65 133.5q12 25 31.5 34t48.5 9h110q-23 -18 -39 -34t-31.5 -37.5t-32 -53t-38.5 -78.5q-23 -43 -44.5 -89t-41 -90t-33.5 -82t-18 -65q-14 -66 1 -93.5t37 -29.5q29 0 58 20.5t57 53.5q43 49 85 116.5 t81 140.5t75 144.5t64 133.5q12 25 32 34t48 9h111q-23 -18 -39.5 -34t-31.5 -37.5t-31.5 -53t-39.5 -78.5q-23 -43 -44 -89t-40.5 -90t-34 -82t-18.5 -65q-14 -66 1.5 -93.5t37.5 -29.5q45 4 88 43t96 129q16 27 31 17.5t-2 -37.5q-63 -111 -123.5 -157t-113.5 -46 q-35 0 -61.5 17.5t-40 51t-13.5 83t20 110.5q-18 -35 -47.5 -80t-66.5 -85t-78 -68.5t-84 -28.5q-35 0 -61.5 17.5t-40 51t-13 83t20.5 110.5q-27 -47 -58.5 -93t-67.5 -84t-75 -61.5t-76 -23.5q-16 0 -35.5 3t-38 13.5t-34 29t-21.5 46.5q-6 33 -2 63.5zM670 -336 q2 47 40 108.5t91 119t109.5 102.5t93.5 61h11t1 -20q-41 -33 -83 -76t-78 -88t-58.5 -90t-24.5 -80q0 -29 12.5 -48.5t46.5 -19.5q29 0 56.5 20.5t48.5 41.5q4 4 14.5 5t5.5 -13q-4 -16 -19 -36t-42 -37t-60.5 -29.5t-72.5 -12.5t-66.5 22.5t-25.5 69.5zM1098.5 195 q15.5 41 44 52t49 -10.5t-5.5 -78.5q-8 -16 -4 -35t15 -34t28.5 -24.5t36.5 -9.5q35 2 60 9.5t48 27.5q41 35 75 85t63.5 107.5t55 117t48 111.5t43 92t43.5 61q16 16 32.5 24t39 11.5t52 3.5h74.5q8 0 2 -5.5t-18 -11.5t-29.5 -11t-29.5 -5q-59 2 -84 -23.5t-51 -73.5 q-33 -59 -71 -155t-86 -189.5t-108.5 -161t-140.5 -67.5q-49 0 -91 17.5t-69 66.5q-37 68 -21.5 109zM1585 154.5q0 48.5 21 109.5q14 45 34.5 96.5t44 103.5t47 103t42.5 95q12 25 31.5 34t47.5 9h111q-23 -18 -39 -34t-31.5 -37.5t-32 -53t-38.5 -78.5q-23 -43 -44.5 -89 t-41 -90t-33.5 -82t-18 -65q-14 -66 1 -92.5t37 -30.5q41 -6 81 31t77 97.5t71 135t64.5 145t58 126t52.5 78.5q16 16 32.5 24t39 11.5t52 3.5h75.5q8 0 1.5 -5.5t-18.5 -11.5t-29.5 -11t-29.5 -5q-59 2 -83 -23.5t-52 -73.5q-23 -39 -46.5 -97t-51 -122.5t-60.5 -129 t-72 -115t-85 -81t-101 -28.5q-35 2 -61.5 19.5t-40 51t-13.5 82zM2017 153.5q0 49.5 21 110.5q14 45 34.5 96.5t44 103.5t47.5 103.5t42 94.5q12 25 31.5 34t48.5 9h110q-23 -18 -39 -34t-31.5 -37.5t-32 -53t-38.5 -78.5q-23 -43 -44.5 -89t-41 -90t-33.5 -82t-18 -65 q-14 -66 1 -93.5t38 -29.5q37 0 74.5 33t72.5 83t66.5 110.5t58.5 115.5q12 27 27.5 20t1.5 -38q-25 -53 -58 -117.5t-73.5 -122t-90 -96.5t-104.5 -39q-35 0 -61.5 17.5t-40 51t-13.5 83z" />
<glyph unicode="&#x449;&#x44f;" horiz-adv-x="1880" d="M49 157.5q4 30.5 15.5 60.5t26.5 57.5t30 56.5q-10 0 -19.5 6t0.5 27q10 16 18.5 34.5t18.5 36.5q31 59 61.5 118.5t53.5 107.5q12 25 31.5 34t48.5 9h125q-18 -12 -32.5 -25.5t-30 -32t-32 -45.5t-36.5 -70q-29 -53 -52 -102q-23 -43 -43 -88t-34 -74q-37 -80 -41 -133 t15.5 -74.5t58 -6t87.5 72.5q43 49 85 116.5t81 140.5t75 144.5t65 133.5q12 25 31.5 34t48.5 9h110q-23 -18 -39 -34t-31.5 -37.5t-32 -53t-38.5 -78.5q-23 -43 -44.5 -89t-41 -90t-33.5 -82t-18 -65q-14 -66 1 -93.5t37 -29.5q29 0 58 20.5t57 53.5q43 49 85 116.5 t81 140.5t75 144.5t64 133.5q12 25 32 34t48 9h111q-23 -18 -39.5 -34t-31.5 -37.5t-31.5 -53t-39.5 -78.5q-23 -43 -44 -89t-40.5 -90t-34 -82t-18.5 -65q-14 -66 1.5 -93.5t37.5 -29.5q45 4 88 43t96 129q16 27 31 17.5t-2 -37.5q-63 -111 -123.5 -157t-113.5 -46 q-35 0 -61.5 17.5t-40 51t-13.5 83t20 110.5q-18 -35 -47.5 -80t-66.5 -85t-78 -68.5t-84 -28.5q-35 0 -61.5 17.5t-40 51t-13 83t20.5 110.5q-27 -47 -58.5 -93t-67.5 -84t-75 -61.5t-76 -23.5q-16 0 -35.5 3t-38 13.5t-34 29t-21.5 46.5q-6 33 -2 63.5zM696 -336 q2 47 40 108.5t91.5 119t109.5 102.5t93 61h11t1 -20q-41 -33 -82.5 -76t-77.5 -88t-58.5 -90t-24.5 -80q0 -29 12 -48.5t47 -19.5q29 0 56.5 20.5t48.5 41.5q4 4 14 5t6 -13q-4 -16 -19.5 -36t-42 -37t-60.5 -29.5t-73 -12.5t-66.5 22.5t-25.5 69.5zM1096.5 161 q-0.5 36 12.5 57.5t33.5 28.5t36 0t20.5 -29.5t-13 -59.5q-8 -18 -4 -38t15 -36t28.5 -27.5t40.5 -11.5q35 -2 60.5 7t47.5 30q47 41 91 100.5t81 124.5q4 4 29 0q11 -2 27 -4q-33 -59 -67 -115.5t-73 -99.5t-82 -69.5t-92 -26.5q-119 0 -164 84q-27 49 -27.5 85z M1438 407.5q-2 32.5 4 61.5q8 37 25.5 75t42 70.5t56 57t68.5 35.5q55 16 96.5 8t61.5 -37t19 -78t-31 -113q-45 -55 -74 -84q-25 -25 -37 -28.5t14 45.5q27 49 47.5 94t26.5 80t-6 56.5t-51 23.5q-29 2 -56.5 -11.5t-48.5 -41.5q-23 -31 -48 -72t-38 -76q-8 -20 -10 -49 t8.5 -52.5t40 -36.5t86.5 -5q29 4 29 -11.5t-41 -19.5q-68 -8 -106.5 7.5t-57 42t-20.5 59zM1572 127q-5 53 13 100q25 51 44.5 91t39 77t41 76t47.5 88q20 37 33.5 62.5t27 41t29 21.5t39.5 4q20 -2 42 -7t44 -1q-23 -12 -54.5 -53t-65 -96.5t-67.5 -118t-61 -117.5 q-14 -29 -29.5 -71t-21.5 -82t3.5 -68.5t45.5 -28.5q39 0 81 43t79 100.5t66.5 115.5t46.5 91q12 27 27.5 20t0.5 -38q-23 -47 -56.5 -112.5t-76.5 -126t-94 -103.5t-110 -43q-25 0 -48.5 13t-44.5 42q-16 27 -21 80z" />
<glyph unicode="&#x44a;&#x435;" horiz-adv-x="1216" d="M-56 81q-7 11 3 25q61 80 112.5 175.5t91 194.5t67.5 197.5t44 184.5q8 43 32.5 56.5t48.5 1t39 -46t5 -85.5q-10 -43 -48 -80.5t-65 -56.5q57 -4 132 -2t151 10q6 -10 3 -29.5t-10 -41t-17.5 -45t-18.5 -41.5q-10 -20 -39 -79t-61 -124q-25 -49 -40.5 -94t-18.5 -79 t7.5 -55.5t34.5 -27.5q14 -4 45 8t60 47q33 39 57.5 85t32.5 81q16 66 8 100.5t-65 30.5q-4 0 -1 5t10 10.5t17 8.5t23 -1q37 -14 58.5 -63.5t6.5 -104.5q-18 -78 -69.5 -143.5t-122.5 -98.5q-35 -16 -73 -14t-68.5 19.5t-52 45t-23.5 64.5q-6 57 26 141q12 31 29.5 65.5 t37 67.5t36 61.5t24.5 47.5q23 51 -24 72.5t-133 23.5l-25 -66q-18 -49 -45 -111.5t-59.5 -127t-69.5 -120.5t-74 -93q-12 -10 -19 1zM501 328.5q-5 23.5 1 44t22.5 33t40.5 12.5q23 0 42.5 -18.5t19.5 -41.5q0 -6 -5.5 -18t-5.5 -18q2 -23 34 -13t81 25q61 16 104.5 18 t102.5 -2q31 -2 24.5 -19.5t-38.5 -15.5q-31 0 -54.5 1t-45 0t-43 -5t-50.5 -12q-23 -6 -52.5 -16.5t-58 -15.5t-55 -3t-41.5 21q-18 20 -23 43.5zM780 188q0 45 11.5 96.5t33 101.5t50 97t63.5 88q39 45 86 82t94 56.5t91 19.5t79 -24q29 -23 34 -58t-11.5 -77t-51 -85 t-83.5 -79q-25 -18 -59 -35t-70.5 -29t-69.5 -19.5t-53 -7.5q-12 -29 -21.5 -75.5t-6.5 -92t24.5 -79t72.5 -33.5q68 0 122 40t96 95t72 114.5t48 100.5q6 14 15.5 21.5t16.5 7.5t10 -7.5t-5 -23.5q-29 -61 -61.5 -130t-77.5 -127t-105.5 -96t-146.5 -38q-78 0 -136.5 49 t-60.5 147zM938 350q14 0 38.5 5t55.5 16.5t62.5 28.5t60.5 40q41 35 68.5 78t38 80t4.5 61.5t-31 23.5t-68 -33t-106 -107q-41 -49 -75 -106.5t-48 -86.5z" />
<glyph unicode="&#x44a;&#x43b;" horiz-adv-x="1581" d="M-56 81q-7 11 3 25q61 80 112.5 175.5t91 194.5t67.5 197.5t44 184.5q8 43 32.5 56.5t48.5 1t39 -46t5 -85.5q-10 -43 -48 -80.5t-65 -56.5q57 -4 132 -2t151 10q6 -10 3 -29.5t-10 -41t-17.5 -45t-18.5 -41.5q-10 -20 -39 -79t-61 -124q-25 -49 -40.5 -94t-18.5 -79 t7.5 -55.5t34.5 -27.5q14 -4 45 8t60 47q33 39 57.5 85t32.5 81q16 66 8 100.5t-65 30.5q-4 0 -1 5t10 10.5t17 8.5t23 -1q37 -14 58.5 -63.5t6.5 -104.5q-18 -78 -69.5 -143.5t-122.5 -98.5q-35 -16 -73 -14t-68.5 19.5t-52 45t-23.5 64.5q-6 57 26 141q12 31 29.5 65.5 t37 67.5t36 61.5t24.5 47.5q23 51 -24 72.5t-133 23.5l-25 -66q-18 -49 -45 -111.5t-59.5 -127t-69.5 -120.5t-74 -93q-12 -10 -19 1zM501 328.5q-5 23.5 1 44t22.5 33t40.5 12.5q23 0 42.5 -18.5t19.5 -41.5q0 -6 -5.5 -18t-5.5 -18q2 -18 15.5 -44t32.5 -36 q25 -16 55.5 -23.5t87.5 10.5q29 10 36 -3t-26 -23q-53 -18 -89 -17t-69 11q-86 29 -135 88q-18 20 -23 43.5zM760.5 195q15.5 41 44.5 52t49 -10.5t-6 -78.5q-8 -16 -4 -35t15 -34t28.5 -24.5t36.5 -9.5q35 2 60 9.5t48 27.5q41 35 75 85t63.5 107.5t55 117t48 111.5t43 92 t43.5 61q16 16 32.5 24t39 11.5t52 3.5h75.5q8 0 1.5 -5.5t-18.5 -11.5t-29.5 -11t-29.5 -5q-59 2 -84 -23.5t-51 -73.5q-33 -59 -71 -155t-86 -189.5t-108.5 -161t-140.5 -67.5q-49 0 -91 17.5t-69 66.5q-37 68 -21.5 109zM1284 153.5q0 49.5 21 110.5q14 45 34.5 96.5 t44 103.5t47.5 103.5t42 94.5q12 25 31.5 34t47.5 9h111q-23 -18 -39 -34t-31.5 -37.5t-32 -53t-38.5 -78.5q-23 -43 -44.5 -89t-41 -90t-33.5 -82t-19 -65q-14 -66 1.5 -93.5t37.5 -29.5q37 0 75 33t73 83t66.5 110.5t58.5 115.5q12 27 27.5 20t0.5 -38 q-25 -53 -57.5 -117.5t-73.5 -122t-90 -96.5t-104 -39q-35 0 -61.5 17.5t-40 51t-13.5 83z" />
<glyph unicode="&#x44a;&#x43c;" horiz-adv-x="1976" d="M-56 81q-7 11 3 25q61 80 112.5 175.5t91 194.5t67.5 197.5t44 184.5q8 43 32.5 56.5t48.5 1t39 -46t5 -85.5q-10 -43 -48 -80.5t-65 -56.5q57 -4 132 -2t151 10q6 -10 3 -29.5t-10 -41t-17.5 -45t-18.5 -41.5q-10 -20 -39 -79t-61 -124q-25 -49 -40.5 -94t-18.5 -79 t7.5 -55.5t34.5 -27.5q14 -4 45 8t60 47q33 39 57.5 85t32.5 81q16 66 8 100.5t-65 30.5q-4 0 -1 5t10 10.5t17 8.5t23 -1q37 -14 58.5 -63.5t6.5 -104.5q-18 -78 -69.5 -143.5t-122.5 -98.5q-35 -16 -73 -14t-68.5 19.5t-52 45t-23.5 64.5q-6 57 26 141q12 31 29.5 65.5 t37 67.5t36 61.5t24.5 47.5q23 51 -24 72.5t-133 23.5l-25 -66q-18 -49 -45 -111.5t-59.5 -127t-69.5 -120.5t-74 -93q-12 -10 -19 1zM501 328.5q-5 23.5 1 44t22.5 33t40.5 12.5q23 0 42.5 -18.5t19.5 -41.5q0 -6 -5.5 -18t-5.5 -18q2 -18 15.5 -44t32.5 -36 q25 -16 55.5 -23.5t87.5 10.5q29 10 36 -3t-26 -23q-53 -18 -89 -17t-69 11q-86 29 -135 88q-18 20 -23 43.5zM760.5 195q15.5 41 44.5 52t49 -10.5t-6 -78.5q-8 -16 -4 -35t15 -34t28.5 -24.5t36.5 -9.5q35 2 60 9.5t48 27.5q41 35 75 85t63.5 107.5t55 117t48 111.5t43 92 t43.5 61q16 16 32.5 24t39 11.5t52 3.5h75.5q8 0 1.5 -5.5t-18.5 -11.5t-29.5 -11t-29.5 -5q-59 2 -84 -23.5t-51 -73.5q-33 -59 -71 -155t-86 -189.5t-108.5 -161t-140.5 -67.5q-49 0 -91 17.5t-69 66.5q-37 68 -21.5 109zM1247 154.5q0 48.5 21 109.5q14 45 34.5 96.5 t44 103.5t47 103t42.5 95q12 25 31.5 34t48.5 9h110q-23 -18 -39 -34t-31.5 -37.5t-32 -53t-38.5 -78.5q-23 -43 -44.5 -89t-41 -90t-33.5 -82t-18 -65q-14 -66 1 -92.5t37 -30.5q41 -6 81 31t77 97.5t71 135t64.5 145t58 126t52.5 78.5q16 16 32.5 24t39 11.5t52.5 3.5h75 q8 0 2 -5.5t-18.5 -11.5t-30 -11t-29.5 -5q-59 2 -83 -23.5t-52 -73.5q-23 -39 -46.5 -97t-51 -122.5t-60.5 -129t-72 -115t-85 -81t-101 -28.5q-35 2 -61.5 19.5t-40 51t-13.5 82zM1679 153.5q0 49.5 21 110.5q14 45 34.5 96.5t44 103.5t47.5 103.5t42 94.5q12 25 31.5 34 t48.5 9h110q-23 -18 -39 -34t-31.5 -37.5t-32 -53t-38.5 -78.5q-23 -43 -44.5 -89t-41 -90t-33.5 -82t-18 -65q-14 -66 1 -93.5t38 -29.5q37 0 74.5 33t72.5 83t66.5 110.5t58.5 115.5q12 27 27.5 20t1.5 -38q-25 -53 -57.5 -117.5t-73.5 -122t-90.5 -96.5t-104.5 -39 q-35 0 -61.5 17.5t-40 51t-13.5 83z" />
<glyph unicode="&#x44a;&#x44f;" horiz-adv-x="1538" d="M-56 81q-7 11 3 25q61 80 112.5 175.5t91 194.5t67.5 197.5t44 184.5q8 43 32.5 56.5t48.5 1t39 -46t5 -85.5q-10 -43 -48 -80.5t-65 -56.5q57 -4 132 -2t151 10q6 -10 3 -29.5t-10 -41t-17.5 -45t-18.5 -41.5q-10 -20 -39 -79t-61 -124q-25 -49 -40.5 -94t-18.5 -79 t7.5 -55.5t34.5 -27.5q14 -4 45 8t60 47q33 39 57.5 85t32.5 81q16 66 8 100.5t-65 30.5q-4 0 -1 5t10 10.5t17 8.5t23 -1q37 -14 58.5 -63.5t6.5 -104.5q-18 -78 -69.5 -143.5t-122.5 -98.5q-35 -16 -73 -14t-68.5 19.5t-52 45t-23.5 64.5q-6 57 26 141q12 31 29.5 65.5 t37 67.5t36 61.5t24.5 47.5q23 51 -24 72.5t-133 23.5l-25 -66q-18 -49 -45 -111.5t-59.5 -127t-69.5 -120.5t-74 -93q-12 -10 -19 1zM501 328.5q-5 23.5 1 44t22.5 33t40.5 12.5q23 0 42.5 -18.5t19.5 -41.5q0 -6 -5.5 -18t-5.5 -18q2 -18 15.5 -44t32.5 -36 q25 -16 55.5 -23.5t87.5 10.5q29 10 36 -3t-26 -23q-53 -18 -89 -17t-69 11q-86 29 -135 88q-18 20 -23 43.5zM754.5 161q-0.5 36 12.5 57.5t33.5 28.5t36 0t20.5 -29.5t-13 -59.5q-8 -18 -4 -38t15 -36t28.5 -27.5t40.5 -11.5q35 -2 60.5 7t47.5 30q47 41 91 100.5 t81 124.5q4 4 29 0q11 -2 27 -4q-33 -59 -67 -115.5t-73 -99.5t-82 -69.5t-92 -26.5q-119 0 -164 84q-27 49 -27.5 85zM1096 407.5q-2 32.5 4 61.5q8 37 25.5 75t42 70.5t56 57t68.5 35.5q55 16 96.5 8t61.5 -37t19 -78t-31 -113q-45 -55 -74 -84q-25 -25 -37 -28.5t14 45.5 q27 49 47.5 94t26.5 80t-6 56.5t-51 23.5q-29 2 -56.5 -11.5t-48.5 -41.5q-23 -31 -48 -72t-38 -76q-8 -20 -10 -49t8.5 -52.5t40 -36.5t86.5 -5q29 4 29 -11.5t-41 -19.5q-68 -8 -106.5 7.5t-57 42t-20.5 59zM1230 127q-5 53 13 100q25 51 44.5 91t39 77t41 76t47.5 88 q20 37 33.5 62.5t27 41t29 21.5t39.5 4q20 -2 42 -7t44 -1q-23 -12 -54.5 -53t-65 -96.5t-67.5 -118t-61 -117.5q-14 -29 -29.5 -71t-21.5 -82t3 -68.5t46 -28.5q39 0 81 43t79 100.5t66.5 115.5t46.5 91q12 27 27.5 20t0.5 -38q-23 -47 -56.5 -112.5t-76.5 -126t-94 -103.5 t-111 -43q-25 0 -48 13t-44 42q-16 27 -21 80z" />
<glyph unicode="&#x44b;&#x43b;" horiz-adv-x="1642" d="M11.5 138.5q0.5 39.5 23.5 88.5q25 51 43 91t36.5 77t39 76t47.5 88q39 74 67.5 102.5t77.5 26.5q20 -2 42 -7t44 -1q-23 -12 -53.5 -53t-64 -96.5t-67.5 -118t-63 -117.5q-25 -49 -40 -93t-18 -79t7 -56.5t35 -27.5q14 -4 45 8t59 47q33 39 57.5 85t32.5 81 q16 66 8 100.5t-65 30.5q-4 0 -1 5t10.5 10.5t17.5 8.5t22 -1q37 -14 58.5 -63.5t7.5 -104.5q-18 -78 -69.5 -143.5t-123.5 -98.5q-59 -27 -118 -6t-84 72q-14 29 -13.5 68.5zM269.5 328.5q-5.5 23.5 0.5 44t22.5 33t41.5 12.5q23 0 42 -18.5t19 -41.5q0 -6 -4 -18l-6 -18 q-4 -10 -5 -19.5t11 -19.5t42 -17.5t67 4t75.5 49t71.5 117.5q10 29 26.5 21t2.5 -39q-35 -76 -70 -117t-71.5 -57.5t-73.5 -15t-74 9.5q-8 2 -40 12t-54 35q-18 20 -23.5 43.5zM518.5 127q-10.5 53 7.5 100q25 51 43.5 91t37 77t39 76t46.5 88q39 74 67.5 102.5t78.5 26.5 q20 -2 41.5 -7t44.5 -1q-23 -12 -54.5 -53t-65.5 -96.5t-67.5 -118t-60.5 -117.5q-14 -29 -29.5 -71t-22 -82t3 -68.5t46.5 -28.5q23 0 47 15.5t48 41t46.5 58.5t42.5 67q16 27 30.5 18t-1.5 -38q-59 -98 -120.5 -156.5t-129.5 -58.5q-25 0 -48.5 13t-43.5 42 q-16 27 -26.5 80zM822.5 195q15.5 41 44 52t49 -10.5t-6.5 -78.5q-8 -16 -4 -35t15.5 -34t29 -24.5t35.5 -9.5q35 2 60.5 9.5t48.5 27.5q41 35 74.5 85t63.5 107.5t55.5 117t48 111.5t43 92t42.5 61q16 16 32.5 24t39.5 11.5t52.5 3.5h74.5q8 0 2 -5.5t-18.5 -11.5t-30 -11 t-29.5 -5q-59 2 -83.5 -23.5t-51.5 -73.5q-33 -59 -71 -155t-86 -189.5t-108.5 -161t-139.5 -67.5q-49 0 -91.5 17.5t-68.5 66.5q-37 68 -21.5 109zM1346 153.5q0 49.5 20 110.5q14 45 34.5 96.5t44 103.5t47.5 103.5t42 94.5q12 25 31.5 34t48.5 9h110q-23 -18 -39 -34 t-31.5 -37.5t-31.5 -53t-39 -78.5q-23 -43 -44 -89t-40.5 -90t-34 -82t-18.5 -65q-14 -66 1 -93.5t38 -29.5q37 0 74.5 33t72.5 83t67 110.5t58 115.5q12 27 27.5 20t1.5 -38q-25 -53 -57.5 -117.5t-73.5 -122t-90 -96.5t-105 -39q-35 0 -61.5 17.5t-39.5 51t-13 83z" />
<glyph unicode="&#x44b;&#x43c;" horiz-adv-x="2037" d="M11.5 138.5q0.5 39.5 23.5 88.5q25 51 43 91t36.5 77t39 76t47.5 88q39 74 67.5 102.5t77.5 26.5q20 -2 42 -7t44 -1q-23 -12 -53.5 -53t-64 -96.5t-67.5 -118t-63 -117.5q-25 -49 -40 -93t-18 -79t7 -56.5t35 -27.5q14 -4 45 8t59 47q33 39 57.5 85t32.5 81 q16 66 8 100.5t-65 30.5q-4 0 -1 5t10.5 10.5t17.5 8.5t22 -1q37 -14 58.5 -63.5t7.5 -104.5q-18 -78 -69.5 -143.5t-123.5 -98.5q-59 -27 -118 -6t-84 72q-14 29 -13.5 68.5zM269.5 328.5q-5.5 23.5 0.5 44t22.5 33t41.5 12.5q23 0 42 -18.5t19 -41.5q0 -6 -4 -18l-6 -18 q-4 -10 -5 -19.5t11 -19.5t42 -17.5t67 4t75.5 49t71.5 117.5q10 29 26.5 21t2.5 -39q-35 -76 -70 -117t-71.5 -57.5t-73.5 -15t-74 9.5q-8 2 -40 12t-54 35q-18 20 -23.5 43.5zM518.5 127q-10.5 53 7.5 100q25 51 43.5 91t37 77t39 76t46.5 88q39 74 67.5 102.5t78.5 26.5 q20 -2 41.5 -7t44.5 -1q-23 -12 -54.5 -53t-65.5 -96.5t-67.5 -118t-60.5 -117.5q-14 -29 -29.5 -71t-22 -82t3 -68.5t46.5 -28.5q23 0 47 15.5t48 41t46.5 58.5t42.5 67q16 27 30.5 18t-1.5 -38q-59 -98 -120.5 -156.5t-129.5 -58.5q-25 0 -48.5 13t-43.5 42 q-16 27 -26.5 80zM822.5 195q15.5 41 44 52t49 -10.5t-6.5 -78.5q-8 -16 -4 -35t15.5 -34t29 -24.5t35.5 -9.5q35 2 60.5 9.5t48.5 27.5q41 35 74.5 85t63.5 107.5t55.5 117t48 111.5t43 92t42.5 61q16 16 32.5 24t39.5 11.5t52.5 3.5h74.5q8 0 2 -5.5t-18.5 -11.5t-30 -11 t-29.5 -5q-59 2 -83.5 -23.5t-51.5 -73.5q-33 -59 -71 -155t-86 -189.5t-108.5 -161t-139.5 -67.5q-49 0 -91.5 17.5t-68.5 66.5q-37 68 -21.5 109zM1309 154.5q0 48.5 20 109.5q14 45 34.5 96.5t44.5 103.5t47.5 103t41.5 95q12 25 31.5 34t48.5 9h111q-23 -18 -39.5 -34 t-31.5 -37.5t-31.5 -53t-39.5 -78.5q-23 -43 -44 -89t-40.5 -90t-34 -82t-18.5 -65q-14 -66 1 -92.5t38 -30.5q41 -6 81 31t76.5 97.5t70.5 135t65 145t58.5 126t51.5 78.5q16 16 33 24t39.5 11.5t52 3.5h74.5q8 0 2 -5.5t-18.5 -11.5t-29.5 -11t-30 -5q-59 2 -82.5 -23.5 t-52.5 -73.5q-23 -39 -46.5 -97t-51 -122.5t-60 -129t-71.5 -115t-85.5 -81t-101.5 -28.5q-35 2 -61.5 19.5t-39.5 51t-13 82zM1741 153.5q0 49.5 20 110.5q14 45 35 96.5t44.5 103.5t47 103.5t41.5 94.5q12 25 31.5 34t48.5 9h111q-23 -18 -39.5 -34t-31.5 -37.5t-31.5 -53 t-39.5 -78.5q-23 -43 -44 -89t-40.5 -90t-34 -82t-18.5 -65q-14 -66 1.5 -93.5t37.5 -29.5q37 0 75 33t72.5 83t66.5 110.5t58 115.5q12 27 27.5 20t1.5 -38q-25 -53 -57.5 -117.5t-73.5 -122t-90 -96.5t-105 -39q-35 0 -61.5 17.5t-39.5 51t-13 83z" />
<glyph unicode="&#x44b;&#x44f;" horiz-adv-x="1609" d="M11.5 138.5q0.5 39.5 23.5 88.5q25 51 43 91t36.5 77t39 76t47.5 88q39 74 67.5 102.5t77.5 26.5q20 -2 42 -7t44 -1q-23 -12 -53.5 -53t-64 -96.5t-67.5 -118t-63 -117.5q-25 -49 -40 -93t-18 -79t7 -56.5t35 -27.5q14 -4 45 8t59 47q33 39 57.5 85t32.5 81 q16 66 8 100.5t-65 30.5q-4 0 -1 5t10.5 10.5t17.5 8.5t22 -1q37 -14 58.5 -63.5t7.5 -104.5q-18 -78 -69.5 -143.5t-123.5 -98.5q-59 -27 -118 -6t-84 72q-14 29 -13.5 68.5zM269.5 328.5q-5.5 23.5 0.5 44t22.5 33t41.5 12.5q23 0 42 -18.5t19 -41.5q0 -6 -4 -18l-6 -18 q-4 -10 -5 -19.5t11 -19.5t42 -17.5t67 4t75.5 49t71.5 117.5q10 29 26.5 21t2.5 -39q-35 -76 -70 -117t-71.5 -57.5t-73.5 -15t-74 9.5q-8 2 -40 12t-54 35q-18 20 -23.5 43.5zM518.5 127q-10.5 53 7.5 100q25 51 43.5 91t37 77t39 76t46.5 88q39 74 67.5 102.5t78.5 26.5 q20 -2 41.5 -7t44.5 -1q-23 -12 -54.5 -53t-65.5 -96.5t-67.5 -118t-60.5 -117.5q-14 -29 -29.5 -71t-22 -82t3 -68.5t46.5 -28.5q23 0 47 15.5t48 41t46.5 58.5t42.5 67q16 27 30.5 18t-1.5 -38q-59 -98 -120.5 -156.5t-129.5 -58.5q-25 0 -48.5 13t-43.5 42 q-16 27 -26.5 80zM826 161q-1 36 12.5 57.5t34 28.5t36 0t20.5 -29.5t-14 -59.5q-8 -18 -4 -38t15.5 -36t29 -27.5t39.5 -11.5q35 -2 60.5 7t48.5 30q47 41 91 100.5t81 124.5q4 4 29 0q10 -2 26 -4q-33 -59 -66.5 -115.5t-72.5 -99.5t-82 -69.5t-92 -26.5q-119 0 -164 84 q-27 49 -28 85zM1167 407.5q-2 32.5 4 61.5q8 37 25.5 75t42.5 70.5t56.5 57t68.5 35.5q55 16 96 8t61.5 -37t19.5 -78t-32 -113q-45 -55 -73 -84q-25 -25 -37.5 -28.5t14.5 45.5t47.5 94t26.5 80t-6.5 56.5t-50.5 23.5q-29 2 -56.5 -11.5t-48.5 -41.5q-23 -31 -48.5 -72 t-37.5 -76q-8 -20 -10 -49t8 -52.5t40 -36.5t87 -5q29 4 29 -11.5t-41 -19.5q-68 -8 -107 7.5t-57.5 42t-20.5 59zM1301.5 127q-5.5 53 13.5 100q25 51 44 91t38.5 77t41 76t48.5 88q20 37 33.5 62.5t27 41t28.5 21.5t40 4q20 -2 41.5 -7t44.5 -1q-23 -12 -54.5 -53 t-65.5 -96.5t-67.5 -118t-60.5 -117.5q-14 -29 -29.5 -71t-21.5 -82t3 -68.5t46 -28.5q39 0 81 43t79 100.5t66.5 115.5t45.5 91q12 27 27.5 20t1.5 -38q-23 -47 -56.5 -112.5t-76.5 -126t-94 -103.5t-111 -43q-25 0 -48.5 13t-43.5 42q-16 27 -21.5 80z" />
<glyph unicode="&#x44c;&#x435;" horiz-adv-x="989" d="M11.5 138.5q0.5 39.5 23.5 88.5q25 51 43 91t36.5 77t39 76t47.5 88q39 74 67.5 102.5t77.5 26.5q20 -2 42 -7t44 -1q-23 -12 -53.5 -53t-64 -96.5t-67.5 -118t-63 -117.5q-25 -49 -40 -93t-18 -79t7 -56.5t35 -27.5q14 -4 45 8t59 47q33 39 57.5 85t32.5 81 q16 66 8 100.5t-65 30.5q-4 0 -1 5t10.5 10.5t17.5 8.5t22 -1q37 -14 58.5 -63.5t7.5 -104.5q-18 -78 -69.5 -143.5t-123.5 -98.5q-59 -27 -118 -6t-84 72q-14 29 -13.5 68.5zM269.5 328.5q-5.5 23.5 0.5 44t22.5 33t41.5 12.5q23 0 42 -18.5t19 -41.5q0 -6 -5 -18t-5 -18 q2 -23 34 -13t81 25q61 16 104 18t103 -2q31 -2 24.5 -19.5t-39.5 -15.5q-31 0 -54.5 1t-45 0t-43 -5t-49.5 -12q-23 -6 -52.5 -16.5t-58.5 -15.5t-55.5 -3t-40.5 21q-18 20 -23.5 43.5zM549 188q0 45 11 96.5t32.5 101.5t50.5 97t64 88q39 45 86 82t94 56.5t91 19.5t79 -24 q29 -23 34 -58t-11.5 -77t-51.5 -85t-84 -79q-25 -18 -58.5 -35t-70.5 -29t-69.5 -19.5t-53.5 -7.5q-12 -29 -21 -75.5t-6 -92t24.5 -79t72.5 -33.5q68 0 122 40t96 95t71.5 114.5t48.5 100.5q6 14 15 21.5t16.5 7.5t10.5 -7.5t-5 -23.5q-29 -61 -62 -130t-78 -127 t-105.5 -96t-146.5 -38q-78 0 -136 49t-60 147zM707 350q14 0 38.5 5t55 16.5t62.5 28.5t61 40q41 35 68.5 78t37.5 80t4 61.5t-30.5 23.5t-67.5 -33t-107 -107q-41 -49 -74.5 -106.5t-47.5 -86.5z" />
<glyph unicode="&#x44c;&#x43b;" horiz-adv-x="1347" d="M11.5 138.5q0.5 39.5 23.5 88.5q25 51 43 91t36.5 77t39 76t47.5 88q39 74 67.5 102.5t77.5 26.5q20 -2 42 -7t44 -1q-23 -12 -53.5 -53t-64 -96.5t-67.5 -118t-63 -117.5q-25 -49 -40 -93t-18 -79t7 -56.5t35 -27.5q14 -4 45 8t59 47q33 39 57.5 85t32.5 81 q16 66 8 100.5t-65 30.5q-4 0 -1 5t10.5 10.5t17.5 8.5t22 -1q37 -14 58.5 -63.5t7.5 -104.5q-18 -78 -69.5 -143.5t-123.5 -98.5q-59 -27 -118 -6t-84 72q-14 29 -13.5 68.5zM269.5 328.5q-5.5 23.5 0.5 44t22.5 33t41.5 12.5q23 0 42 -18.5t19 -41.5q0 -6 -5 -18t-5 -18 q2 -18 15.5 -44t31.5 -36q25 -16 55.5 -23.5t87.5 10.5q29 10 36 -3t-25 -23q-53 -18 -89 -17t-69 11q-86 29 -135 88q-18 20 -23.5 43.5zM527.5 195q15.5 41 44 52t49 -10.5t-6.5 -78.5q-8 -16 -4 -35t15.5 -34t29 -24.5t35.5 -9.5q35 2 60.5 9.5t48.5 27.5q41 35 74.5 85 t63.5 107.5t55.5 117t48 111.5t43 92t42.5 61q16 16 33 24t39.5 11.5t52 3.5h74.5q8 0 2 -5.5t-18.5 -11.5t-29.5 -11t-30 -5q-59 2 -83.5 -23.5t-51.5 -73.5q-33 -59 -70.5 -155t-86 -189.5t-109 -161t-139.5 -67.5q-49 0 -91.5 17.5t-68.5 66.5q-37 68 -21.5 109z M1051 153.5q0 49.5 20 110.5q14 45 34.5 96.5t44.5 103.5t47.5 103.5t41.5 94.5q12 25 31.5 34t48.5 9h111q-23 -18 -39.5 -34t-32 -37.5t-31.5 -53t-39 -78.5q-23 -43 -44 -89t-40.5 -90t-34 -82t-18.5 -65q-14 -66 1 -93.5t38 -29.5q37 0 75 33t72.5 83t66.5 110.5 t58 115.5q12 27 27.5 20t1.5 -38q-25 -53 -57.5 -117.5t-73.5 -122t-90 -96.5t-105 -39q-35 0 -61.5 17.5t-39.5 51t-13 83z" />
<glyph unicode="&#x44c;&#x43c;" horiz-adv-x="1744" d="M11.5 138.5q0.5 39.5 23.5 88.5q25 51 43 91t36.5 77t39 76t47.5 88q39 74 67.5 102.5t77.5 26.5q20 -2 42 -7t44 -1q-23 -12 -53.5 -53t-64 -96.5t-67.5 -118t-63 -117.5q-25 -49 -40 -93t-18 -79t7 -56.5t35 -27.5q14 -4 45 8t59 47q33 39 57.5 85t32.5 81 q16 66 8 100.5t-65 30.5q-4 0 -1 5t10.5 10.5t17.5 8.5t22 -1q37 -14 58.5 -63.5t7.5 -104.5q-18 -78 -69.5 -143.5t-123.5 -98.5q-59 -27 -118 -6t-84 72q-14 29 -13.5 68.5zM269.5 328.5q-5.5 23.5 0.5 44t22.5 33t41.5 12.5q23 0 42 -18.5t19 -41.5q0 -6 -5 -18t-5 -18 q2 -18 15.5 -44t31.5 -36q25 -16 55.5 -23.5t87.5 10.5q29 10 36 -3t-25 -23q-53 -18 -89 -17t-69 11q-86 29 -135 88q-18 20 -23.5 43.5zM529.5 195q15.5 41 44 52t49 -10.5t-6.5 -78.5q-8 -16 -4 -35t15.5 -34t29 -24.5t35.5 -9.5q35 2 60.5 9.5t48.5 27.5q41 35 74.5 85 t63.5 107.5t55.5 117t48 111.5t43 92t42.5 61q16 16 33 24t39.5 11.5t52 3.5h74.5q8 0 2 -5.5t-18.5 -11.5t-29.5 -11t-30 -5q-59 2 -83.5 -23.5t-51.5 -73.5q-33 -59 -70.5 -155t-86 -189.5t-108.5 -161t-140 -67.5q-49 0 -91 17.5t-69 66.5q-37 68 -21.5 109zM1016 154.5 q0 48.5 20 109.5q14 45 35 96.5t44.5 103.5t47 103t41.5 95q12 25 31.5 34t48.5 9h111q-23 -18 -39.5 -34t-31.5 -37.5t-31.5 -53t-39.5 -78.5q-23 -43 -44 -89t-40.5 -90t-34 -82t-18.5 -65q-14 -66 1.5 -92.5t37.5 -30.5q41 -6 81 31t77 97.5t70.5 135t64.5 145t58.5 126 t52.5 78.5q16 16 32.5 24t39 11.5t52 3.5h74.5q8 0 2 -5.5t-18 -11.5t-29.5 -11t-30.5 -5q-59 2 -82.5 -23.5t-52.5 -73.5q-23 -39 -46 -97t-51 -122.5t-60.5 -129t-71.5 -115t-85.5 -81t-101.5 -28.5q-35 2 -61.5 19.5t-39.5 51t-13 82zM1448 153.5q0 49.5 20 110.5 q14 45 35 96.5t44.5 103.5t47 103.5t41.5 94.5q12 25 32 34t48 9h111q-23 -18 -39 -34t-31.5 -37.5t-32 -53t-38.5 -78.5q-23 -43 -44.5 -89t-41 -90t-34 -82t-18.5 -65q-14 -66 1.5 -93.5t37.5 -29.5q37 0 75 33t72.5 83t66.5 110.5t59 115.5q12 27 27.5 20t0.5 -38 q-25 -53 -57.5 -117.5t-73.5 -122t-90 -96.5t-104 -39q-35 0 -61.5 17.5t-40 51t-13.5 83z" />
<glyph unicode="&#x44c;&#x44f;" horiz-adv-x="1323" d="M11.5 138.5q0.5 39.5 23.5 88.5q25 51 43 91t36.5 77t39 76t47.5 88q39 74 67.5 102.5t77.5 26.5q20 -2 42 -7t44 -1q-23 -12 -53.5 -53t-64 -96.5t-67.5 -118t-63 -117.5q-25 -49 -40 -93t-18 -79t7 -56.5t35 -27.5q14 -4 45 8t59 47q33 39 57.5 85t32.5 81 q16 66 8 100.5t-65 30.5q-4 0 -1 5t10.5 10.5t17.5 8.5t22 -1q37 -14 58.5 -63.5t7.5 -104.5q-18 -78 -69.5 -143.5t-123.5 -98.5q-59 -27 -118 -6t-84 72q-14 29 -13.5 68.5zM269.5 328.5q-5.5 23.5 0.5 44t22.5 33t41.5 12.5q23 0 42 -18.5t19 -41.5q0 -6 -5 -18t-5 -18 q2 -18 15.5 -44t31.5 -36q25 -16 55.5 -23.5t87.5 10.5q29 10 36 -3t-25 -23q-53 -18 -89 -17t-69 11q-86 29 -135 88q-18 20 -23.5 43.5zM519 161q-1 36 12.5 57.5t34 28.5t35.5 0t20.5 -29.5t-13.5 -59.5q-8 -18 -4 -38t15.5 -36t29 -27.5t39.5 -11.5q35 -2 60.5 7 t48.5 30q47 41 91 100.5t81 124.5q4 4 28 0q11 -2 27 -4q-33 -59 -66.5 -115.5t-72.5 -99.5t-82 -69.5t-92 -26.5q-119 0 -164 84q-27 49 -28 85zM860 407.5q-2 32.5 4 61.5q8 37 25.5 75t42 70.5t56.5 57t69 35.5q55 16 96 8t61.5 -37t19.5 -78t-32 -113q-45 -55 -74 -84 q-25 -25 -37 -28.5t15 45.5t47.5 94t26.5 80t-6.5 56.5t-51.5 23.5q-29 2 -56.5 -11.5t-47.5 -41.5q-23 -31 -48.5 -72t-37.5 -76q-8 -20 -10 -49t8 -52.5t39.5 -36.5t87.5 -5q29 4 28.5 -11.5t-41.5 -19.5q-68 -8 -106.5 7.5t-57 42t-20.5 59zM994.5 127q-5.5 53 13.5 100 q25 51 44 91t38.5 77t41 76t48.5 88q20 37 33.5 62.5t26.5 41t28.5 21.5t40.5 4q20 -2 41.5 -7t44.5 -1q-23 -12 -54.5 -53t-65.5 -96.5t-67.5 -118t-60.5 -117.5q-14 -29 -29.5 -71t-21.5 -82t3 -68.5t46 -28.5q39 0 81 43t78.5 100.5t66.5 115.5t46 91q12 27 27.5 20 t1.5 -38q-23 -47 -56.5 -112.5t-76.5 -126t-94.5 -103.5t-110.5 -43q-25 0 -48.5 13t-43.5 42q-16 27 -21.5 80z" />
<glyph unicode="&#x44e;&#x43b;" horiz-adv-x="1810" d="M-74 -14q74 147 140.5 290.5t142.5 282.5q39 74 67.5 102.5t77.5 26.5q20 -2 42 -7t44 -1q-23 -12 -54.5 -53t-65 -96.5t-67 -118t-60.5 -117.5q-12 -27 -20.5 -43t-19 -41t-29 -66t-50.5 -116q-12 -23 -28.5 -27t-49.5 -4q-23 -2 -38 -2t-32 -10zM170 319q8 18 22.5 37 t31 34.5t37 23.5t42.5 6q23 0 43.5 -7t40 -15.5t38.5 -15.5t40 -9q29 -4 46 9t28 36q4 6 18 5t10 -5q-16 -39 -51 -76t-82 -33q-41 4 -82 25.5t-82 25.5q-23 2 -41 -11t-28 -32q0 -4 -6.5 -5t-12.5 0t-10 2t-2 5zM371.5 218.5q9.5 64.5 38.5 131.5q29 70 72.5 132.5 t96 108.5t106.5 72.5t106 24.5q57 0 90.5 -32.5t45 -84t2.5 -115.5t-38 -132q-23 -53 -68 -119t-102 -119q27 -51 94 -51q29 0 56.5 16.5t54 43t50 62.5t44.5 72q8 16 26.5 8t6.5 -30q-18 -31 -42 -67t-54.5 -66.5t-67.5 -51t-78 -20.5q-45 0 -77 14.5t-50 36.5 q-43 -31 -87 -50t-89 -17q-57 2 -90 33.5t-44.5 83t-2 116zM481 157q-4 -44 6.5 -74t36.5 -38q29 -8 65 6.5t73 44.5q-33 47 -33 99q2 35 17.5 60.5t51.5 25.5q27 0 44.5 -18.5t17.5 -41.5q0 -6 -1 -11t-3 -11q33 47 61 108q29 61 45.5 117.5t19.5 100.5t-9 74t-39 38 q-33 8 -71 -9.5t-77 -54t-75 -89t-62 -111.5q-29 -61 -46.5 -116.5t-21.5 -99.5zM990.5 195q15.5 41 44 52t49 -10.5t-6.5 -78.5q-8 -16 -4 -35t15.5 -34t29 -24.5t35.5 -9.5q35 2 60.5 9.5t48.5 27.5q41 35 74.5 85t63.5 107.5t55.5 117t48 111.5t43 92t42.5 61 q16 16 32.5 24t39 11.5t52.5 3.5h75q8 0 2 -5.5t-18.5 -11.5t-30 -11t-29.5 -5q-59 2 -83.5 -23.5t-51.5 -73.5q-33 -59 -71 -155t-86 -189.5t-108.5 -161t-140.5 -67.5q-49 0 -91 17.5t-68 66.5q-37 68 -21.5 109zM1513 153.5q0 49.5 21 110.5q14 45 34.5 96.5t44 103.5 t47.5 103.5t42 94.5q12 25 31.5 34t48.5 9h110q-23 -18 -39 -34t-31.5 -37.5t-31.5 -53t-39 -78.5q-23 -43 -44 -89t-40.5 -90t-34 -82t-18.5 -65q-14 -66 1 -93.5t38 -29.5q37 0 74.5 33t72.5 83t66.5 110.5t58.5 115.5q12 27 27.5 20t1.5 -38q-25 -53 -57.5 -117.5 t-73.5 -122t-90.5 -96.5t-104.5 -39q-35 0 -61.5 17.5t-40 51t-13.5 83z" />
<glyph unicode="&#x44e;&#x43c;" horiz-adv-x="2205" d="M-74 -14q74 147 140.5 290.5t142.5 282.5q39 74 67.5 102.5t77.5 26.5q20 -2 42 -7t44 -1q-23 -12 -54.5 -53t-65 -96.5t-67 -118t-60.5 -117.5q-12 -27 -20.5 -43t-19 -41t-29 -66t-50.5 -116q-12 -23 -28.5 -27t-49.5 -4q-23 -2 -38 -2t-32 -10zM170 319q8 18 22.5 37 t31 34.5t37 23.5t42.5 6q23 0 43.5 -7t40 -15.5t38.5 -15.5t40 -9q29 -4 46 9t28 36q4 6 18 5t10 -5q-16 -39 -51 -76t-82 -33q-41 4 -82 25.5t-82 25.5q-23 2 -41 -11t-28 -32q0 -4 -6.5 -5t-12.5 0t-10 2t-2 5zM371.5 218.5q9.5 64.5 38.5 131.5q29 70 72.5 132.5 t96 108.5t106.5 72.5t106 24.5q57 0 90.5 -32.5t45 -84t2.5 -115.5t-38 -132q-23 -53 -68 -119t-102 -119q27 -51 94 -51q29 0 56.5 16.5t54 43t50 62.5t44.5 72q8 16 26.5 8t6.5 -30q-18 -31 -42 -67t-54.5 -66.5t-67.5 -51t-78 -20.5q-45 0 -77 14.5t-50 36.5 q-43 -31 -87 -50t-89 -17q-57 2 -90 33.5t-44.5 83t-2 116zM481 157q-4 -44 6.5 -74t36.5 -38q29 -8 65 6.5t73 44.5q-33 47 -33 99q2 35 17.5 60.5t51.5 25.5q27 0 44.5 -18.5t17.5 -41.5q0 -6 -1 -11t-3 -11q33 47 61 108q29 61 45.5 117.5t19.5 100.5t-9 74t-39 38 q-33 8 -71 -9.5t-77 -54t-75 -89t-62 -111.5q-29 -61 -46.5 -116.5t-21.5 -99.5zM990.5 195q15.5 41 44 52t49 -10.5t-6.5 -78.5q-8 -16 -4 -35t15.5 -34t29 -24.5t35.5 -9.5q35 2 60.5 9.5t48.5 27.5q41 35 74.5 85t63.5 107.5t55.5 117t48 111.5t43 92t42.5 61 q16 16 32.5 24t39 11.5t52.5 3.5h75q8 0 2 -5.5t-18.5 -11.5t-30 -11t-29.5 -5q-59 2 -83.5 -23.5t-51.5 -73.5q-33 -59 -71 -155t-86 -189.5t-108.5 -161t-140.5 -67.5q-49 0 -91 17.5t-68 66.5q-37 68 -21.5 109zM1477 154.5q0 48.5 20 109.5q14 45 34.5 96.5t44 103.5 t47.5 103t42 95q12 25 31.5 34t48.5 9h110q-23 -18 -39 -34t-31.5 -37.5t-31.5 -53t-39 -78.5q-23 -43 -44 -89t-40.5 -90t-34 -82t-18.5 -65q-14 -66 1 -92.5t38 -30.5q41 -6 81 31t76.5 97.5t70.5 135t64.5 145t58.5 126t52 78.5q16 16 32.5 24t39.5 11.5t52.5 3.5h74.5 q8 0 2 -5.5t-18.5 -11.5t-30 -11t-29.5 -5q-59 2 -82.5 -23.5t-52.5 -73.5q-23 -39 -46.5 -97t-51 -122.5t-60 -129t-71.5 -115t-85.5 -81t-101.5 -28.5q-35 2 -61.5 19.5t-39.5 51t-13 82zM1909 153.5q0 49.5 20 110.5q14 45 35 96.5t44.5 103.5t47 103.5t41.5 94.5 q12 25 31.5 34t48.5 9h111q-23 -18 -39.5 -34t-31.5 -37.5t-31.5 -53t-39.5 -78.5q-23 -43 -44 -89t-40.5 -90t-34 -82t-18.5 -65q-14 -66 1 -93.5t38 -29.5q37 0 75 33t72.5 83t66.5 110.5t58 115.5q12 27 27.5 20t1.5 -38q-25 -53 -57.5 -117.5t-73.5 -122t-90 -96.5 t-105 -39q-35 0 -61.5 17.5t-39.5 51t-13 83z" />
<glyph unicode="&#x44e;&#x44f;" horiz-adv-x="1769" d="M-74 -14q74 147 140.5 290.5t142.5 282.5q39 74 67.5 102.5t77.5 26.5q20 -2 42 -7t44 -1q-23 -12 -54.5 -53t-65 -96.5t-67 -118t-60.5 -117.5q-12 -27 -20.5 -43t-19 -41t-29 -66t-50.5 -116q-12 -23 -28.5 -27t-49.5 -4q-23 -2 -38 -2t-32 -10zM170 319q8 18 22.5 37 t31 34.5t37 23.5t42.5 6q23 0 43.5 -7t40 -15.5t38.5 -15.5t40 -9q29 -4 46 9t28 36q4 6 18 5t10 -5q-16 -39 -51 -76t-82 -33q-41 4 -82 25.5t-82 25.5q-23 2 -41 -11t-28 -32q0 -4 -6.5 -5t-12.5 0t-10 2t-2 5zM371.5 218.5q9.5 64.5 38.5 131.5q29 70 72.5 132.5 t96 108.5t106.5 72.5t106 24.5q57 0 90.5 -32.5t45 -84t2.5 -115.5t-38 -132q-23 -53 -68 -119t-102 -119q27 -51 94 -51q29 0 56.5 16.5t54 43t50 62.5t44.5 72q8 16 26.5 8t6.5 -30q-18 -31 -42 -67t-54.5 -66.5t-67.5 -51t-78 -20.5q-45 0 -77 14.5t-50 36.5 q-43 -31 -87 -50t-89 -17q-57 2 -90 33.5t-44.5 83t-2 116zM481 157q-4 -44 6.5 -74t36.5 -38q29 -8 65 6.5t73 44.5q-33 47 -33 99q2 35 17.5 60.5t51.5 25.5q27 0 44.5 -18.5t17.5 -41.5q0 -6 -1 -11t-3 -11q33 47 61 108q29 61 45.5 117.5t19.5 100.5t-9 74t-39 38 q-33 8 -71 -9.5t-77 -54t-75 -89t-62 -111.5q-29 -61 -46.5 -116.5t-21.5 -99.5zM986 161q-1 36 12.5 57.5t34 28.5t35.5 0t20.5 -29.5t-13.5 -59.5q-8 -18 -4 -38t15.5 -36t29 -27.5t39.5 -11.5q35 -2 60.5 7t48.5 30q47 41 91 100.5t81 124.5q4 4 28 0q11 -2 27 -4 q-33 -59 -66.5 -115.5t-72.5 -99.5t-82 -69.5t-92 -26.5q-119 0 -164 84q-27 49 -28 85zM1327 407.5q-2 32.5 4 61.5q8 37 25.5 75t42 70.5t56.5 57t69 35.5q55 16 96 8t61.5 -37t19.5 -78t-32 -113q-45 -55 -74 -84q-25 -25 -37 -28.5t15 45.5t47 94t26.5 80t-6 56.5 t-51.5 23.5q-29 2 -56.5 -11.5t-47.5 -41.5q-23 -31 -48.5 -72t-37.5 -76q-8 -20 -10.5 -49t8 -52.5t40 -36.5t87.5 -5q29 4 28.5 -11.5t-41.5 -19.5q-68 -8 -106.5 7.5t-57 42t-20.5 59zM1461.5 127q-5.5 53 13.5 100q25 51 44 91t38.5 77t41 76t48.5 88q20 37 33.5 62.5 t26.5 41t28.5 21.5t40.5 4q20 -2 41.5 -7t44.5 -1q-23 -12 -54.5 -53t-65.5 -96.5t-67.5 -118t-60.5 -117.5q-14 -29 -29.5 -71t-22 -82t3 -68.5t46.5 -28.5q39 0 81 43t78.5 100.5t66.5 115.5t46 91q12 27 27.5 20t1.5 -38q-23 -47 -56.5 -112.5t-76.5 -126t-94.5 -103.5 t-110.5 -43q-25 0 -48.5 13t-43.5 42q-16 27 -21.5 80z" />
<glyph unicode="&#x44f;&#x43b;" horiz-adv-x="1568" d="M-32 161q-1 36 12.5 57.5t34 28.5t36 0t20.5 -29.5t-14 -59.5q-8 -18 -4 -38t15.5 -36t29 -27.5t39.5 -11.5q35 -2 60.5 7t48.5 30q47 41 91 100.5t81 124.5q4 4 28 0q11 -2 27 -4q-33 -59 -66.5 -115.5t-72.5 -99.5t-82 -69.5t-92 -26.5q-119 0 -164 84q-27 49 -28 85z M309 407.5q-2 32.5 4 61.5q8 37 25.5 75t42.5 70.5t56.5 57t68.5 35.5q55 16 96 8t61.5 -37t19.5 -78t-32 -113q-45 -55 -73 -84q-25 -25 -37.5 -28.5t14.5 45.5t47.5 94t26.5 80t-6.5 56.5t-51.5 23.5q-29 2 -56.5 -11.5t-47.5 -41.5q-23 -31 -48.5 -72t-37.5 -76 q-8 -20 -10 -49t8 -52.5t40 -36.5t87 -5q29 4 29 -11.5t-41 -19.5q-68 -8 -107 7.5t-57.5 42t-20.5 59zM443.5 127q-5.5 53 13.5 100q25 51 44 91t38.5 77t41 76t48.5 88q20 37 33.5 62.5t26.5 41t28.5 21.5t40.5 4q20 -2 41.5 -7t44.5 -1q-23 -12 -54.5 -53t-65.5 -96.5 t-67.5 -118t-60.5 -117.5q-14 -29 -29.5 -71t-21.5 -82t3 -68.5t46 -28.5q41 0 86 47t98 135q16 27 31.5 20t-0.5 -36q-59 -102 -121.5 -160.5t-130.5 -58.5q-25 0 -48.5 13t-43.5 42q-16 27 -21.5 80zM748.5 195q15.5 41 44 52t49 -10.5t-5.5 -78.5q-8 -16 -4 -35t15 -34 t28.5 -24.5t35.5 -9.5q35 2 60.5 9.5t48.5 27.5q41 35 74.5 85t63.5 107.5t55.5 117t48 111.5t43 92t43.5 61q16 16 32.5 24t39 11.5t52 3.5h74.5q8 0 2 -5.5t-18 -11.5t-29.5 -11t-30.5 -5q-59 2 -83.5 -23.5t-51.5 -73.5q-33 -59 -70.5 -155t-86 -189.5t-108.5 -161 t-140 -67.5q-49 0 -91 17.5t-69 66.5q-37 68 -21.5 109zM1272 153.5q0 49.5 20 110.5q14 45 35 96.5t44.5 103.5t47 103.5t41.5 94.5q12 25 31.5 34t48.5 9h111q-23 -18 -39.5 -34t-31.5 -37.5t-31.5 -53t-39.5 -78.5q-23 -43 -44 -89t-40.5 -90t-34 -82t-18.5 -65 q-14 -66 1.5 -93.5t37.5 -29.5q37 0 75 33t72.5 83t66.5 110.5t58 115.5q12 27 27.5 20t1.5 -38q-25 -53 -57.5 -117.5t-73.5 -122t-90 -96.5t-105 -39q-35 0 -61.5 17.5t-39.5 51t-13 83z" />
<glyph unicode="&#x44f;&#x43c;" horiz-adv-x="1964" d="M-32 161q-1 36 12.5 57.5t34 28.5t36 0t20.5 -29.5t-14 -59.5q-8 -18 -4 -38t15.5 -36t29 -27.5t39.5 -11.5q35 -2 60.5 7t48.5 30q47 41 91 100.5t81 124.5q4 4 28 0q11 -2 27 -4q-33 -59 -66.5 -115.5t-72.5 -99.5t-82 -69.5t-92 -26.5q-119 0 -164 84q-27 49 -28 85z M309 407.5q-2 32.5 4 61.5q8 37 25.5 75t42.5 70.5t56.5 57t68.5 35.5q55 16 96 8t61.5 -37t19.5 -78t-32 -113q-45 -55 -73 -84q-25 -25 -37.5 -28.5t14.5 45.5t47.5 94t26.5 80t-6.5 56.5t-51.5 23.5q-29 2 -56.5 -11.5t-47.5 -41.5q-23 -31 -48.5 -72t-37.5 -76 q-8 -20 -10 -49t8 -52.5t40 -36.5t87 -5q29 4 29 -11.5t-41 -19.5q-68 -8 -107 7.5t-57.5 42t-20.5 59zM443.5 127q-5.5 53 13.5 100q25 51 44 91t38.5 77t41 76t48.5 88q20 37 33.5 62.5t26.5 41t28.5 21.5t40.5 4q20 -2 41.5 -7t44.5 -1q-23 -12 -54.5 -53t-65.5 -96.5 t-67.5 -118t-60.5 -117.5q-14 -29 -29.5 -71t-21.5 -82t3 -68.5t46 -28.5q41 0 86 47t98 135q16 27 31.5 20t-0.5 -36q-59 -102 -121.5 -160.5t-130.5 -58.5q-25 0 -48.5 13t-43.5 42q-16 27 -21.5 80zM748.5 195q15.5 41 44 52t49 -10.5t-5.5 -78.5q-8 -16 -4 -35t15 -34 t28.5 -24.5t35.5 -9.5q35 2 60.5 9.5t48.5 27.5q41 35 74.5 85t63.5 107.5t55.5 117t48 111.5t43 92t43.5 61q16 16 32.5 24t39 11.5t52 3.5h74.5q8 0 2 -5.5t-18 -11.5t-29.5 -11t-30.5 -5q-59 2 -83.5 -23.5t-51.5 -73.5q-33 -59 -70.5 -155t-86 -189.5t-108.5 -161 t-140 -67.5q-49 0 -91 17.5t-69 66.5q-37 68 -21.5 109zM1235 154.5q0 48.5 20 109.5q14 45 35 96.5t44.5 103.5t47 103t41.5 95q12 25 32 34t48 9h111q-23 -18 -39 -34t-31.5 -37.5t-32 -53t-38.5 -78.5q-23 -43 -44.5 -89t-41 -90t-34 -82t-18.5 -65q-14 -66 1.5 -92.5 t37.5 -30.5q41 -6 81 31t77 97.5t70.5 135t64.5 145t58.5 126t52.5 78.5q16 16 32.5 24t39 11.5t52 3.5h74.5q8 0 2 -5.5t-18 -11.5t-29.5 -11t-29.5 -5q-59 2 -83 -23.5t-53 -73.5q-23 -39 -46 -97t-51 -122.5t-60.5 -129t-71.5 -115t-85 -81t-101 -28.5q-35 2 -61.5 19.5 t-40 51t-13.5 82zM1667 153.5q0 49.5 21 110.5q14 45 34.5 96.5t44 103.5t47 103.5t41.5 94.5q12 25 32 34t48 9h111q-23 -18 -39 -34t-31.5 -37.5t-32 -53t-38.5 -78.5q-23 -43 -44.5 -89t-41 -90t-33.5 -82t-19 -65q-14 -66 1.5 -93.5t37.5 -29.5q37 0 75 33t73 83 t66.5 110.5t58.5 115.5q12 27 27.5 20t0.5 -38q-25 -53 -57.5 -117.5t-73.5 -122t-90 -96.5t-104 -39q-35 0 -61.5 17.5t-40 51t-13.5 83z" />
<glyph unicode="&#x44f;&#x44f;" horiz-adv-x="1529" d="M-32 161q-1 36 12.5 57.5t34 28.5t36 0t20.5 -29.5t-14 -59.5q-8 -18 -4 -38t15.5 -36t29 -27.5t39.5 -11.5q35 -2 60.5 7t48.5 30q47 41 91 100.5t81 124.5q4 4 28 0q11 -2 27 -4q-33 -59 -66.5 -115.5t-72.5 -99.5t-82 -69.5t-92 -26.5q-119 0 -164 84q-27 49 -28 85z M309 407.5q-2 32.5 4 61.5q8 37 25.5 75t42.5 70.5t56.5 57t68.5 35.5q55 16 96 8t61.5 -37t19.5 -78t-32 -113q-45 -55 -73 -84q-25 -25 -37.5 -28.5t14.5 45.5t47.5 94t26.5 80t-6.5 56.5t-51.5 23.5q-29 2 -56.5 -11.5t-47.5 -41.5q-23 -31 -48.5 -72t-37.5 -76 q-8 -20 -10 -49t8 -52.5t40 -36.5t87 -5q29 4 29 -11.5t-41 -19.5q-68 -8 -107 7.5t-57.5 42t-20.5 59zM443.5 127q-5.5 53 13.5 100q25 51 44 91t38.5 77t41 76t48.5 88q20 37 33.5 62.5t26.5 41t28.5 21.5t40.5 4q20 -2 41.5 -7t44.5 -1q-23 -12 -54.5 -53t-65.5 -96.5 t-67.5 -118t-60.5 -117.5q-14 -29 -29.5 -71t-21.5 -82t3 -68.5t46 -28.5q41 0 86 47t98 135q16 27 31.5 20t-0.5 -36q-59 -102 -121.5 -160.5t-130.5 -58.5q-25 0 -48.5 13t-43.5 42q-16 27 -21.5 80zM746 161q-1 36 12.5 57.5t34 28.5t36 0t20.5 -29.5t-13 -59.5 q-8 -18 -4 -38t15 -36t28.5 -27.5t39.5 -11.5q35 -2 60.5 7t48.5 30q47 41 91 100.5t81 124.5q4 4 29 0q10 -2 26 -4q-33 -59 -66.5 -115.5t-72.5 -99.5t-82 -69.5t-92 -26.5q-119 0 -164 84q-27 49 -28 85zM1088 407.5q-2 32.5 4 61.5q8 37 25.5 75t42 70.5t56 57 t68.5 35.5q55 16 96 8t61.5 -37t19.5 -78t-31 -113q-45 -55 -74 -84q-25 -25 -37 -28.5t14 45.5q27 49 47.5 94t26.5 80t-6 56.5t-51 23.5q-29 2 -56.5 -11.5t-48.5 -41.5q-23 -31 -48.5 -72t-37.5 -76q-8 -20 -10 -49t8 -52.5t40 -36.5t87 -5q29 4 29 -11.5t-41 -19.5 q-68 -8 -107 7.5t-57 42t-20 59zM1222 127q-5 53 13 100q25 51 44 91t38.5 77t41 76t48.5 88q20 37 33.5 62.5t27 41t28.5 21.5t40 4q20 -2 41.5 -7t44.5 -1q-23 -12 -54.5 -53t-65.5 -96.5t-67.5 -118t-60.5 -117.5q-14 -29 -29.5 -71t-21.5 -82t3 -68.5t46 -28.5 q39 0 81 43t79 100.5t66.5 115.5t46.5 91q12 27 27.5 20t0.5 -38q-23 -47 -56.5 -112.5t-76.5 -126t-94 -103.5t-111 -43q-25 0 -48 13t-44 42q-16 27 -21 80z" />
<glyph unicode="&#x7a;&#x7a;" horiz-adv-x="1396" d="M41 -1q0 24 10 42q6 8 29.5 20.5t52.5 23.5t54.5 21.5t35.5 16.5q39 18 84 70.5t91 117t92.5 128t87.5 106.5q-37 10 -84.5 19t-87.5 9q-49 0 -86 -10t-72 -44t-75 -99.5t-95 -173.5q-6 -10 -13.5 -14.5t-13.5 -2.5t-7 9.5t7 23.5q6 10 22.5 44t36 73t37 73.5t25.5 49.5 q37 68 74 107.5t71.5 60t68.5 26.5t65 6q25 0 49 -9t46.5 -20t46 -20.5t46.5 -9.5q18 0 32.5 6t25 14.5t17.5 14.5t15 6q14 0 24.5 -13.5t10.5 -31.5q-2 -29 -19.5 -36t-31.5 -15q-53 -29 -102.5 -89.5t-98.5 -131t-96 -138t-94 -110.5q25 -8 57.5 -17.5t67 -15.5t67.5 -8 t55 4q59 16 105.5 74.5t87.5 134.5q27 47 49.5 96t58.5 115q37 68 74 107.5t72 60t68.5 26.5t64.5 6q25 0 49.5 -9t47 -20t46 -20.5t45.5 -9.5q18 0 32.5 6t25 14.5t17.5 14.5t15 6q14 0 24.5 -13.5t10.5 -31.5q-2 -29 -19.5 -36t-31.5 -15q-53 -29 -102 -89.5t-98.5 -131 t-96.5 -138t-94 -110.5q25 -8 57.5 -17.5t67.5 -15.5t67.5 -8t55.5 4q47 12 88 57t75.5 100.5t61.5 113t45 93.5q6 14 23.5 13.5t5.5 -29.5q-35 -84 -76 -165t-87 -143.5t-99.5 -99t-110.5 -34.5q-47 2 -91 8t-82 12t-68.5 9t-51.5 -1q-33 -8 -62.5 -24.5t-64.5 -16.5 t-35 24t11 42q6 8 29.5 20.5t52 23.5t54 21.5t36.5 16.5q39 18 84 70.5t91 117t92 128t87 106.5q-37 10 -84 19t-88 9q-31 0 -56.5 -2t-48 -11t-44 -29.5t-48.5 -55.5q-33 -47 -62.5 -108.5t-58.5 -112.5q-31 -57 -63.5 -106.5t-69.5 -85t-75.5 -56t-81.5 -18.5 q-47 2 -91.5 8t-82 12t-68.5 9t-51 -1q-33 -8 -62.5 -24.5t-64.5 -16.5t-35 24z" />
<glyph unicode="&#x451;&#x43b;" horiz-adv-x="1320" d="M63 188q0 45 11.5 96.5t33 101.5t50 97t63.5 88q39 45 86 82t94.5 56.5t91.5 19.5t78 -24q29 -23 34 -58t-11 -77t-51 -84.5t-84 -79.5q-25 -18 -58.5 -35t-70.5 -29t-70 -19.5t-53 -7.5q-12 -29 -21.5 -75.5t-6.5 -92t24.5 -79t72.5 -33.5q68 0 127.5 42t116.5 128 q8 12 18.5 18t18.5 6t10 -8t-6 -22q-68 -117 -141.5 -162t-159.5 -45q-78 0 -136 49t-61 147zM221 350q14 0 39 5t55.5 16.5t62 28.5t60.5 40q41 35 69 78t38 80t4 61.5t-30.5 23.5t-67.5 -33t-107 -107q-41 -49 -74.5 -106.5t-48.5 -86.5zM330 901q0 29 18.5 48.5 t46.5 19.5q29 0 49.5 -18.5t20.5 -49.5q0 -29 -18.5 -48t-47.5 -19t-49 18t-20 49zM500.5 195q15.5 41 44 52t49 -10.5t-5.5 -78.5q-8 -16 -4 -35t15 -34t28.5 -24.5t36.5 -9.5q35 2 60 9.5t48 27.5q41 35 75 85t63.5 107.5t55 117t48 111.5t43 92t43.5 61q16 16 32.5 24 t39 11.5t52 3.5h74.5q8 0 2 -5.5t-18 -11.5t-29.5 -11t-29.5 -5q-59 2 -84 -23.5t-52 -73.5q-33 -59 -70.5 -155t-85.5 -189.5t-108.5 -161t-140.5 -67.5q-49 0 -91 17.5t-69 66.5q-37 68 -21.5 109zM594 901q0 29 18.5 48.5t46.5 19.5q29 0 49.5 -18.5t20.5 -49.5 q0 -29 -18.5 -48t-46.5 -19q-29 0 -49.5 18t-20.5 49zM1024 153.5q0 49.5 20 110.5q14 45 35 96.5t44.5 103.5t47 103.5t41.5 94.5q12 25 32 34t48 9h111q-23 -18 -39 -34t-31.5 -37.5t-32 -53t-38.5 -78.5q-23 -43 -44.5 -89t-41 -90t-34 -82t-18.5 -65q-14 -66 1.5 -93.5 t37.5 -29.5q37 0 75 33t73 83t66.5 110.5t58.5 115.5q12 27 27.5 20t0.5 -38q-25 -53 -57.5 -117.5t-73.5 -122t-90 -96.5t-104 -39q-35 0 -61.5 17.5t-40 51t-13.5 83z" />
<glyph unicode="&#x451;&#x43c;" horiz-adv-x="1716" d="M63 188q0 45 11.5 96.5t33 101.5t50 97t63.5 88q39 45 86 82t94.5 56.5t91.5 19.5t78 -24q29 -23 34 -58t-11 -77t-51 -84.5t-84 -79.5q-25 -18 -58.5 -35t-70.5 -29t-70 -19.5t-53 -7.5q-12 -29 -21.5 -75.5t-6.5 -92t24.5 -79t72.5 -33.5q68 0 127.5 42t116.5 128 q8 12 18.5 18t18.5 6t10 -8t-6 -22q-68 -117 -141.5 -162t-159.5 -45q-78 0 -136 49t-61 147zM221 350q14 0 39 5t55.5 16.5t62 28.5t60.5 40q41 35 69 78t38 80t4 61.5t-30.5 23.5t-67.5 -33t-107 -107q-41 -49 -74.5 -106.5t-48.5 -86.5zM330 901q0 29 18.5 48.5 t46.5 19.5q29 0 49.5 -18.5t20.5 -49.5q0 -29 -18.5 -48t-47.5 -19t-49 18t-20 49zM500.5 195q15.5 41 44 52t49 -10.5t-5.5 -78.5q-8 -16 -4 -35t15 -34t28.5 -24.5t36.5 -9.5q35 2 60 9.5t48 27.5q41 35 75 85t63.5 107.5t55 117t48 111.5t43 92t43.5 61q16 16 32.5 24 t39 11.5t52 3.5h74.5q8 0 2 -5.5t-18 -11.5t-29.5 -11t-29.5 -5q-59 2 -84 -23.5t-52 -73.5q-33 -59 -70.5 -155t-85.5 -189.5t-108.5 -161t-140.5 -67.5q-49 0 -91 17.5t-69 66.5q-37 68 -21.5 109zM594 901q0 29 18.5 48.5t46.5 19.5q29 0 49.5 -18.5t20.5 -49.5 q0 -29 -18.5 -48t-46.5 -19q-29 0 -49.5 18t-20.5 49zM987 154.5q0 48.5 21 109.5q14 45 34.5 96.5t44 103.5t47 103t42.5 95q12 25 31.5 34t47.5 9h111q-23 -18 -39 -34t-31.5 -37.5t-32 -53t-38.5 -78.5q-23 -43 -44.5 -89t-41 -90t-33.5 -82t-19 -65q-14 -66 1.5 -92.5 t37.5 -30.5q41 -6 81 31t77 97.5t71 135t64.5 145t58 126t52.5 78.5q16 16 32.5 24t39 11.5t52 3.5h75.5q8 0 1.5 -5.5t-18.5 -11.5t-29.5 -11t-29.5 -5q-59 2 -83 -23.5t-52 -73.5q-23 -39 -46.5 -97t-51 -122.5t-60.5 -129t-72 -115t-85 -81t-101 -28.5q-35 2 -61.5 19.5 t-40 51t-13.5 82zM1419 153.5q0 49.5 21 110.5q14 45 34.5 96.5t44 103.5t47.5 103.5t42 94.5q12 25 31.5 34t48.5 9h110q-23 -18 -39 -34t-31.5 -37.5t-32 -53t-38.5 -78.5q-23 -43 -44.5 -89t-41 -90t-33.5 -82t-18 -65q-14 -66 1 -93.5t38 -29.5q37 0 74.5 33t72.5 83 t66.5 110.5t58.5 115.5q12 27 27.5 20t1.5 -38q-25 -53 -58 -117.5t-73.5 -122t-90 -96.5t-104.5 -39q-35 0 -61.5 17.5t-40 51t-13.5 83z" />
<glyph unicode="&#x451;&#x44f;" horiz-adv-x="1255" d="M63 188q0 45 11.5 96.5t33 101.5t50 97t63.5 88q39 45 86 82t94.5 56.5t91.5 19.5t78 -24q29 -23 34 -58t-11 -77t-51 -84.5t-84 -79.5q-25 -18 -58.5 -35t-70.5 -29t-70 -19.5t-53 -7.5q-12 -29 -21.5 -75.5t-6.5 -92t24.5 -79t72.5 -33.5q68 0 127.5 42t116.5 128 q8 12 18.5 18t18.5 6t10 -8t-6 -22q-68 -117 -141.5 -162t-159.5 -45q-78 0 -136 49t-61 147zM221 350q14 0 39 5t55.5 16.5t62 28.5t60.5 40q41 35 69 78t38 80t4 61.5t-30.5 23.5t-67.5 -33t-107 -107q-41 -49 -74.5 -106.5t-48.5 -86.5zM330 901q0 29 18.5 48.5 t46.5 19.5q29 0 49.5 -18.5t20.5 -49.5q0 -29 -18.5 -48t-47.5 -19t-49 18t-20 49zM472 161q-1 36 12.5 57.5t34 28.5t35.5 0t20.5 -29.5t-13.5 -59.5q-8 -18 -4 -38t15.5 -36t28.5 -27.5t40 -11.5q35 -2 60.5 7t48.5 30q47 41 91 100.5t81 124.5q4 4 28 0q11 -2 27 -4 q-33 -59 -66.5 -115.5t-72.5 -99.5t-82 -69.5t-92 -26.5q-119 0 -164 84q-27 49 -28 85zM594 901q0 29 18.5 48.5t46.5 19.5q29 0 49.5 -18.5t20.5 -49.5q0 -29 -18.5 -48t-46.5 -19q-29 0 -49.5 18t-20.5 49zM813 407.5q-2 32.5 4 61.5q8 37 25.5 75t42 70.5t56.5 57 t69 35.5q55 16 96 8t61.5 -37t19.5 -78t-32 -113q-45 -55 -74 -84q-25 -25 -37 -28.5t15 45.5t47 94t26.5 80t-6 56.5t-51.5 23.5q-29 2 -56.5 -11.5t-47.5 -41.5q-23 -31 -48.5 -72t-37.5 -76q-8 -20 -10.5 -49t8 -52.5t40 -36.5t87.5 -5q29 4 28.5 -11.5t-41.5 -19.5 q-68 -8 -106.5 7.5t-57 42t-20.5 59zM947.5 127q-5.5 53 13.5 100q25 51 44 91t38.5 77t41 76t48.5 88q20 37 33.5 62.5t26.5 41t28.5 21.5t40.5 4q20 -2 41.5 -7t44.5 -1q-23 -12 -54.5 -53t-65.5 -96.5t-67.5 -118t-60.5 -117.5q-14 -29 -29.5 -71t-22 -82t3 -68.5 t46.5 -28.5q39 0 81 43t78.5 100.5t66.5 115.5t46 91q12 27 27.5 20t1.5 -38q-23 -47 -56.5 -112.5t-76.5 -126t-94.5 -103.5t-110.5 -43q-25 0 -48.5 13t-43.5 42q-16 27 -21.5 80z" />
<glyph unicode="&#x446;&#x443;" horiz-adv-x="1548" d="M49 157.5q4 30.5 15.5 60.5t26.5 57.5t30 56.5q-10 0 -19.5 6t0.5 27q10 16 18.5 34.5t18.5 36.5q31 59 61.5 118.5t53.5 107.5q12 25 31.5 34t48.5 9h125q-18 -12 -32.5 -25.5t-30 -32t-32 -45.5t-36.5 -70q-29 -53 -52 -102q-23 -43 -43 -88t-34 -74q-37 -80 -41 -133 t15.5 -74.5t58 -6t87.5 72.5q43 49 85 116.5t81 140.5t75 144.5t65 133.5q12 25 31.5 34t48.5 9h110q-23 -18 -39 -34t-31.5 -37.5t-32 -53t-38.5 -78.5q-23 -43 -44.5 -89t-41 -90t-33.5 -82t-18 -65q-14 -66 1 -93.5t37 -29.5q37 0 75 33t73 83t66.5 110.5t58.5 115.5 q12 27 27.5 20t1.5 -38q-25 -53 -58 -117.5t-73.5 -122t-90 -96.5t-104.5 -39q-35 0 -61.5 17.5t-40 51t-13.5 83t21 110.5q-27 -47 -58.5 -93t-67.5 -84t-75 -61.5t-76 -23.5q-16 0 -35.5 3t-38 13.5t-34 29t-21.5 46.5q-6 33 -2 63.5zM299 -336q2 47 40 108.5t91 119 t109.5 102.5t93.5 61h11t1 -20q-41 -33 -83 -76t-77.5 -88t-58.5 -90t-25 -80q0 -29 12.5 -48.5t47.5 -19.5q29 0 56.5 20.5t47.5 41.5q4 4 14.5 5t6.5 -13q-4 -16 -19.5 -36t-42 -37t-60.5 -29.5t-73 -12.5t-66.5 22.5t-25.5 69.5zM377 -484q6 44 29 87q29 57 81 98t111 70 q104 49 238.5 80.5t259.5 66.5q29 51 55.5 114.5t49 127t41 121t30.5 98.5q-27 -47 -64 -111.5t-83 -123t-100 -100.5t-114 -42q-16 0 -35.5 3t-38 13.5t-34 29t-21.5 46.5q-6 33 -2 63.5t15.5 60.5t27 57.5t29.5 56.5q-10 0 -19.5 6t1.5 27q10 16 18 34.5t18 36.5 q31 59 62 118.5t53 107.5q12 25 31.5 34t48.5 9h125q-14 -12 -35.5 -26.5t-40.5 -47.5q-53 -90 -97 -180.5t-87 -182.5q-37 -80 -41 -133t15.5 -74.5t58 -6t88.5 72.5q43 49 88 116.5t87 140.5t79.5 144.5t66.5 133.5q12 25 31.5 34t48.5 9h111q-29 -20 -50.5 -46t-40 -59 t-35 -75t-34.5 -93q-39 -104 -79 -225t-85 -244q123 39 203 104.5t129 155.5q16 27 33.5 20t1.5 -36q-43 -78 -90.5 -128t-97.5 -83t-103 -54.5t-111 -43.5q-49 -86 -111.5 -182.5t-140.5 -177.5t-174 -133t-209 -52q-78 0 -120.5 22.5t-60 59.5t-11.5 81zM433.5 -474 q-17.5 -54 3 -93t85.5 -39q68 0 139.5 42t138 101.5t123 125t91.5 114.5q10 16 21.5 36t23.5 40q-49 -12 -105.5 -26.5t-114 -31t-110.5 -34t-96 -35.5q-78 -35 -130 -90.5t-69.5 -109.5z" />
<glyph unicode="&#x446;&#x434;" horiz-adv-x="1533" d="M49 157.5q4 30.5 15.5 60.5t26.5 57.5t30 56.5q-10 0 -19.5 6t0.5 27q10 16 18.5 34.5t18.5 36.5q31 59 61.5 118.5t53.5 107.5q12 25 31.5 34t48.5 9h125q-18 -12 -32.5 -25.5t-30 -32t-32 -45.5t-36.5 -70q-29 -53 -52 -102q-23 -43 -43 -88t-34 -74q-37 -80 -41 -133 t15.5 -74.5t58 -6t87.5 72.5q43 49 85 116.5t81 140.5t75 144.5t65 133.5q12 25 31.5 34t48.5 9h110q-23 -18 -39 -34t-31.5 -37.5t-32 -53t-38.5 -78.5q-23 -43 -44.5 -89t-41 -90t-33.5 -82t-18 -65q-14 -66 1 -93.5t37 -29.5q37 0 75 33t73 83t66.5 110.5t58.5 115.5 q12 27 27.5 20t1.5 -38q-25 -53 -58 -117.5t-73.5 -122t-90 -96.5t-104.5 -39q-35 0 -61.5 17.5t-40 51t-13.5 83t21 110.5q-27 -47 -58.5 -93t-67.5 -84t-75 -61.5t-76 -23.5q-16 0 -35.5 3t-38 13.5t-34 29t-21.5 46.5q-6 33 -2 63.5zM299 -336q2 47 40 108.5t91 119 t109.5 102.5t93.5 61h11t1 -20q-41 -33 -83 -76t-77.5 -88t-58.5 -90t-25 -80q0 -29 12.5 -48.5t47.5 -19.5q29 0 56.5 20.5t47.5 41.5q4 4 14.5 5t6.5 -13q-4 -16 -19.5 -36t-42 -37t-60.5 -29.5t-73 -12.5t-66.5 22.5t-25.5 69.5zM514 -489q0 76 52 134t126 101 q76 45 147.5 76t140.5 55.5t133.5 45t123.5 44.5q18 53 29.5 109.5t17.5 118.5q6 59 6 105t-4 62q-25 -47 -66.5 -115.5t-94 -128t-112 -94t-120.5 -16.5q-78 33 -97.5 99.5t-1 147.5t64.5 165t104 151q45 55 103 93t121.5 53.5t128 4.5t122.5 -56q27 -23 29.5 -43.5 t-6.5 -31.5t-23.5 -9t-22.5 24q-20 55 -56 69.5t-81 -1t-95 -54t-98 -90.5q-55 -63 -102 -137t-72.5 -140.5t-24.5 -116.5t42 -68q45 -18 101 21.5t108.5 106t93.5 140.5t55 123q10 35 26.5 49t35 18t36 4t29.5 11q20 -123 13 -249t-40 -249q37 27 75 59.5t69 73.5 q51 68 76.5 128.5t42.5 88.5q14 27 29 21t1 -37q-39 -80 -71.5 -143.5t-68.5 -111.5t-77 -84t-98 -63q-35 -96 -99.5 -205.5t-151.5 -201.5t-191.5 -153.5t-214.5 -61.5q-193 0 -193 158zM562 -492.5q-11 -46.5 10.5 -80t84.5 -33.5q33 0 71 11t73 27.5t65.5 35t48.5 32.5 q47 39 94.5 91.5t90.5 109.5q76 107 117 207q-16 -6 -35 -12.5t-37 -12.5q-113 -39 -232.5 -85t-218.5 -111q-49 -33 -85 -83t-47 -96.5z" />
<glyph unicode="&#x446;&#x437;" horiz-adv-x="1429" d="M49 157.5q4 30.5 15.5 60.5t26.5 57.5t30 56.5q-10 0 -19.5 6t0.5 27q10 16 18.5 34.5t18.5 36.5q31 59 61.5 118.5t53.5 107.5q12 25 31.5 34t48.5 9h125q-18 -12 -32.5 -25.5t-30 -32t-32 -45.5t-36.5 -70q-29 -53 -52 -102q-23 -43 -43 -88t-34 -74q-37 -80 -41 -133 t15.5 -74.5t58 -6t87.5 72.5q43 49 85 116.5t81 140.5t75 144.5t65 133.5q12 25 31.5 34t48.5 9h110q-23 -18 -39 -34t-31.5 -37.5t-32 -53t-38.5 -78.5q-23 -43 -44.5 -89t-41 -90t-33.5 -82t-18 -65q-14 -66 1 -93.5t37 -29.5q37 0 75 33t73 83t66.5 110.5t58.5 115.5 q12 27 27.5 20t1.5 -38q-25 -53 -58 -117.5t-73.5 -122t-90 -96.5t-104.5 -39q-35 0 -61.5 17.5t-40 51t-13.5 83t21 110.5q-27 -47 -58.5 -93t-67.5 -84t-75 -61.5t-76 -23.5q-16 0 -35.5 3t-38 13.5t-34 29t-21.5 46.5q-6 33 -2 63.5zM299 -336q2 47 40 108.5t91 119 t109.5 102.5t93.5 61h11t1 -20q-41 -33 -83 -76t-77.5 -88t-58.5 -90t-25 -80q0 -29 12.5 -48.5t47.5 -19.5q29 0 56.5 20.5t47.5 41.5q4 4 14.5 5t6.5 -13q-4 -16 -19.5 -36t-42 -37t-60.5 -29.5t-73 -12.5t-66.5 22.5t-25.5 69.5zM336 -476.5q-2 58.5 39 122.5 q41 61 121.5 109t181 87t209 72t206.5 63q12 37 23.5 89.5t12.5 98.5t-14 75.5t-60 21.5q-20 -10 -43 -19.5t-48 -19.5q-12 -4 -21 0t-12 11.5t1 15.5t16 12q51 14 89 39t65.5 51.5t46 50t28.5 39.5q37 55 23 101.5t-56 64t-97.5 -4t-102.5 -101.5q-10 -16 -23.5 -41 t-29 -52.5t-29.5 -57t-27 -54.5q-12 -27 -26.5 -19.5t2.5 41.5q29 53 57.5 113t63.5 121q47 86 113.5 126t127 41t101.5 -33t39 -95q-4 -68 -53.5 -145.5t-147.5 -137.5q78 2 108.5 -37t32.5 -96q0 -10 -2 -30.5t-5 -43t-7 -43t-8 -32.5q51 10 95 44.5t83 85t72.5 112 t64.5 124.5q14 27 28.5 21t0.5 -37q-35 -72 -71 -138.5t-78 -121t-92 -92t-116 -50.5q-78 -217 -232.5 -373.5t-377.5 -222.5q-78 -23 -139.5 -8t-96 54.5t-36.5 98zM407.5 -475q-8.5 -57 24.5 -92t113 -19q59 12 134 53t149.5 107t140 154.5t106.5 197.5 q-68 -23 -139.5 -42t-138 -40.5t-126 -45t-104.5 -50.5q-68 -39 -109.5 -102.5t-50 -120.5z" />
<glyph unicode="&#x449;&#x434;" horiz-adv-x="1904" d="M49 157.5q4 30.5 15.5 60.5t26.5 57.5t30 56.5q-10 0 -19.5 6t0.5 27q10 16 18.5 34.5t18.5 36.5q31 59 61.5 118.5t53.5 107.5q12 25 31.5 34t48.5 9h125q-18 -12 -32.5 -25.5t-30 -32t-32 -45.5t-36.5 -70q-29 -53 -52 -102q-23 -43 -43 -88t-34 -74q-37 -80 -41 -133 t15.5 -74.5t58 -6t87.5 72.5q43 49 85 116.5t81 140.5t75 144.5t65 133.5q12 25 31.5 34t48.5 9h110q-23 -18 -39 -34t-31.5 -37.5t-32 -53t-38.5 -78.5q-23 -43 -44.5 -89t-41 -90t-33.5 -82t-18 -65q-14 -66 1 -93.5t37 -29.5q29 0 58 20.5t57 53.5q43 49 85 116.5 t81 140.5t75 144.5t64 133.5q12 25 32 34t48 9h111q-23 -18 -39.5 -34t-31.5 -37.5t-31.5 -53t-39.5 -78.5q-23 -43 -44 -89t-40.5 -90t-34 -82t-18.5 -65q-14 -66 1.5 -93.5t37.5 -29.5q37 0 75 33t72.5 83t66.5 110.5t59 115.5q12 27 27.5 20t0.5 -38 q-25 -53 -57.5 -117.5t-73.5 -122t-90 -96.5t-104 -39q-35 0 -61.5 17.5t-40 51t-13.5 83t20 110.5q-18 -35 -47.5 -80t-66.5 -85t-78 -68.5t-84 -28.5q-35 0 -61.5 17.5t-40 51t-13 83t20.5 110.5q-27 -47 -58.5 -93t-67.5 -84t-75 -61.5t-76 -23.5q-16 0 -35.5 3t-38 13.5 t-34 29t-21.5 46.5q-6 33 -2 63.5zM670 -336q2 47 40 108.5t91 119t109.5 102.5t93.5 61h11t1 -20q-41 -33 -83 -76t-78 -88t-58.5 -90t-24.5 -80q0 -29 12.5 -48.5t46.5 -19.5q29 0 56.5 20.5t48.5 41.5q4 4 14.5 5t5.5 -13q-4 -16 -19 -36t-42 -37t-60.5 -29.5 t-72.5 -12.5t-66.5 22.5t-25.5 69.5zM885 -489q0 76 52 134t126 101q76 45 147.5 76t140 55.5t133 45t124.5 44.5q18 53 29.5 109.5t17.5 118.5q6 59 6 105t-4 62q-25 -47 -67 -115.5t-94 -128t-111.5 -94t-120.5 -16.5q-78 33 -97.5 99.5t-1 147.5t64.5 165t103 151 q45 55 103.5 93t122 53.5t128 4.5t121.5 -56q27 -23 30 -43.5t-6 -31.5t-23.5 -9t-22.5 24q-20 55 -56 69.5t-81 -1t-95.5 -54t-97.5 -90.5q-55 -63 -102 -137t-73 -140.5t-25 -116.5t42 -68q45 -18 101.5 21.5t109 106t93 140.5t55.5 123q10 35 26.5 49t35 18t36 4t29.5 11 q20 -123 13 -249t-40 -249q37 27 75 59.5t69 73.5q51 68 76.5 128.5t41.5 88.5q14 27 29.5 21t1.5 -37q-39 -80 -71.5 -143.5t-68.5 -111.5t-77 -84t-98 -63q-35 -96 -99.5 -205.5t-151.5 -201.5t-191.5 -153.5t-215.5 -61.5q-193 0 -192 158zM933 -492.5 q-11 -46.5 10.5 -80t84.5 -33.5q33 0 71 11t72.5 27.5t65.5 35t49 32.5q47 39 94 91.5t90 109.5q76 107 117 207q-16 -6 -34.5 -12.5t-36.5 -12.5q-113 -39 -233 -85t-218 -111q-49 -33 -85 -83t-47 -96.5z" />
<glyph unicode="&#x449;&#x437;" horiz-adv-x="1800" d="M49 157.5q4 30.5 15.5 60.5t26.5 57.5t30 56.5q-10 0 -19.5 6t0.5 27q10 16 18.5 34.5t18.5 36.5q31 59 61.5 118.5t53.5 107.5q12 25 31.5 34t48.5 9h125q-18 -12 -32.5 -25.5t-30 -32t-32 -45.5t-36.5 -70q-29 -53 -52 -102q-23 -43 -43 -88t-34 -74q-37 -80 -41 -133 t15.5 -74.5t58 -6t87.5 72.5q43 49 85 116.5t81 140.5t75 144.5t65 133.5q12 25 31.5 34t48.5 9h110q-23 -18 -39 -34t-31.5 -37.5t-32 -53t-38.5 -78.5q-23 -43 -44.5 -89t-41 -90t-33.5 -82t-18 -65q-14 -66 1 -93.5t37 -29.5q29 0 58 20.5t57 53.5q43 49 85 116.5 t81 140.5t75 144.5t64 133.5q12 25 32 34t48 9h111q-23 -18 -39.5 -34t-31.5 -37.5t-31.5 -53t-39.5 -78.5q-23 -43 -44 -89t-40.5 -90t-34 -82t-18.5 -65q-14 -66 1.5 -93.5t37.5 -29.5q37 0 75 33t72.5 83t66.5 110.5t59 115.5q12 27 27.5 20t0.5 -38 q-25 -53 -57.5 -117.5t-73.5 -122t-90 -96.5t-104 -39q-35 0 -61.5 17.5t-40 51t-13.5 83t20 110.5q-18 -35 -47.5 -80t-66.5 -85t-78 -68.5t-84 -28.5q-35 0 -61.5 17.5t-40 51t-13 83t20.5 110.5q-27 -47 -58.5 -93t-67.5 -84t-75 -61.5t-76 -23.5q-16 0 -35.5 3t-38 13.5 t-34 29t-21.5 46.5q-6 33 -2 63.5zM670 -336q2 47 40 108.5t91 119t109.5 102.5t93.5 61h11t1 -20q-41 -33 -83 -76t-78 -88t-58.5 -90t-24.5 -80q0 -29 12.5 -48.5t46.5 -19.5q29 0 56.5 20.5t48.5 41.5q4 4 14.5 5t5.5 -13q-4 -16 -19 -36t-42 -37t-60.5 -29.5 t-72.5 -12.5t-66.5 22.5t-25.5 69.5zM707 -476.5q-2 58.5 38 122.5q41 61 122 109t181.5 87t209 72t206.5 63q12 37 23.5 89.5t12.5 98.5t-14.5 75.5t-60.5 21.5q-20 -10 -42.5 -19.5t-47.5 -19.5q-12 -4 -21 0t-12.5 11.5t1 15.5t16.5 12q51 14 89 39t65.5 51.5t46 50 t28.5 39.5q37 55 22.5 101.5t-56 64t-97 -4t-102.5 -101.5q-10 -16 -23.5 -41t-29 -52.5t-29.5 -57t-27 -54.5q-12 -27 -26.5 -19.5t2.5 41.5q29 53 57.5 113t63.5 121q47 86 113.5 126t127 41t101.5 -33t38 -95q-4 -68 -53 -145.5t-147 -137.5q78 2 108.5 -37t32.5 -96 q0 -10 -2 -30.5t-5 -43t-7 -43t-8 -32.5q51 10 95 44.5t83 85t72.5 112t64.5 124.5q14 27 28.5 21t0.5 -37q-35 -72 -71 -138.5t-78 -121t-92 -92t-116 -50.5q-78 -217 -232.5 -373.5t-377.5 -222.5q-78 -23 -139.5 -8t-96 54.5t-36.5 98zM778 -475q-8 -57 25 -92t112 -19 q59 12 134 53t150 107t140.5 154.5t106.5 197.5q-68 -23 -139.5 -42t-138 -40.5t-126 -45t-104.5 -50.5q-68 -39 -110 -102.5t-50 -120.5z" />
<glyph unicode="&#x449;&#x443;" horiz-adv-x="1918" d="M49 157.5q4 30.5 15.5 60.5t26.5 57.5t30 56.5q-10 0 -19.5 6t0.5 27q10 16 18.5 34.5t18.5 36.5q31 59 61.5 118.5t53.5 107.5q12 25 31.5 34t48.5 9h125q-18 -12 -32.5 -25.5t-30 -32t-32 -45.5t-36.5 -70q-29 -53 -52 -102q-23 -43 -43 -88t-34 -74q-37 -80 -41 -133 t15.5 -74.5t58 -6t87.5 72.5q43 49 85 116.5t81 140.5t75 144.5t65 133.5q12 25 31.5 34t48.5 9h110q-23 -18 -39 -34t-31.5 -37.5t-32 -53t-38.5 -78.5q-23 -43 -44.5 -89t-41 -90t-33.5 -82t-18 -65q-14 -66 1 -93.5t37 -29.5q29 0 58 20.5t57 53.5q43 49 85 116.5 t81 140.5t75 144.5t64 133.5q12 25 32 34t48 9h111q-23 -18 -39.5 -34t-31.5 -37.5t-31.5 -53t-39.5 -78.5q-23 -43 -44 -89t-40.5 -90t-34 -82t-18.5 -65q-14 -66 1.5 -93.5t37.5 -29.5q37 0 75 33t72.5 83t66.5 110.5t59 115.5q12 27 27.5 20t0.5 -38 q-25 -53 -57.5 -117.5t-73.5 -122t-90 -96.5t-104 -39q-35 0 -61.5 17.5t-40 51t-13.5 83t20 110.5q-18 -35 -47.5 -80t-66.5 -85t-78 -68.5t-84 -28.5q-35 0 -61.5 17.5t-40 51t-13 83t20.5 110.5q-27 -47 -58.5 -93t-67.5 -84t-75 -61.5t-76 -23.5q-16 0 -35.5 3t-38 13.5 t-34 29t-21.5 46.5q-6 33 -2 63.5zM670 -336q2 47 40 108.5t91 119t109.5 102.5t93.5 61h11t1 -20q-41 -33 -83 -76t-78 -88t-58.5 -90t-24.5 -80q0 -29 12.5 -48.5t46.5 -19.5q29 0 56.5 20.5t48.5 41.5q4 4 14.5 5t5.5 -13q-4 -16 -19 -36t-42 -37t-60.5 -29.5 t-72.5 -12.5t-66.5 22.5t-25.5 69.5zM748 -484q6 44 28 87q29 57 81 98t112 70q104 49 238.5 80.5t259.5 66.5q29 51 55 114.5t49 127t41 121t31 98.5q-27 -47 -64 -111.5t-83 -123t-100 -100.5t-114 -42q-16 0 -35.5 3t-38 13.5t-34 29t-21.5 46.5q-6 33 -2 63.5t15.5 60.5 t26.5 57.5t30 56.5q-10 0 -19.5 6t0.5 27q10 16 18.5 34.5t18.5 36.5q31 59 61.5 118.5t53.5 107.5q12 25 31.5 34t48.5 9h125q-14 -12 -36 -26.5t-40 -47.5q-53 -90 -97 -180.5t-87 -182.5q-37 -80 -41 -133t15.5 -74.5t58 -6t87.5 72.5q43 49 88.5 116.5t87.5 140.5 t79.5 144.5t66.5 133.5q12 25 31.5 34t48.5 9h110q-29 -20 -50 -46t-39.5 -59t-35 -75t-34.5 -93q-39 -104 -79 -225t-85 -244q33 10 73 26.5t78.5 41t75.5 58.5t68 77q47 70 79.5 133t49.5 92q14 27 28.5 20t0.5 -38q-53 -106 -94.5 -179t-91.5 -125.5t-120.5 -92 t-181.5 -78.5q-49 -86 -111.5 -182.5t-140.5 -177.5t-174 -133t-209 -52q-78 0 -121 22.5t-60 59.5t-11 81zM804 -474q-17 -54 3.5 -93t85.5 -39q68 0 139.5 42t138 101.5t123 125t91.5 114.5q10 16 21.5 36t23.5 40q-49 -12 -105.5 -26.5t-114 -31t-110.5 -34t-96 -35.5 q-78 -35 -130.5 -90.5t-69.5 -109.5z" />
<glyph horiz-adv-x="0" />
<glyph horiz-adv-x="0" />
<glyph unicode="&#xd;" horiz-adv-x="530" />
<glyph unicode=" "  horiz-adv-x="530" />
<glyph unicode="&#x09;" horiz-adv-x="530" />
<glyph unicode="&#xa0;" horiz-adv-x="530" />
<glyph unicode="!" horiz-adv-x="716" d="M246 55q4 35 33.5 59.5t64.5 24.5t55.5 -24.5t14.5 -59.5t-35 -59.5t-64 -24.5t-55 24.5t-14 59.5zM399 221l2 15l521 991q10 20 30.5 29.5t45 11.5t49 1t45.5 -1l10 -4l4 -13q-4 -12 -33 -57t-74 -113.5t-101 -152.5t-115.5 -172t-118 -175t-108.5 -160t-86 -127 l-50 -75z" />
<glyph unicode="&#x22;" horiz-adv-x="651" d="M348 1278q-2 27 16.5 47.5t45.5 20.5q39 0 45 -39q4 -23 -3.5 -74t-19.5 -108.5t-25.5 -108.5t-19.5 -76h-20zM571 1280q-4 29 13.5 47.5t46.5 18.5q41 0 47 -41q4 -23 -4 -74t-20.5 -107.5t-26 -108.5t-19.5 -75h-20z" />
<glyph unicode="#" horiz-adv-x="1527" d="M51 469l62 96h319l172 289h-348l59 98h349l282 473h113l-287 -473h287l284 473h111l-285 -473h304l-58 -98h-305l-170 -289h330l-60 -96h-329l-285 -469h-109l281 469h-283l-284 -469h-109l283 469h-324zM541 565h286l172 289h-284z" />
<glyph unicode="$" horiz-adv-x="919" d="M-137 109q2 10 16.5 26.5t20.5 22.5h18q45 -47 102.5 -75t118.5 -40l305 557q-45 55 -83.5 120.5t-38.5 139.5q0 82 43 142.5t109.5 99.5t144 57.5t147.5 18.5l57 106l66 12l-68 -125q84 -14 118 -65.5t34 -108.5q0 -53 -32 -94t-81 -41q-39 0 -65.5 28t-24.5 66 q2 37 26.5 61.5t65.5 24.5q16 0 38 -11t26 -23q-10 61 -48 86.5t-81 35.5l-240 -434q49 -66 93 -141.5t44 -161.5q0 -98 -50 -173t-127 -124t-170 -74.5t-177 -25.5l-57 -109l-70 -12l72 125q-29 6 -66 14.5t-71.5 20.5t-65.5 30.5t-49 43.5zM193 37q66 0 132 22.5 t119.5 64.5t87 101t33.5 131q0 55 -25.5 106.5t-58.5 94.5zM451 913q0 -53 23.5 -91t49.5 -81l221 398q-8 0 -14 1t-14 1q-47 0 -94.5 -16.5t-85 -46t-62 -71.5t-24.5 -94z" />
<glyph unicode="%" horiz-adv-x="1271" d="M-68 -162q258 272 492.5 556t470.5 575q-59 -51 -121.5 -92t-121 -61.5t-111 -14.5t-92.5 49q-41 -33 -86.5 -52.5t-92.5 -17.5q-59 2 -93 35t-45 86t-1 119.5t39 134.5q31 70 76 132.5t97 110.5t108.5 74.5t107.5 26.5q76 -2 111 -39t39 -94t-16.5 -127t-54.5 -137.5 t-75 -125.5t-76 -91q20 -39 58.5 -46.5t86.5 8t103.5 49.5t110.5 79q35 27 93 88t116.5 125.5t104.5 116t57 57.5q2 2 11 4t18 2t16.5 -3t7.5 -11l-1260 -1526h-76zM242 940q-4 -45 6 -73.5t39 -37.5q31 -10 66.5 4.5t72.5 45.5q-35 53 -31 100q0 35 16.5 61.5t53.5 26.5 q27 0 44 -17.5t17 -43.5q0 -14 -4 -23q14 20 36 59t41 85.5t34.5 96.5t19.5 92t-7 73t-44 41q-33 8 -71.5 -9.5t-77.5 -54.5t-76 -90t-66 -115q-29 -63 -47 -119.5t-22 -101.5zM575.5 179.5q10.5 66.5 38.5 133.5q31 70 76 133.5t97.5 110.5t109 74.5t107.5 25.5 q90 -2 123.5 -56t25.5 -135t-51 -173t-104.5 -171t-136.5 -131t-146 -50q-59 2 -93 34.5t-45.5 85t-1 119zM686 98q-4 -45 6 -73.5t39 -36.5q35 -10 70 4t65.5 40.5t56 57.5t44.5 53q23 29 51 87t51 124q14 39 22.5 78t8.5 71t-12.5 54.5t-38.5 30.5q-35 10 -74 -7.5 t-78 -55.5t-76 -90t-65 -113q-29 -63 -47.5 -121t-22.5 -103z" />
<glyph unicode="&#x26;" horiz-adv-x="1241" d="M24.5 328.5q10.5 111.5 81 212t198.5 174t312 94.5q-29 39 -43 88t-14 96q2 109 64.5 193t154.5 141t199.5 86t204.5 27q43 0 86 -9.5t78.5 -30t58 -55t22.5 -85.5q0 -59 -35.5 -105.5t-88.5 -46.5q-41 0 -70 28.5t-27 69.5t30 67.5t69 24.5q18 0 40.5 -11t26.5 -25 q6 35 -4 58t-30.5 36.5t-48 20.5t-54.5 7q-82 2 -188.5 -37.5t-210.5 -129.5q-35 -31 -72 -79t-62.5 -103.5t-32.5 -113t17 -106.5q33 0 78 4t92 0q45 -4 69.5 -24.5t25.5 -44t-23.5 -42t-77.5 -18.5q-68 0 -121 29t-86 61q-121 -18 -210 -87.5t-140 -164t-64.5 -199 t14 -192.5t100.5 -145.5t192 -57.5q109 0 198.5 40t154 99.5t101.5 129t41 131.5q2 57 -38 94t-101.5 55.5t-136 17.5t-140 -20.5t-113.5 -59.5t-59 -97q-8 -47 25 -97.5t111 -91.5q8 -4 13 -13t5 -17.5t-5 -12.5t-13 0q-135 72 -184.5 157t-24 158.5t121 123t250.5 49.5 h363q25 0 69 8t94 24.5t99 39t82 52t43 64.5t-16 76q-10 16 1 24t21 -8q47 -70 22.5 -133t-92 -111.5t-166 -76t-200.5 -25.5q55 -45 69.5 -108.5t-6 -131t-73 -133t-130 -118t-176 -84t-210.5 -31.5q-184 0 -300 61.5t-168.5 154.5t-42 204.5zM702 786q49 -61 148 -61 q37 0 53.5 8t14 19.5t-19.5 20.5t-44 11q-41 4 -78 4t-74 -2z" />
<glyph unicode="'" horiz-adv-x="323" d="M158 800q-2 11 16 17q57 20 102.5 64.5t55.5 113.5q-31 -20 -60 -20q-35 0 -55 25.5t-14 60.5t34.5 59.5t63.5 24.5q45 0 64.5 -36t19.5 -77q0 -49 -19.5 -89t-50 -68.5t-66.5 -49t-69 -30.5q-20 -6 -22 5z" />
<glyph unicode="(" horiz-adv-x="716" d="M52.5 337.5q-13.5 149.5 31.5 326.5q31 113 114 248t205.5 260.5t279.5 227t333 146.5q25 6 37 2t11 -11t-13.5 -17.5t-34.5 -16.5q-117 -31 -216.5 -87t-181 -127.5t-146 -152.5t-114 -162t-83 -157t-52.5 -135q-47 -141 -54 -282.5t24.5 -252t104.5 -174t187 -49.5 q39 4 38 -17.5t-52 -27.5q-109 -12 -200 42t-148 160.5t-70.5 256z" />
<glyph unicode=")" horiz-adv-x="1060" d="M28 -95q1 7 14 17t36 17q117 31 215 87t180 127.5t146.5 152.5t113.5 162t83 156.5t52 135.5q45 141 53.5 282.5t-23.5 251t-104.5 173t-185.5 51.5q-41 -4 -40 17t53 28q109 12 199.5 -42.5t148 -161t71 -256t-31.5 -325.5q-29 -113 -112 -248t-207 -261t-280.5 -227 t-332.5 -146q-25 -6 -37 -2t-11 11z" />
<glyph unicode="*" horiz-adv-x="882" d="M34 750.5q-3 17.5 5 32t37 14.5h297q-27 59 -55.5 123.5t-61.5 132.5q-10 20 -5 31.5t17.5 13.5t28.5 -8.5t29 -34.5q35 -66 63.5 -124.5t56.5 -111.5l238 240q14 16 26.5 14t16.5 -14t-2 -32.5t-27 -41.5l-174 -188h279q20 0 27.5 -10.5t1 -22.5t-23.5 -22.5t-44 -10.5 l-270 -10q27 -53 53 -106.5t55 -108.5q6 -12 0 -30.5t-19.5 -31t-29.5 -12.5t-29 25q-16 37 -41.5 95t-60.5 134l-223 -244q-10 -10 -28.5 -9t-32 11.5t-16.5 26.5t17 37l205 207l-270 -10q-14 0 -25.5 14t-14.5 31.5z" />
<glyph unicode="+" horiz-adv-x="937" d="M278.5 444.5q2.5 18.5 13.5 35t34 16.5q16 0 48 -1t70.5 -2t81.5 -2.5t84 -1.5q6 29 15.5 67t18.5 79t19.5 81t18.5 70q4 18 15.5 29.5t22.5 13.5t17 -6t2 -28q-6 -29 -14 -68t-16.5 -82t-16.5 -84t-14 -72q59 -2 129.5 -1t136.5 -1q16 0 25.5 -9t9.5 -19t-10.5 -18.5 t-30.5 -8.5q-59 0 -133 -4t-139 -8q-12 -76 -27.5 -155t-20.5 -126q-2 -10 -19 -20t-36.5 -13.5t-34 4t-8.5 29.5q4 18 11.5 48t17.5 67t20.5 79t20.5 83q-37 -4 -78 -6t-81 -4.5t-73.5 -4.5t-56.5 -4q-12 -2 -18.5 13.5t-4 34z" />
<glyph unicode="," horiz-adv-x="313" d="M-1 -205q-3 12 17 19q57 18 102.5 63t53.5 115q-27 -20 -57 -21q-35 0 -55.5 24.5t-14.5 59.5q4 35 34 59.5t64 24.5q45 0 67.5 -28.5t22.5 -69.5q0 -51 -21.5 -92t-53 -73t-68.5 -53.5t-70 -31.5q-18 -8 -21 4z" />
<glyph unicode="-" horiz-adv-x="831" d="M302 444.5q-3 18.5 4 35t30 16.5q63 0 167.5 -2t282.5 -7q18 0 29.5 -9t13.5 -19t-6 -18.5t-28 -8.5q-141 0 -254 -12t-205 -23q-10 -2 -20.5 13.5t-13.5 34z" />
<glyph unicode="." horiz-adv-x="425" d="M211 55q4 35 33.5 59.5t64.5 24.5t55.5 -24.5t14.5 -59.5t-35 -59.5t-63 -24.5q-35 0 -55.5 24.5t-14.5 59.5z" />
<glyph unicode="/" horiz-adv-x="1122" d="M37 -78q-12 17 18 43q51 45 133 137.5t187.5 218t231.5 281.5t261.5 327t278 351t283.5 358q16 20 40.5 26.5t45 2.5t27.5 -18.5t-11 -34.5q-63 -74 -149.5 -178.5t-184.5 -226.5t-205.5 -256t-215 -265t-211 -254t-193.5 -224t-163 -174t-120 -104q-41 -27 -53 -10z" />
<glyph unicode="0" horiz-adv-x="1028" d="M106 244q0 78 31 178t84 204.5t125 205t154 179.5t170 127t174 48q53 0 89 -17.5t58.5 -48t32.5 -73t10 -89.5q0 -80 -26.5 -184t-73.5 -213.5t-112.5 -214t-144.5 -186.5t-167 -132.5t-180 -50.5q-57 0 -99.5 21.5t-70 58.5t-41 85t-13.5 102zM229 172q0 -63 27 -108.5 t98 -45.5q70 0 141.5 55.5t138 143.5t126 198.5t102.5 219t68.5 205t25.5 157.5q0 57 -22.5 103.5t-87.5 46.5q-68 0 -139.5 -56.5t-140 -145.5t-130 -198.5t-107.5 -218t-73 -204t-27 -152.5z" />
<glyph unicode="1" horiz-adv-x="774" d="M123 12q141 248 277.5 494t275.5 493q-78 -72 -160 -134t-174 -117h-8l-8 16l4 12q104 78 195 150.5t180 165.5q16 18 40.5 40.5t51.5 26.5l63 6q4 2 12 -2v-10l-10 -20l-612 -1123q-16 -10 -52 -11t-55 -3q-4 0 -9 2t-9 2z" />
<glyph unicode="2" horiz-adv-x="999" d="M2 0q2 6 31.5 40t65.5 74t68 72.5t36 34.5q10 2 22.5 2t22.5 -4q41 37 105.5 95.5t135 129t142 148.5t128 154.5t92.5 148.5t36 131q0 47 -26.5 68.5t-72.5 21.5q-59 0 -111 -30.5t-96 -77.5t-78 -103.5t-52 -105.5l-9 -8h-24l-4 12q25 68 65.5 134.5t96 120.5t123 88 t145.5 34t132 -43t54 -127q0 -55 -44 -127t-113.5 -151t-154.5 -158.5t-168 -150.5t-152.5 -127t-108.5 -89l59 -29.5t82 -39t82 -34t57 -14.5q43 0 81 22.5t68 49t51.5 50.5t31.5 28l14 -13v-8q-25 -31 -62.5 -72t-82.5 -79.5t-91.5 -65.5t-86.5 -27q-23 0 -69 16.5t-95 37 t-93.5 40t-62.5 27.5l-143 -112z" />
<glyph unicode="3" horiz-adv-x="937" d="M20 27v10l15 12l10 4q29 -14 70 -22t73 -8q80 0 166 44t158 112.5t119 152.5t47 166q0 63 -42 95t-101 32q-35 0 -72 -9.5t-72 -19.5l-14 6l-2 19l8 10q55 23 136 61.5t156 93t127 120t52 138.5q0 39 -21.5 56.5t-58.5 17.5q-41 0 -81 -18.5t-76.5 -45t-68.5 -59 t-56 -59.5h-11l-14 12v10q35 43 76 83t88 72t99 51.5t110 19.5q61 0 108 -28.5t47 -98.5q0 -78 -48 -139.5t-118.5 -109.5t-149.5 -83t-138 -55q45 0 94 -9.5t89 -31t66.5 -57t26.5 -91.5q0 -94 -61.5 -185t-153.5 -162t-197.5 -114t-193.5 -43q-47 0 -98.5 10.5t-92.5 39.5 z" />
<glyph unicode="4" horiz-adv-x="950" d="M162 373v16q2 4 3 7t5 7q68 86 157 171t162 169q72 82 141.5 164t135.5 170q25 33 46.5 49.5t44 23.5t51 10t69.5 11l14 -6l2 -14q2 -16 -49 -72.5t-130 -133.5t-172 -163t-177 -161.5t-146.5 -131t-78.5 -69.5l444 8l133 258q14 29 51 33t66 6l12 -6l2 -12 q0 -4 -19.5 -44t-44 -87.5t-46 -90.5t-27.5 -51h49l12 -8l-10 -23l-14 -10l-60 -2q-10 -18 -37.5 -75.5t-59.5 -121t-59.5 -116.5t-35.5 -62q-4 -4 -22.5 -9t-41 -10t-42 -8t-25.5 -3l-10 2v8q0 4 14 31.5t34.5 68.5t46 88t48.5 89t40 73t21 39z" />
<glyph unicode="5" horiz-adv-x="911" d="M-25 -2v14l13 15l8 4q29 -10 62.5 -14.5t64.5 -4.5q86 0 178 49.5t169 125t127 167.5t50 178q0 63 -34.5 97.5t-98.5 34.5q-37 0 -71.5 -12.5t-68.5 -30t-66 -37t-64 -35.5l-13 4v12q4 14 29 60.5t58.5 108t73.5 129t75 127t60.5 99t31.5 46.5q47 18 109.5 15t127 -7 t126 1t108.5 40l8 -4q-29 -74 -87 -111t-129.5 -50t-149.5 -10t-142 7l-225 -391q57 39 131 65.5t144 26.5q86 0 145 -43t59 -135q0 -70 -30.5 -139.5t-83 -133t-121 -117t-142 -92.5t-147.5 -61.5t-139 -22.5q-29 0 -75 4.5t-71 20.5z" />
<glyph unicode="6" horiz-adv-x="862" d="M76 197q0 92 38 189t101.5 192.5t145 186.5t168.5 172t173 148.5t158 116.5l12 2l15 -22q-4 -4 -5 -8.5t-5 -8.5q-29 -31 -68 -60.5t-72 -57.5q-145 -133 -264 -289q-43 -55 -91 -130t-89 -157t-68.5 -165t-27.5 -154q0 -53 28.5 -90t83.5 -37q72 0 141.5 57t124 138 t87 170t32.5 155q0 35 -15 58.5t-54 23.5q-51 0 -98.5 -35t-86.5 -86t-67.5 -106.5t-44.5 -98.5l-9 -10l-20 -2l-4 12q14 59 50 128t86 127t112.5 96t130.5 38q72 0 108.5 -47t36.5 -115q0 -86 -48 -183t-124 -179t-169 -135.5t-181 -53.5q-102 0 -161.5 57.5t-59.5 162.5z " />
<glyph unicode="7" horiz-adv-x="999" d="M20 4q4 14 45 62.5t107 116t148.5 151.5t171 170t175.5 170t159.5 153.5t125 118.5t70.5 68q-82 2 -163 5t-163 3q-68 0 -105.5 -22.5t-61 -50t-39 -50t-37.5 -25.5l-7 5v12q41 82 74 133t75 81t99.5 41t149.5 11q72 0 145.5 -2t145.5 -12q6 4 19 12t22 8l8 -12l-4 -14 q-96 -111 -197.5 -215.5t-204.5 -210.5q-123 -129 -235.5 -262.5t-223.5 -272.5q-6 -6 -26.5 -32.5t-43 -55.5t-43 -52.5t-24.5 -25.5q-27 -12 -71.5 -14t-75.5 -6l-12 6z" />
<glyph unicode="8" horiz-adv-x="860" d="M29 176q0 72 45 145.5t109.5 141t137 124t125.5 97.5q-35 80 -34 164q0 68 28.5 128t76.5 106t110.5 73t128.5 27q78 0 133 -37t55 -121q0 -63 -31.5 -125.5t-79 -120t-100.5 -107.5t-98 -89q29 -61 34 -111.5t5 -118.5q0 -78 -37 -145.5t-95.5 -118.5t-132 -81 t-147.5 -30q-45 0 -87 12.5t-74.5 38t-52 62.5t-19.5 86zM123 170q0 -68 36 -109t107 -41q57 0 107.5 27t88.5 69t59.5 96.5t21.5 109.5q0 76 -29 163.5t-57 159.5q-53 -41 -112.5 -92t-109 -111.5t-81 -129t-31.5 -142.5zM545 915q0 -35 7 -72.5t18.5 -75.5t24.5 -75 t26 -67q41 33 85 79t80.5 98t60 109.5t23.5 114.5q0 53 -29.5 84t-82.5 31q-43 0 -82 -19.5t-68.5 -51.5t-46 -72t-16.5 -83z" />
</font>
</defs>
</svg>
